# Blender v2.78 (sub 0) OBJ File: 'Chimneys.blend'
# www.blender.org
mtllib Chimney1.mtl
g Chimney1
v 0.375000 -0.102672 -0.375000
v 0.375000 -0.102672 0.375000
v -0.375000 -0.102672 0.375000
v -0.375000 -0.102672 -0.375000
v 0.375000 1.502268 -0.375000
v 0.375000 1.502268 0.375000
v -0.375000 1.502268 0.375000
v -0.375000 1.502268 -0.375000
v 0.492258 1.502268 -0.492258
v 0.492258 1.502268 0.492258
v -0.492258 1.502268 -0.492258
v -0.492258 1.502268 0.492258
v 0.492258 1.603169 -0.492258
v 0.492258 1.603169 0.492258
v -0.492258 1.603169 -0.492258
v -0.492258 1.603169 0.492258
v 0.608456 1.603169 -0.608455
v 0.608455 1.603169 0.608456
v -0.608455 1.603169 -0.608455
v -0.608455 1.603169 0.608455
v 0.608456 1.795661 -0.608455
v 0.608455 1.795661 0.608456
v -0.608455 1.795661 -0.608455
v -0.608455 1.795661 0.608455
v 0.386304 1.795661 -0.386303
v 0.386303 1.795661 0.386304
v -0.386303 1.795661 -0.386304
v -0.386304 1.795661 0.386303
v 0.362883 1.466055 -0.362883
v 0.362883 1.466055 0.362883
v -0.362883 1.466055 -0.362883
v -0.362883 1.466055 0.362883
vt 0.4538 0.9519
vt 0.2698 0.9519
vt 0.2698 0.7679
vt 0.4538 0.7679
vt 0.4598 0.3917
vt 0.6828 0.3917
vt 0.6828 0.4456
vt 0.4598 0.4456
vt 0.2369 0.0079
vt 0.2369 0.3917
vt 0.0139 0.3917
vt 0.0139 0.0079
vt 0.9800 0.0079
vt 0.9800 0.3917
vt 0.6828 0.0079
vt 0.4598 0.0079
vt 0.6832 0.5012
vt 0.4595 0.5012
vt 0.9800 0.4456
vt 0.2369 0.4456
vt 0.0139 0.4456
vt 0.6826 0.5614
vt 0.4595 0.5614
vt 0.9801 0.5012
vt 0.2364 0.5012
vt 0.0139 0.5012
vt 0.6826 0.6126
vt 0.4595 0.6126
vt 0.9801 0.5614
vt 0.2364 0.5614
vt 0.0139 0.5614
vt 0.6826 0.6621
vt 0.4595 0.6621
vt 0.9801 0.6126
vt 0.2364 0.6126
vt 0.0139 0.6126
vt 0.6828 0.7330
vt 0.4598 0.7330
vt 0.9801 0.6621
vt 0.2364 0.6621
vt 0.0139 0.6621
vt 0.8270 0.9479
vt 0.6489 0.9479
vt 0.6489 0.7699
vt 0.8270 0.7699
vt 0.9800 0.7330
vt 0.2364 0.7330
vt 0.0139 0.7330
vn 0.0000 -1.0000 0.0000
vn 1.0000 0.0000 0.0000
vn -0.0000 -0.0000 1.0000
vn -1.0000 -0.0000 -0.0000
vn 0.0000 0.0000 -1.0000
vn 0.0000 1.0000 0.0000
vn 0.9975 0.0709 0.0000
vn 0.0000 0.0709 -0.9975
vn -0.0000 0.0709 0.9975
vn -0.9975 0.0709 -0.0000
usemtl Chimney1
s off
f 1/1/1 2/2/1 3/3/1 4/4/1
f 8/5/1 7/6/1 12/7/1 11/8/1
f 1/9/2 5/10/2 6/11/2 2/12/2
f 2/13/3 6/14/3 7/6/3 3/15/3
f 3/15/4 7/6/4 8/5/4 4/16/4
f 5/10/5 1/9/5 4/16/5 8/5/5
f 11/8/4 12/7/4 16/17/4 15/18/4
f 7/6/1 6/14/1 10/19/1 12/7/1
f 5/10/1 8/5/1 11/8/1 9/20/1
f 6/11/1 5/10/1 9/20/1 10/21/1
f 15/18/1 16/17/1 20/22/1 19/23/1
f 12/7/3 10/19/3 14/24/3 16/17/3
f 9/20/5 11/8/5 15/18/5 13/25/5
f 10/21/2 9/20/2 13/25/2 14/26/2
f 19/23/4 20/22/4 24/27/4 23/28/4
f 16/17/1 14/24/1 18/29/1 20/22/1
f 13/25/1 15/18/1 19/23/1 17/30/1
f 14/26/1 13/25/1 17/30/1 18/31/1
f 23/28/6 24/27/6 28/32/6 27/33/6
f 20/22/3 18/29/3 22/34/3 24/27/3
f 17/30/5 19/23/5 23/28/5 21/35/5
f 18/31/2 17/30/2 21/35/2 22/36/2
f 27/33/7 28/32/7 32/37/7 31/38/7
f 24/27/6 22/34/6 26/39/6 28/32/6
f 21/35/6 23/28/6 27/33/6 25/40/6
f 22/36/6 21/35/6 25/40/6 26/41/6
f 29/42/6 31/43/6 32/44/6 30/45/6
f 28/32/8 26/39/8 30/46/8 32/37/8
f 25/40/9 27/33/9 31/38/9 29/47/9
f 26/41/10 25/40/10 29/47/10 30/48/10
