# Blender v2.74 (sub 0) OBJ File: 'RoadSegments.blend'
# www.blender.org
mtllib CurbCorner1.mtl
g CurbCorner1
v -0.667932 -0.056498 0.736853
v -0.667932 0.056498 0.736853
v -0.667932 -0.056498 0.213411
v -0.667932 0.056498 0.213411
v 0.832068 -0.056498 0.736853
v 0.832068 0.056498 0.736853
v 0.832068 -0.056498 0.213411
v 0.832068 0.056498 0.213411
v -0.667932 0.056498 0.120445
v -0.667932 -0.056498 0.120445
v 0.821676 0.056498 0.120445
v 0.821676 -0.056498 0.120445
v -0.667932 0.056498 0.031044
v -0.667932 -0.056498 0.031044
v 0.794558 0.056498 0.031044
v 0.794558 -0.056498 0.031044
v -0.667932 0.056498 -0.051348
v -0.667932 -0.056498 -0.051348
v 0.750518 0.056498 -0.051348
v 0.750518 -0.056498 -0.051348
v -0.667932 0.056498 -0.123565
v -0.667932 -0.056498 -0.123565
v 0.691251 0.056498 -0.123565
v 0.691251 -0.056498 -0.123565
v -0.667932 0.056498 -0.182832
v -0.667932 -0.056498 -0.182832
v 0.619034 0.056498 -0.182832
v 0.619034 -0.056498 -0.182832
v -0.667932 0.056498 -0.226871
v -0.667932 -0.056498 -0.226871
v 0.536642 0.056498 -0.226871
v 0.536642 -0.056498 -0.226871
v -0.667932 0.056498 -0.253990
v -0.667932 -0.056498 -0.253990
v 0.447242 0.056498 -0.253990
v 0.447242 -0.056498 -0.253990
v -0.667932 0.056498 -0.263147
v -0.667932 -0.056498 -0.263147
v 0.354269 0.056498 -0.263147
v 0.354269 -0.056498 -0.263147
vt 0.831222 0.500000
vt 0.831222 0.238279
vt 0.915611 0.238279
vt 0.915611 0.500000
vt 0.000000 0.261721
vt 0.746833 0.261721
vt 0.746833 0.308204
vt 0.005174 0.308204
vt 1.000000 0.420627
vt 1.000000 0.675862
vt 0.915611 0.675862
vt 0.915611 0.420627
vt 0.831222 0.000000
vt 0.746833 0.500000
vt 0.746833 0.000000
vt 0.000000 0.000000
vt 0.000000 1.000000
vt 0.000000 0.738279
vt 0.746832 0.738279
vt 0.746833 1.000000
vt 0.746833 0.352904
vt 0.018676 0.352904
vt 0.915611 0.546098
vt 0.831222 0.546098
vt 0.005174 0.691796
vt 0.746832 0.691796
vt 0.831222 0.191796
vt 0.915611 0.191796
vt 0.746833 0.394100
vt 0.040603 0.394100
vt 0.915611 0.591690
vt 0.831222 0.591690
vt 0.018676 0.647096
vt 0.746832 0.647096
vt 0.831222 0.147096
vt 0.915611 0.147096
vt 0.746833 0.430209
vt 0.070111 0.430209
vt 0.915611 0.635113
vt 0.831222 0.635113
vt 0.040603 0.605900
vt 0.746832 0.605900
vt 0.831222 0.105900
vt 0.915611 0.105900
vt 0.746833 0.459842
vt 0.106067 0.459842
vt 0.915611 0.674697
vt 0.831222 0.674697
vt 0.070111 0.569791
vt 0.746832 0.569791
vt 0.831222 0.069791
vt 0.915611 0.069791
vt 0.746833 0.481862
vt 0.147089 0.481862
vt 0.915611 0.708922
vt 0.831222 0.708922
vt 0.106067 0.540158
vt 0.746832 0.540158
vt 0.831222 0.040158
vt 0.915611 0.040158
vt 0.746833 0.495421
vt 0.191600 0.495421
vt 0.915611 0.000000
vt 1.000000 0.000000
vt 1.000000 0.032894
vt 0.915611 0.032894
vt 0.147089 0.518138
vt 0.746832 0.518138
vt 0.831222 0.018138
vt 0.915611 0.018138
vt 0.237890 0.500000
vt 1.000000 0.065417
vt 0.915611 0.065417
vt 0.191600 0.504579
vt 0.746832 0.504579
vt 0.831222 0.004579
vt 0.915611 0.004579
vt 0.915611 0.096318
vt 1.000000 0.096318
vn -1.000000 0.000000 0.000000
vn 0.000000 -1.000000 0.000000
vn 1.000000 0.000000 0.000000
vn 0.000000 0.000000 1.000000
vn 0.000000 1.000000 0.000000
vn 0.993800 0.000000 -0.111100
vn 0.956900 0.000000 -0.290300
vn 0.881900 0.000000 -0.471400
vn 0.773000 0.000000 -0.634400
vn 0.634400 0.000000 -0.773000
vn 0.471400 0.000000 -0.881900
vn 0.290300 0.000000 -0.956900
vn 0.000000 0.000000 -1.000000
vn 0.098000 0.000000 -0.995200
usemtl None
s off
f 2/1/1 4/2/1 3/3/1 1/4/1
f 7/5/2 3/6/2 10/7/2 12/8/2
f 8/9/3 6/10/3 5/11/3 7/12/3
f 6/13/4 2/1/4 1/14/4 5/15/4
f 1/15/2 3/6/2 7/5/2 5/16/2
f 6/17/5 8/18/5 4/19/5 2/20/5
f 12/8/2 10/7/2 14/21/2 16/22/2
f 8/1/6 7/4/6 12/23/6 11/24/6
f 4/19/5 8/18/5 11/25/5 9/26/5
f 3/3/1 4/2/1 9/27/1 10/28/1
f 16/22/2 14/21/2 18/29/2 20/30/2
f 11/24/7 12/23/7 16/31/7 15/32/7
f 9/26/5 11/25/5 15/33/5 13/34/5
f 10/28/1 9/27/1 13/35/1 14/36/1
f 20/30/2 18/29/2 22/37/2 24/38/2
f 15/32/8 16/31/8 20/39/8 19/40/8
f 13/34/5 15/33/5 19/41/5 17/42/5
f 14/36/1 13/35/1 17/43/1 18/44/1
f 24/38/2 22/37/2 26/45/2 28/46/2
f 19/40/9 20/39/9 24/47/9 23/48/9
f 17/42/5 19/41/5 23/49/5 21/50/5
f 18/44/1 17/43/1 21/51/1 22/52/1
f 28/46/2 26/45/2 30/53/2 32/54/2
f 23/48/10 24/47/10 28/55/10 27/56/10
f 21/50/5 23/49/5 27/57/5 25/58/5
f 22/52/1 21/51/1 25/59/1 26/60/1
f 32/54/2 30/53/2 34/61/2 36/62/2
f 27/63/11 28/64/11 32/65/11 31/66/11
f 25/58/5 27/57/5 31/67/5 29/68/5
f 26/60/1 25/59/1 29/69/1 30/70/1
f 36/62/2 34/61/2 38/14/2 40/71/2
f 31/66/12 32/65/12 36/72/12 35/73/12
f 29/68/5 31/67/5 35/74/5 33/75/5
f 30/70/1 29/69/1 33/76/1 34/77/1
f 37/12/13 39/78/13 40/79/13 38/9/13
f 35/73/14 36/72/14 40/79/14 39/78/14
f 33/75/5 35/74/5 39/71/5 37/14/5
f 34/77/1 33/76/1 37/13/1 38/63/1
