# Blender v2.74 (sub 0) OBJ File: 'Carrige.blend'
# www.blender.org
mtllib Handles.mtl
g Handles
v -0.339152 0.200473 -0.061459
v -0.386597 0.200473 -0.061459
v -0.339152 0.163927 -0.103131
v -0.386597 0.163927 -0.103131
v -0.339152 0.099493 -0.125708
v -0.386597 0.099493 -0.125708
v -0.339152 0.058907 -0.131271
v -0.386597 0.058907 -0.131271
v -0.339152 0.024720 -0.115864
v -0.386597 0.024720 -0.115864
v -0.339152 -0.035251 -0.076909
v -0.386597 -0.035251 -0.076909
v -0.339152 -0.059766 -0.027198
v -0.386597 -0.059766 -0.027198
v -0.339152 -0.063391 0.028111
v -0.386597 -0.063391 0.028111
v -0.339152 -0.045575 0.080597
v -0.386597 -0.045575 0.080597
v -0.339152 -0.009029 0.122269
v -0.386597 -0.009029 0.122269
v -0.339152 0.040682 0.146784
v -0.386597 0.040682 0.146784
v -0.339152 0.095991 0.150409
v -0.386597 0.095991 0.150409
v -0.339152 0.146046 0.133996
v -0.386597 0.146046 0.133996
v -0.339152 0.187719 0.097450
v -0.386597 0.187719 0.097450
v -0.339152 0.212234 0.047739
v -0.386597 0.212234 0.047739
v -0.339152 0.218289 -0.008973
v -0.386597 0.218289 -0.008973
v -0.387007 -0.264499 -2.890462
v -0.339563 -0.266923 -2.889048
v -0.339563 -0.309268 -2.897657
v -0.387007 -0.305085 -2.896025
v -0.339563 -0.341695 -2.879204
v -0.387007 -0.339272 -2.880618
v -0.361662 -0.282791 -2.939879
v -0.339563 -0.285215 -2.938464
v -0.339563 -0.313527 -2.940320
v -0.361662 -0.311103 -2.941734
v -0.339563 -0.340393 -2.931200
v -0.361662 -0.337969 -2.932614
v -0.427066 0.139747 -0.071639
v -0.427066 0.166102 -0.041587
v -0.427066 0.093281 -0.087920
v -0.427066 0.064013 -0.091932
v -0.427066 0.039360 -0.080821
v -0.427066 -0.003889 -0.052729
v -0.427066 -0.021567 -0.016880
v -0.427066 -0.024181 0.023005
v -0.427066 -0.011333 0.060855
v -0.427066 0.015021 0.090907
v -0.427066 0.050870 0.108586
v -0.427066 0.090756 0.111200
v -0.427066 0.126853 0.099363
v -0.427066 0.156904 0.073009
v -0.427066 0.174583 0.037160
v -0.427066 0.178950 -0.003737
v -0.300771 0.167974 -0.042669
v -0.300771 0.141064 -0.073354
v -0.300771 0.093620 -0.089978
v -0.300771 0.063735 -0.094075
v -0.300771 0.038562 -0.082730
v -0.300771 -0.005597 -0.054046
v -0.300771 -0.023648 -0.017442
v -0.300771 -0.026317 0.023284
v -0.300771 -0.013198 0.061930
v -0.300771 0.013711 0.092615
v -0.300771 0.050315 0.110666
v -0.300771 0.091041 0.113336
v -0.300771 0.127898 0.101250
v -0.300771 0.158583 0.074340
v -0.300771 0.176634 0.037736
v -0.300771 0.181093 -0.004023
v 0.339152 0.200473 -0.061459
v 0.386596 0.200473 -0.061459
v 0.339152 0.163927 -0.103131
v 0.386596 0.163927 -0.103131
v 0.339152 0.099493 -0.125708
v 0.386596 0.099493 -0.125708
v 0.339152 0.058907 -0.131271
v 0.386596 0.058907 -0.131271
v 0.339152 0.024720 -0.115864
v 0.386596 0.024720 -0.115864
v 0.339152 -0.035251 -0.076909
v 0.386596 -0.035251 -0.076909
v 0.339152 -0.059766 -0.027198
v 0.386596 -0.059766 -0.027198
v 0.339152 -0.063391 0.028111
v 0.386596 -0.063391 0.028111
v 0.339152 -0.045575 0.080597
v 0.386596 -0.045575 0.080597
v 0.339152 -0.009029 0.122269
v 0.386596 -0.009029 0.122269
v 0.339152 0.040682 0.146784
v 0.386596 0.040682 0.146784
v 0.339152 0.095991 0.150409
v 0.386596 0.095991 0.150409
v 0.339152 0.146046 0.133996
v 0.386596 0.146046 0.133996
v 0.339152 0.187719 0.097450
v 0.386596 0.187719 0.097450
v 0.339152 0.212234 0.047739
v 0.386596 0.212234 0.047739
v 0.339152 0.218289 -0.008973
v 0.386596 0.218289 -0.008973
v 0.387008 -0.264499 -2.890463
v 0.339563 -0.266923 -2.889048
v 0.339563 -0.309268 -2.897657
v 0.387008 -0.305085 -2.896026
v 0.339563 -0.341696 -2.879204
v 0.387008 -0.339272 -2.880619
v 0.361662 -0.282791 -2.939879
v 0.339563 -0.285215 -2.938465
v 0.339563 -0.313526 -2.940320
v 0.361662 -0.311103 -2.941734
v 0.339563 -0.340393 -2.931200
v 0.361662 -0.337969 -2.932615
v 0.427065 0.139747 -0.071639
v 0.427065 0.166102 -0.041587
v 0.427065 0.093281 -0.087920
v 0.427065 0.064013 -0.091932
v 0.427065 0.039360 -0.080821
v 0.427065 -0.003889 -0.052729
v 0.427065 -0.021567 -0.016880
v 0.427065 -0.024182 0.023005
v 0.427065 -0.011333 0.060855
v 0.427065 0.015021 0.090907
v 0.427065 0.050870 0.108586
v 0.427065 0.090756 0.111200
v 0.427065 0.126853 0.099364
v 0.427065 0.156904 0.073009
v 0.427065 0.174583 0.037160
v 0.427065 0.178950 -0.003737
v 0.300771 0.167974 -0.042669
v 0.300771 0.141064 -0.073354
v 0.300771 0.093619 -0.089978
v 0.300771 0.063735 -0.094074
v 0.300771 0.038562 -0.082730
v 0.300771 -0.005597 -0.054046
v 0.300771 -0.023648 -0.017442
v 0.300771 -0.026317 0.023284
v 0.300771 -0.013198 0.061931
v 0.300771 0.013711 0.092615
v 0.300771 0.050315 0.110666
v 0.300771 0.091041 0.113336
v 0.300771 0.127898 0.101250
v 0.300771 0.158583 0.074340
v 0.300771 0.176634 0.037736
v 0.300771 0.181093 -0.004022
v -0.386597 0.099493 -0.125708
v -0.386597 0.099493 -0.125708
v -0.339152 0.099493 -0.125708
v -0.339152 0.099493 -0.125708
v -0.339152 0.058907 -0.131271
v -0.386597 0.058907 -0.131271
v -0.387007 -0.339272 -2.880618
v -0.386597 0.024720 -0.115864
v -0.386597 0.024720 -0.115864
v -0.339152 0.024720 -0.115864
v -0.339152 0.024720 -0.115864
v -0.361662 -0.337969 -2.932614
v -0.361662 -0.337969 -2.932614
v -0.339563 -0.341695 -2.879204
v -0.387007 -0.264499 -2.890462
v -0.339563 -0.266923 -2.889048
v -0.361662 -0.282791 -2.939879
v -0.361662 -0.282791 -2.939879
v -0.339563 -0.285215 -2.938464
v -0.339563 -0.285215 -2.938464
v -0.339563 -0.313527 -2.940320
v -0.361662 -0.311103 -2.941734
v -0.339563 -0.340393 -2.931200
v -0.339563 -0.340393 -2.931200
v -0.427066 0.139747 -0.071639
v -0.427066 0.166102 -0.041587
v -0.427066 0.093281 -0.087920
v -0.427066 0.064013 -0.091932
v -0.427066 0.039360 -0.080821
v -0.427066 -0.003889 -0.052729
v -0.427066 -0.021567 -0.016880
v -0.427066 -0.024181 0.023005
v -0.427066 -0.011333 0.060855
v -0.427066 0.015021 0.090907
v -0.427066 0.050870 0.108586
v -0.427066 0.090756 0.111200
v -0.427066 0.126853 0.099363
v -0.427066 0.156904 0.073009
v -0.427066 0.174583 0.037160
v -0.427066 0.178950 -0.003737
v -0.300771 0.167974 -0.042669
v -0.300771 0.141064 -0.073354
v -0.300771 0.093620 -0.089978
v -0.300771 0.063735 -0.094075
v -0.300771 0.038562 -0.082730
v -0.300771 -0.005597 -0.054046
v -0.300771 -0.023648 -0.017442
v -0.300771 -0.026317 0.023284
v -0.300771 -0.013198 0.061930
v -0.300771 0.013711 0.092615
v -0.300771 0.050315 0.110666
v -0.300771 0.091041 0.113336
v -0.300771 0.127898 0.101250
v -0.300771 0.158583 0.074340
v -0.300771 0.176634 0.037736
v -0.300771 0.181093 -0.004023
v 0.386596 0.099493 -0.125708
v 0.386596 0.099493 -0.125708
v 0.339152 0.099493 -0.125708
v 0.339152 0.099493 -0.125708
v 0.339152 0.058907 -0.131271
v 0.386596 0.058907 -0.131271
v 0.387008 -0.339272 -2.880619
v 0.386596 0.024720 -0.115864
v 0.386596 0.024720 -0.115864
v 0.339152 0.024720 -0.115864
v 0.339152 0.024720 -0.115864
v 0.361662 -0.337969 -2.932615
v 0.361662 -0.337969 -2.932615
v 0.339563 -0.341696 -2.879204
v 0.387008 -0.264499 -2.890463
v 0.339563 -0.266923 -2.889048
v 0.361662 -0.282791 -2.939879
v 0.361662 -0.282791 -2.939879
v 0.339563 -0.285215 -2.938465
v 0.339563 -0.285215 -2.938465
v 0.339563 -0.313526 -2.940320
v 0.361662 -0.311103 -2.941734
v 0.339563 -0.340393 -2.931200
v 0.339563 -0.340393 -2.931200
v 0.427065 0.139747 -0.071639
v 0.427065 0.166102 -0.041587
v 0.427065 0.093281 -0.087920
v 0.427065 0.064013 -0.091932
v 0.427065 0.039360 -0.080821
v 0.427065 -0.003889 -0.052729
v 0.427065 -0.021567 -0.016880
v 0.427065 -0.024182 0.023005
v 0.427065 -0.011333 0.060855
v 0.427065 0.015021 0.090907
v 0.427065 0.050870 0.108586
v 0.427065 0.090756 0.111200
v 0.427065 0.126853 0.099364
v 0.427065 0.156904 0.073009
v 0.427065 0.174583 0.037160
v 0.427065 0.178950 -0.003737
v 0.300771 0.167974 -0.042669
v 0.300771 0.141064 -0.073354
v 0.300771 0.093619 -0.089978
v 0.300771 0.063735 -0.094074
v 0.300771 0.038562 -0.082730
v 0.300771 -0.005597 -0.054046
v 0.300771 -0.023648 -0.017442
v 0.300771 -0.026317 0.023284
v 0.300771 -0.013198 0.061931
v 0.300771 0.013711 0.092615
v 0.300771 0.050315 0.110666
v 0.300771 0.091041 0.113336
v 0.300771 0.127898 0.101250
v 0.300771 0.158583 0.074340
v 0.300771 0.176634 0.037736
v 0.300771 0.181093 -0.004022
vt 0.933198 0.138954
vt 0.933198 0.154942
vt 0.966599 0.154942
vt 0.966599 0.138954
vt 0.933198 0.176808
vt 0.966599 0.176808
vt 0.103574 0.091096
vt 0.174898 0.985218
vt 0.199881 0.981332
vt 0.128557 0.087210
vt 0.866387 0.000002
vt 0.866377 0.894715
vt 0.899775 0.894363
vt 0.899788 0.000000
vt 0.933198 0.407227
vt 0.933198 0.429842
vt 0.966598 0.429820
vt 0.966598 0.407204
vt 0.966599 0.035567
vt 0.966599 0.053351
vt 1.000000 0.053351
vt 1.000000 0.035567
vt 0.966610 0.282151
vt 0.966599 0.264705
vt 0.933198 0.264705
vt 0.933209 0.282151
vt 0.966610 0.247267
vt 0.933209 0.247267
vt 0.933198 0.000000
vt 0.933198 0.015988
vt 0.966599 0.015988
vt 0.966599 0.000000
vt 0.933198 0.033739
vt 0.966599 0.033739
vt 0.933198 0.050551
vt 0.966599 0.050551
vt 0.966663 0.384551
vt 0.966598 0.367718
vt 0.933198 0.367733
vt 0.933264 0.384567
vt 0.966663 0.350801
vt 0.933264 0.350816
vt 0.966599 0.017784
vt 1.000000 0.017784
vt 0.966599 0.229476
vt 0.966611 0.212038
vt 0.933210 0.212037
vt 0.933198 0.229476
vt 0.176077 1.000000
vt 0.195512 0.997901
vt 0.884233 0.911202
vt 0.899787 0.910851
vt 0.528244 0.912431
vt 0.599650 0.018658
vt 0.575687 0.013756
vt 0.503252 0.908555
vt 0.075499 0.088089
vt 0.146823 0.982211
vt 0.546590 0.017800
vt 0.475183 0.911573
vt 0.832957 0.911195
vt 0.832940 0.016832
vt 0.799537 0.016481
vt 0.799556 0.911193
vt 0.982157 0.091030
vt 0.982157 0.082424
vt 0.966599 0.082966
vt 0.966599 0.091571
vt 0.982159 0.072389
vt 0.982159 0.063314
vt 0.966599 0.064203
vt 0.966599 0.073278
vt 0.595249 0.002091
vt 0.575810 0.000000
vt 0.156358 0.998550
vt 0.556094 0.001458
vt 0.832957 0.000350
vt 0.817397 0.000000
vt 0.031841 0.078926
vt 0.173178 0.076584
vt 0.193664 0.061448
vt 0.199881 0.043892
vt 0.190883 0.026588
vt 0.168040 0.012170
vt 0.134829 0.002833
vt 0.096307 0.000000
vt 0.060135 0.003726
vt 0.028499 0.014137
vt 0.008014 0.029273
vt 0.000000 0.047204
vt 0.008998 0.064508
vt 0.408728 0.935180
vt 0.399763 0.952488
vt 0.407811 0.970416
vt 0.428326 0.985544
vt 0.459981 0.995942
vt 0.496160 0.999654
vt 0.534677 0.996805
vt 0.567870 0.987455
vt 0.590685 0.973028
vt 0.599650 0.955720
vt 0.593399 0.938166
vt 0.572885 0.923039
vt 0.431543 0.920753
vn 0.362100 0.807200 -0.466100
vn 0.357400 0.524400 -0.772800
vn -0.358000 0.524300 -0.772600
vn -0.362700 0.807000 -0.466000
vn 0.480500 0.239700 -0.843600
vn -0.481400 0.239600 -0.843100
vn -1.000000 0.000000 0.000100
vn -0.959300 -0.038900 -0.279700
vn -0.981600 -0.071200 -0.177300
vn -1.000000 0.000100 0.000100
vn -0.027300 -0.991000 0.130900
vn -0.044700 -0.997300 0.057700
vn -0.047400 -0.997800 0.046400
vn 0.478900 -0.443300 -0.757700
vn 0.356000 -0.700200 -0.618800
vn -0.356600 -0.700100 -0.618600
vn -0.479800 -0.443100 -0.757200
vn 0.361300 -0.900600 -0.241400
vn -0.362000 -0.900400 -0.241300
vn 0.361200 -0.924500 0.121600
vn -0.361900 -0.924300 0.121600
vn 0.361100 -0.807600 0.466200
vn -0.361800 -0.807400 0.466100
vn 0.361100 -0.567700 0.739800
vn -0.361700 -0.567500 0.739600
vn 0.361200 -0.241300 0.900700
vn -0.361800 -0.241200 0.900500
vn 0.361700 0.117100 0.924900
vn -0.362300 0.117000 0.924600
vn 0.361100 0.461700 0.810200
vn -0.361700 0.461600 0.809900
vn 0.360000 0.739900 0.568300
vn -0.360700 0.739600 0.568100
vn 0.360300 0.896000 0.259600
vn -0.361000 0.895700 0.259500
vn -0.698300 -0.530400 -0.480800
vn -0.682200 -0.352700 -0.640500
vn 0.360500 0.927000 -0.103500
vn -0.361100 0.926800 -0.103400
vn 0.697600 -0.620400 0.358300
vn 0.697600 -0.436200 0.568400
vn -0.882300 -0.064200 -0.466200
vn -0.876800 -0.179300 -0.446200
vn -0.067800 -0.996800 -0.041500
vn 1.000000 -0.000100 -0.000100
vn 1.000000 -0.000000 -0.000100
vn -0.981900 0.020300 -0.188400
vn 0.027300 0.991000 -0.130900
vn 0.053100 0.971800 -0.229800
vn 0.049400 0.975200 -0.215500
vn 0.070800 0.065200 -0.995300
vn 0.047400 -0.144800 -0.988300
vn 0.050700 -0.116200 -0.991900
vn 0.025300 -0.321300 -0.946600
vn 1.000000 0.000000 0.000000
vn -0.875800 0.051700 -0.479900
vn 0.079000 0.941300 -0.328200
vn -1.000000 0.000000 0.000000
vn -0.700300 0.618200 -0.356900
vn -0.700000 0.709900 -0.076900
vn -0.699500 0.395000 -0.595500
vn -0.698700 -0.619500 0.357700
vn -0.698800 -0.709100 0.093400
vn -0.699000 0.089100 0.709500
vn -0.698800 -0.185200 0.690900
vn -0.700000 -0.101100 -0.706900
vn -0.699900 -0.103700 -0.706600
vn -0.686200 0.172900 -0.706500
vn -0.694900 0.690500 0.200800
vn -0.696900 0.569700 0.435700
vn -0.699100 -0.690700 -0.184900
vn -0.698700 -0.435500 0.567600
vn -0.699300 0.355000 0.620400
vn 0.697900 0.089300 0.710600
vn 0.698200 0.355500 0.621400
vn 0.698900 -0.101300 -0.708000
vn 0.698900 -0.103900 -0.707600
vn 0.681100 -0.353200 -0.641400
vn 0.693800 0.691500 0.201100
vn 0.699000 0.711000 -0.077100
vn 0.698000 -0.691700 -0.185200
vn 0.697700 -0.710200 0.093600
vn 0.697700 -0.185500 0.691900
vn 0.698400 0.395600 -0.596400
vn 0.685100 0.173200 -0.707500
vn 0.695800 0.570500 0.436300
vn 0.697200 -0.531100 -0.481500
vn 0.699200 0.619100 -0.357400
vn -0.362100 0.807200 -0.466100
vn 0.362700 0.807000 -0.466000
vn 0.358000 0.524300 -0.772600
vn -0.357400 0.524400 -0.772800
vn 0.481400 0.239600 -0.843100
vn -0.480500 0.239700 -0.843600
vn 1.000000 0.000000 0.000100
vn 1.000000 0.000100 0.000100
vn 0.981600 -0.071200 -0.177300
vn 0.959300 -0.038900 -0.279700
vn 0.027300 -0.991000 0.130900
vn 0.047400 -0.997800 0.046400
vn 0.044700 -0.997300 0.057700
vn -0.478900 -0.443300 -0.757700
vn 0.479800 -0.443100 -0.757200
vn 0.356600 -0.700100 -0.618600
vn -0.356000 -0.700200 -0.618800
vn 0.362000 -0.900400 -0.241300
vn -0.361300 -0.900600 -0.241400
vn 0.361900 -0.924300 0.121600
vn -0.361200 -0.924500 0.121600
vn 0.361800 -0.807400 0.466100
vn -0.361100 -0.807600 0.466200
vn 0.361700 -0.567500 0.739600
vn -0.361100 -0.567700 0.739800
vn 0.361800 -0.241200 0.900500
vn -0.361200 -0.241300 0.900700
vn 0.362300 0.117000 0.924600
vn -0.361700 0.117100 0.924900
vn 0.361700 0.461600 0.809900
vn -0.361100 0.461700 0.810200
vn 0.360700 0.739600 0.568100
vn -0.360000 0.739900 0.568300
vn 0.361000 0.895700 0.259500
vn -0.360300 0.896000 0.259600
vn 0.682200 -0.352700 -0.640500
vn 0.698300 -0.530400 -0.480800
vn -0.360500 0.927000 -0.103500
vn 0.361100 0.926800 -0.103400
vn -0.697600 -0.436200 0.568400
vn -0.697600 -0.620400 0.358300
vn 0.876800 -0.179300 -0.446200
vn 0.882300 -0.064200 -0.466200
vn 0.067800 -0.996800 -0.041500
vn -1.000000 -0.000100 -0.000100
vn -1.000000 0.000000 -0.000100
vn 0.981900 0.020300 -0.188400
vn -0.027300 0.991000 -0.130900
vn -0.049400 0.975200 -0.215500
vn -0.053100 0.971800 -0.229800
vn -0.070800 0.065200 -0.995300
vn -0.050700 -0.116200 -0.991900
vn -0.047400 -0.144800 -0.988300
vn -0.025300 -0.321300 -0.946600
vn 0.875800 0.051700 -0.479900
vn -0.079000 0.941300 -0.328200
vn 0.700000 0.709900 -0.076900
vn 0.700300 0.618200 -0.356900
vn 0.699500 0.395000 -0.595500
vn 0.698800 -0.709100 0.093400
vn 0.698700 -0.619500 0.357700
vn 0.698800 -0.185200 0.690900
vn 0.699000 0.089100 0.709500
vn 0.700000 -0.101100 -0.706900
vn 0.686200 0.172900 -0.706500
vn 0.699900 -0.103700 -0.706600
vn 0.696900 0.569700 0.435700
vn 0.694900 0.690500 0.200800
vn 0.699100 -0.690700 -0.184900
vn 0.698700 -0.435500 0.567600
vn 0.699300 0.355000 0.620400
vn -0.698200 0.355500 0.621400
vn -0.697900 0.089300 0.710600
vn -0.698900 -0.101300 -0.708000
vn -0.681100 -0.353200 -0.641400
vn -0.698900 -0.103900 -0.707600
vn -0.699000 0.711000 -0.077100
vn -0.693800 0.691500 0.201100
vn -0.697700 -0.710200 0.093600
vn -0.698000 -0.691700 -0.185200
vn -0.697700 -0.185500 0.691900
vn -0.685100 0.173200 -0.707500
vn -0.698400 0.395600 -0.596400
vn -0.695800 0.570500 0.436300
vn -0.697200 -0.531100 -0.481500
vn -0.699200 0.619100 -0.357400
usemtl None
s 1
f 1/1/1 3/2/2 4/3/3 2/4/4
f 3/2/2 5/5/5 6/6/6 4/3/3
f 8/7/7 36/8/8 38/9/9 10/10/10
f 160/11/11 159/12/12 166/13/13 162/14/11
f 163/15/14 11/16/15 12/17/16 161/18/17
f 11/19/15 13/20/18 14/21/19 12/22/16
f 13/23/18 15/24/20 16/25/21 14/26/19
f 15/24/20 17/27/22 18/28/23 16/25/21
f 17/29/22 19/30/24 20/31/25 18/32/23
f 19/30/24 21/33/26 22/34/27 20/31/25
f 21/33/26 23/35/28 24/36/29 22/34/27
f 23/37/28 25/38/30 26/39/31 24/40/29
f 25/38/30 27/41/32 28/42/33 26/39/31
f 27/43/32 29/19/34 30/22/35 28/44/33
f 12/17/16 50/17/36 181/18/37 161/18/17
f 31/45/38 1/46/1 2/47/4 32/48/39
f 29/27/34 31/45/38 32/48/39 30/28/35
f 17/29/22 201/29/40 70/30/41 19/30/24
f 36/8/8 174/49/42 44/50/43 38/9/9
f 159/12/12 164/51/44 175/52/44 166/13/13
f 9/53/45 37/54/46 35/55/46 7/56/46
f 153/57/7 167/58/47 36/8/8 8/7/7
f 7/56/46 35/55/46 168/59/46 155/60/46
f 156/61/48 34/62/49 33/63/50 154/64/48
f 40/65/51 41/66/52 42/67/53 39/68/51
f 41/69/52 43/70/54 165/71/54 42/72/53
f 37/54/46 176/73/55 173/74/55 35/55/46
f 167/58/47 169/75/56 174/49/42 36/8/8
f 35/55/46 173/74/55 171/76/55 168/59/46
f 34/62/49 172/77/57 170/78/57 33/63/50
f 45/79/58 47/57/58 48/7/58 49/10/58 182/80/58 51/81/58 52/82/58 53/83/58 54/84/58 55/85/58 56/86/58 57/87/58 58/88/58 59/89/58 60/90/58 46/91/58
f 2/47/4 178/47/59 192/48/60 32/48/39
f 4/3/3 177/3/61 178/4/59 2/4/4
f 18/28/23 185/28/62 184/25/63 16/25/21
f 24/36/29 188/36/64 187/34/65 22/34/27
f 158/7/66 180/7/67 179/57/68 6/57/6
f 30/22/35 191/22/69 190/44/70 28/44/33
f 14/21/19 183/21/71 50/22/36 12/22/16
f 20/31/25 186/31/72 185/32/62 18/32/23
f 26/39/31 189/39/73 188/40/64 24/40/29
f 161/10/17 181/10/37 180/7/67 158/7/66
f 32/48/39 192/48/60 191/28/69 30/28/35
f 16/25/21 184/25/63 183/26/71 14/26/19
f 22/34/27 187/34/65 186/31/72 20/31/25
f 6/6/6 179/6/68 177/3/61 4/3/3
f 28/42/33 190/42/70 189/39/73 26/39/31
f 61/92/55 76/93/55 75/94/55 74/95/55 73/96/55 72/97/55 71/98/55 202/99/55 69/100/55 68/101/55 67/102/55 66/103/55 65/53/55 64/56/55 63/60/55 62/104/55
f 23/37/28 204/37/74 205/38/75 25/38/30
f 157/56/76 196/56/77 197/53/78 163/53/14
f 29/27/34 207/27/79 208/45/80 31/45/38
f 13/23/18 199/23/81 200/24/82 15/24/20
f 19/30/24 70/30/41 203/33/83 21/33/26
f 3/2/2 194/2/84 195/5/85 5/5/5
f 25/38/30 205/38/75 206/41/86 27/41/32
f 163/15/14 197/15/78 198/16/87 11/16/15
f 31/45/38 208/45/80 193/46/88 1/46/1
f 1/1/1 193/1/88 194/2/84 3/2/2
f 15/24/20 200/24/82 201/27/40 17/27/22
f 21/33/26 203/33/83 204/35/74 23/35/28
f 5/60/5 195/60/85 196/56/77 157/56/76
f 27/43/32 206/43/86 207/19/79 29/19/34
f 11/19/15 198/19/87 199/20/81 13/20/18
f 77/1/89 78/4/90 80/3/91 79/2/92
f 79/2/92 80/3/91 82/6/93 81/5/94
f 84/7/95 86/10/96 114/9/97 112/8/98
f 216/11/99 218/14/99 222/13/100 215/12/101
f 219/15/102 217/18/103 88/17/104 87/16/105
f 87/19/105 88/22/104 90/21/106 89/20/107
f 89/23/107 90/26/106 92/25/108 91/24/109
f 91/24/109 92/25/108 94/28/110 93/27/111
f 93/29/111 94/32/110 96/31/112 95/30/113
f 95/30/113 96/31/112 98/34/114 97/33/115
f 97/33/115 98/34/114 100/36/116 99/35/117
f 99/37/117 100/40/116 102/39/118 101/38/119
f 101/38/119 102/39/118 104/42/120 103/41/121
f 103/43/121 104/44/120 106/22/122 105/19/123
f 88/17/104 217/18/103 237/18/124 126/17/125
f 107/45/126 108/48/127 78/47/90 77/46/89
f 105/27/123 106/28/122 108/48/127 107/45/126
f 93/29/111 95/30/113 146/30/128 257/29/129
f 112/8/98 114/9/97 120/50/130 230/49/131
f 215/12/101 222/13/100 231/52/132 220/51/132
f 85/53/133 83/56/134 111/55/134 113/54/134
f 209/57/95 84/7/95 112/8/98 223/58/135
f 83/56/134 211/60/134 224/59/134 111/55/134
f 212/61/136 210/64/136 109/63/137 110/62/138
f 116/65/139 115/68/139 118/67/140 117/66/141
f 117/69/141 118/72/140 221/71/142 119/70/142
f 113/54/134 111/55/134 229/74/58 232/73/58
f 223/58/135 112/8/98 230/49/131 225/75/143
f 111/55/134 224/59/134 227/76/58 229/74/58
f 110/62/138 109/63/137 226/78/144 228/77/144
f 121/79/55 122/91/55 136/90/55 135/89/55 134/88/55 133/87/55 132/86/55 131/85/55 130/84/55 129/83/55 128/82/55 127/81/55 238/80/55 125/10/55 124/7/55 123/57/55
f 78/47/90 108/48/127 248/48/145 234/47/146
f 80/3/91 78/4/90 234/4/146 233/3/147
f 94/28/110 92/25/108 240/25/148 241/28/149
f 100/36/116 98/34/114 243/34/150 244/36/151
f 214/7/152 82/57/93 235/57/153 236/7/154
f 106/22/122 104/44/120 246/44/155 247/22/156
f 90/21/106 88/22/104 126/22/125 239/21/157
f 96/31/112 94/32/110 241/32/149 242/31/158
f 102/39/118 100/40/116 244/40/151 245/39/159
f 217/10/103 214/7/152 236/7/154 237/10/124
f 108/48/127 106/28/122 247/28/156 248/48/145
f 92/25/108 90/26/106 239/26/157 240/25/148
f 98/34/114 96/31/112 242/31/158 243/34/150
f 82/6/93 80/3/91 233/3/147 235/6/153
f 104/42/120 102/39/118 245/39/159 246/42/155
f 137/92/58 138/104/58 139/60/58 140/56/58 141/53/58 142/103/58 143/102/58 144/101/58 145/100/58 258/99/58 147/98/58 148/97/58 149/96/58 150/95/58 151/94/58 152/93/58
f 99/37/117 101/38/119 261/38/160 260/37/161
f 213/56/162 219/53/102 253/53/163 252/56/164
f 105/27/123 107/45/126 264/45/165 263/27/166
f 89/23/107 91/24/109 256/24/167 255/23/168
f 95/30/113 97/33/115 259/33/169 146/30/128
f 79/2/92 81/5/94 251/5/170 250/2/171
f 101/38/119 103/41/121 262/41/172 261/38/160
f 219/15/102 87/16/105 254/16/173 253/15/163
f 107/45/126 77/46/89 249/46/174 264/45/165
f 77/1/89 79/2/92 250/2/171 249/1/174
f 91/24/109 93/27/111 257/27/129 256/24/167
f 97/33/115 99/35/117 260/35/161 259/33/169
f 81/60/94 213/56/162 252/56/164 251/60/170
f 103/43/121 105/19/123 263/19/166 262/43/172
f 87/19/105 89/20/107 255/20/168 254/19/173
