# Blender v2.78 (sub 0) OBJ File: 'Doors.blend'
# www.blender.org
mtllib Door_4.mtl
g Door5
v -0.032588 0.000000 0.625000
v -0.032588 3.000000 0.625000
v -0.032588 3.000000 -0.625000
v -0.032588 0.000000 -0.524659
v -0.032588 0.000000 0.524659
v -0.032588 2.339468 -0.524659
v 0.000000 0.000000 -0.471984
v 0.000000 0.000000 0.471983
v -0.032588 2.339468 0.524659
v -0.032588 0.000000 -0.625000
v 0.000000 2.234568 -0.471984
v 0.000000 2.234568 0.471983
v -0.055104 2.287243 -0.524659
v -0.055104 0.000000 0.524659
v -0.055104 0.000000 -0.524659
v -0.055104 2.234568 -0.471984
v -0.055104 2.234568 0.471983
v -0.055104 0.000000 0.471983
v -0.055104 0.000000 -0.471984
v -0.055104 2.287243 0.524659
v -0.055104 2.339468 0.524659
v -0.055104 2.339468 -0.524659
v -0.670757 2.015484 -0.524659
v -0.670757 2.015484 0.524659
v -0.670757 2.105411 0.524659
v -0.670757 2.105411 -0.524659
v -0.617193 2.073550 -0.524659
v -0.617193 2.073550 0.524659
v -0.055104 1.688436 -0.524659
v -0.055104 1.688436 0.524659
v -0.055104 1.595599 -0.471984
v -0.055104 1.595599 0.471983
v -0.055104 1.595599 -0.524659
v -0.055104 1.595599 0.524659
v -0.055104 1.688436 -0.471984
v -0.055104 1.688436 0.471983
v -0.670757 2.015484 0.471984
v -0.617193 2.035848 -0.471983
v -0.617193 2.035848 -0.524659
v -0.670757 2.015484 -0.471983
v -0.617193 2.035848 0.524659
v -0.617193 2.035848 0.471984
vt 0.4365 0.0127
vt 0.4199 0.5005
vt 0.4193 0.0127
vt 0.7269 0.0127
vt 0.7433 0.5007
vt 0.7434 0.5352
vt 0.7268 0.7002
vt 0.7441 0.0127
vt 0.4363 0.7002
vt 0.4198 0.5351
vt 0.4189 0.7001
vt 0.4026 0.5000
vt 0.4029 0.0127
vt 0.4023 0.7161
vt 0.4028 0.5356
vt 0.7604 0.0128
vt 0.7606 0.5001
vt 0.3943 0.0127
vt 0.9100 0.9390
vt 0.9204 0.7091
vt 0.9366 0.7098
vt 0.9263 0.9397
vt 0.7443 0.7001
vt 0.7582 0.7854
vt 0.7691 0.7635
vt 0.7691 0.7812
vt 0.7431 0.9768
vt 0.4191 0.9768
vt 0.4191 0.7734
vt 0.7431 0.7734
vt 0.8789 0.6164
vt 0.8647 0.6270
vt 0.8571 0.3970
vt 0.8813 0.4124
vt 0.7582 0.9711
vt 0.0038 0.0081
vt 0.0348 0.0081
vt 0.0348 0.7453
vt 0.0038 0.9522
vt 0.8066 0.0233
vt 0.8066 0.3473
vt 0.7950 0.3311
vt 0.7950 0.0396
vt 0.7950 0.3473
vt 0.7773 0.3311
vt 0.7773 0.0396
vt 0.8485 0.6275
vt 0.8409 0.3975
vt 0.4191 0.7456
vt 0.4354 0.7456
vt 0.7431 0.9837
vt 0.7593 0.9768
vt 0.8797 0.9282
vt 0.8657 0.9390
vt 0.8553 0.7091
vt 0.8797 0.7242
vt 0.9091 0.6275
vt 0.8951 0.6166
vt 0.8976 0.4126
vt 0.9222 0.3978
vt 0.8960 0.9282
vt 0.8960 0.7242
vt 0.7950 0.0233
vt 0.4040 0.7854
vt 0.3931 0.7635
vt 0.3931 0.7812
vt 0.3898 0.9522
vt 0.3588 0.7453
vt 0.7268 0.7172
vt 0.4363 0.7171
vt 0.3588 0.0081
vt 0.3898 0.0081
vt 0.7269 0.7456
vt 0.7431 0.7456
vt 0.4191 0.9837
vt 0.4030 0.9768
vt 0.7676 0.7317
vt 0.7608 0.7161
vt 0.7604 0.5357
vt 0.9923 0.0233
vt 0.9923 0.3473
vt 0.7430 0.7334
vt 0.4201 0.7333
vt 0.4040 0.9711
vt 0.3955 0.7316
vt 0.7690 0.0128
vn 0.0000 0.0000 1.0000
vn -0.0000 0.0000 -1.0000
vn -1.0000 0.0000 0.0000
vn -0.5634 -0.8262 0.0000
vn -0.3554 0.9347 0.0000
vn 1.0000 0.0000 0.0000
vn 0.3554 -0.9347 0.0000
vn 0.5258 0.8506 -0.0000
vn 0.0000 -1.0000 0.0000
vn 0.0000 1.0000 0.0000
usemtl Door4
s off
f 7/1/1 31/2/1 19/3/1
f 8/4/2 32/5/2 36/6/2 12/7/2
f 8/4/2 18/8/2 32/5/2
f 12/7/3 11/9/3 7/1/3 8/4/3
f 7/1/1 11/9/1 35/10/1 31/2/1
f 11/9/1 16/11/1 35/10/1
f 19/3/3 31/2/3 33/12/3 15/13/3
f 35/10/3 16/11/3 13/14/3 29/15/3
f 32/5/3 18/8/3 14/16/3 34/17/3
f 4/18/2 15/13/2 33/12/2
f 23/19/4 33/20/4 31/21/4 40/22/4
f 12/7/2 36/6/2 17/23/2
f 28/24/1 24/25/1 41/26/1
f 21/27/5 22/28/5 26/29/5 25/30/5
f 41/31/1 24/32/1 34/33/1 30/34/1
f 20/35/1 21/27/1 25/30/1 28/24/1
f 28/24/1 25/30/1 24/25/1
f 10/36/3 4/37/3 6/38/3 3/39/3
f 27/40/6 28/41/6 42/42/6 38/43/6
f 28/41/6 41/44/6 42/42/6
f 42/42/7 37/45/7 40/46/7 38/43/7
f 24/32/4 37/47/4 32/48/4 34/33/4
f 23/49/3 40/50/3 26/29/3
f 9/51/1 21/27/1 20/52/1
f 38/53/1 40/54/1 31/55/1 35/56/1
f 37/57/2 42/58/2 36/59/2 32/60/2
f 23/19/2 39/61/2 29/62/2 33/20/2
f 27/40/6 38/43/6 39/63/6
f 39/61/8 38/53/8 35/56/8 29/62/8
f 42/58/8 41/31/8 30/34/8 36/59/8
f 26/29/2 27/64/2 23/65/2
f 23/65/2 27/64/2 39/66/2
f 2/67/3 3/39/3 6/38/3 9/68/3
f 11/9/9 12/7/9 17/69/9 16/70/9
f 2/67/3 9/68/3 5/71/3 1/72/3
f 37/73/3 24/74/3 25/30/3
f 25/30/3 26/29/3 40/50/3 37/73/3
f 6/75/2 13/76/2 22/28/2
f 9/77/1 20/78/1 30/79/1
f 9/51/10 6/75/10 22/28/10 21/27/10
f 13/80/7 20/81/7 28/41/7 27/40/7
f 16/70/3 17/69/3 20/82/3 13/83/3
f 17/23/3 36/6/3 30/79/3 20/78/3
f 22/28/2 13/84/2 27/64/2 26/29/2
f 6/85/2 4/18/2 33/12/2 29/15/2
f 13/14/2 6/85/2 29/15/2
f 5/86/1 9/77/1 30/79/1 34/17/1
f 14/16/1 5/86/1 34/17/1
