# Blender v2.78 (sub 0) OBJ File: 'Doors.blend'
# www.blender.org
mtllib Door_3.mtl
g Door3
v -0.323378 2.250014 -0.549689
v -0.323378 2.364987 -0.517796
v -0.323378 2.725327 -0.000000
v -0.323378 2.626953 0.311374
v -0.323378 2.364988 0.517796
v -0.323378 2.250015 0.549690
v 0.000000 2.681473 -0.000000
v 0.000000 2.640627 -0.197121
v 0.000000 2.590957 -0.286345
v 0.000000 2.442224 -0.429122
v 0.000000 2.250015 0.549690
v 0.000000 2.348782 0.477079
v 0.000000 2.442225 0.429122
v 0.000000 2.523987 0.364696
v 0.000000 2.640628 0.197121
v -0.323378 2.714111 -0.109340
v -0.323378 2.714111 0.109340
v -0.323378 2.680894 0.214478
v -0.323378 3.000000 0.623812
v 0.000000 2.250014 -0.549689
v 0.000000 0.000001 0.623812
v 0.000000 3.000000 -0.626189
v 0.000000 0.000001 -0.626189
v 0.000000 -0.000000 -0.549689
v 0.000000 2.725327 -0.000000
v 0.000000 2.364988 0.517796
v 0.000000 2.554360 0.396304
v 0.000000 2.680894 0.214478
v 0.000000 2.714111 0.109340
v 0.000000 2.364987 -0.517796
v 0.000000 2.465904 -0.466004
v 0.000000 2.554359 -0.396304
v 0.073695 2.249262 0.506065
v 0.073695 2.640627 -0.197121
v 0.073695 2.590957 -0.286345
v 0.073695 2.523987 0.364696
v 0.073695 2.590957 0.286344
v 0.073695 2.640628 0.197121
v 0.073695 2.681473 -0.000000
v 0.000000 2.200001 -0.506064
v 0.073695 2.200001 -0.506064
v 0.073695 2.200001 0.506065
v 0.073695 0.043625 -0.506064
v -0.323378 2.465904 -0.466004
v -0.323378 2.554359 -0.396304
v -0.323378 2.554360 0.396304
v 0.000000 2.714111 -0.109340
v 0.000000 2.680894 -0.214479
v 0.000000 2.626952 -0.311375
v 0.000000 2.465905 0.466004
v 0.000000 2.626953 0.311374
v -0.323378 3.000000 -0.626189
v 0.000000 3.000000 0.623812
v -0.323378 0.000000 0.623812
v -0.323378 -0.000000 -0.626189
v -0.323378 2.626952 -0.311375
v -0.323378 2.680894 -0.214479
v -0.323378 2.465905 0.466004
v 0.073695 2.249262 0.000000
v 0.073695 2.249261 -0.506064
v 0.000000 2.249261 -0.506064
v 0.000000 2.249262 0.506065
v 0.000000 2.671169 -0.100451
v 0.000000 2.590957 0.286344
v 0.000000 2.671169 0.100451
v 0.000000 2.348781 -0.477079
v 0.000000 2.523987 -0.364696
v 0.000000 2.200001 0.506065
v 0.073695 2.671169 -0.100451
v 0.073695 2.348782 0.477079
v 0.073695 2.442225 0.429122
v 0.073695 2.671169 0.100451
v 0.073695 2.348781 -0.477079
v 0.073695 2.442224 -0.429122
v 0.073695 2.523987 -0.364696
v 0.000000 0.043625 0.506065
v 0.073695 0.043625 0.506065
v 0.000000 0.043625 -0.506064
v -0.323378 -0.000000 -0.549689
v -0.323378 0.000000 0.549690
v 0.000000 0.000000 0.549690
vt 0.5957 0.7181
vt 0.5728 0.7181
vt 0.5728 0.0471
vt 0.5957 0.0471
vt 0.3456 0.7821
vt 0.3621 0.7501
vt 0.3957 0.9515
vt 0.7635 0.8562
vt 0.7815 0.8716
vt 0.6980 0.9344
vt 0.8072 0.9117
vt 0.8138 0.9344
vt 0.6146 0.8716
vt 0.6325 0.8562
vt 0.6529 0.8449
vt 0.6980 0.8355
vt 0.7210 0.8379
vt 0.9107 0.7181
vt 0.9107 0.7411
vt 0.5957 0.7411
vt 0.3957 1.0540
vt 0.0041 1.0540
vt 0.0041 0.9515
vt 0.3722 0.7137
vt 0.3722 0.0003
vt 0.3957 0.0003
vt 0.2326 0.8608
vt 0.2659 0.8503
vt 0.0992 0.8332
vt 0.1299 0.8503
vt 0.1632 0.8608
vt 0.1979 0.8644
vt 0.2966 0.8332
vt 0.3235 0.8102
vt 0.0041 0.0003
vt -0.0984 0.9515
vt -0.0984 0.0003
vt 0.4982 0.0003
vt 0.4982 0.9515
vt 0.1261 0.7137
vt 0.0284 0.7137
vt 0.0284 0.0003
vt 0.1261 0.0003
vt 0.5822 0.9344
vt 0.5888 0.9117
vt 0.7238 0.8036
vt 0.7008 0.8013
vt 0.7008 0.7912
vt 0.7258 0.7938
vt 0.7459 0.8106
vt 0.7499 0.8014
vt 0.7663 0.8220
vt 0.7720 0.8138
vt 0.5916 0.8774
vt 0.5850 0.9002
vt 0.5750 0.9000
vt 0.5823 0.8737
vt 0.6026 0.8560
vt 0.5941 0.8506
vt 0.6173 0.8373
vt 0.6101 0.8304
vt 0.6353 0.8220
vt 0.6295 0.8138
vt 0.6557 0.8106
vt 0.6517 0.8014
vt 0.6778 0.8036
vt 0.6758 0.7938
vt 0.8166 0.9002
vt 0.8100 0.8774
vt 0.8193 0.8737
vt 0.8266 0.9000
vt 0.7990 0.8560
vt 0.8074 0.8506
vt 0.7842 0.8373
vt 0.7915 0.8304
vt 0.5998 0.8903
vt 0.9336 0.7181
vt 0.9107 0.0471
vt 0.9336 0.0471
vt 0.2696 0.7137
vt 0.2696 0.0003
vt 0.5957 0.0241
vt 0.9107 0.0241
vt 0.9472 0.7337
vt 0.9472 0.0335
vt 0.5592 0.7337
vt 0.5592 0.0335
vt 0.9107 0.7564
vt 0.5957 0.7564
vt 0.7431 0.8449
vt 0.7962 0.8903
vt 0.6750 0.8379
vt 0.7532 0.7793
vt 0.9107 0.7793
vt 0.5957 0.7793
vt 0.9243 0.7566
vt 0.5821 0.7566
vt 0.5821 0.0106
vt 0.9243 0.0106
vt 0.0337 0.7501
vt 0.0501 0.7821
vt 0.0722 0.8102
vt 0.1378 0.2264
vt 0.1378 0.1857
vt 0.2540 0.1857
vt 0.2540 0.2264
vt 0.1378 0.3865
vt 0.1378 0.3469
vt 0.2540 0.3469
vt 0.2540 0.3865
vt 0.1378 0.2669
vt 0.2540 0.2669
vt 0.1378 0.5851
vt 0.1378 0.5449
vt 0.2540 0.5449
vt 0.2540 0.5851
vt 0.1378 0.3070
vt 0.2540 0.3070
vt 0.1378 0.4260
vt 0.2540 0.4260
vt 0.1378 0.4655
vt 0.2540 0.4655
vt 0.1378 0.5051
vt 0.2540 0.5051
vt 0.1378 0.6255
vt 0.2540 0.6255
vt 0.1378 0.6663
vt 0.2540 0.6663
vt 0.8403 0.9347
vt 0.8641 0.9347
vt 0.8641 0.9516
vt 0.8403 0.9516
vt 0.6059 0.9347
vt 0.6300 0.9347
vt 0.6300 0.9516
vt 0.6059 0.9516
vt 0.8882 0.9347
vt 0.8882 0.9516
vt 0.5822 0.9347
vt 0.5822 0.9516
vt 0.9119 0.9347
vt 0.9119 0.9516
vt 0.7934 0.9347
vt 0.8167 0.9347
vt 0.8167 0.9516
vt 0.7934 0.9516
vt 0.7239 0.9347
vt 0.7470 0.9347
vt 0.7470 0.9516
vt 0.7239 0.9516
vt 0.7702 0.9347
vt 0.7702 0.9516
vt 0.7007 0.9347
vt 0.7007 0.9516
vt 0.6774 0.9347
vt 0.6774 0.9516
vt 0.6538 0.9347
vt 0.6538 0.9516
vt 0.1378 0.7092
vt 0.2540 0.7092
vt 0.1378 0.1428
vt 0.2540 0.1428
vn 0.0000 0.0000 1.0000
vn -1.0000 0.0000 0.0000
vn 0.0000 -1.0000 0.0000
vn 0.0000 1.0000 0.0000
vn -0.0000 0.0000 -1.0000
vn -0.7295 -0.3695 0.5756
vn -0.7307 -0.2484 0.6359
vn -0.6849 -0.2651 0.6786
vn -0.6860 -0.3931 0.6122
vn -0.7307 -0.6685 0.1384
vn -0.7305 -0.6271 0.2703
vn -0.6851 -0.6689 0.2883
vn -0.6849 -0.7135 0.1477
vn -0.7298 -0.4736 0.4929
vn -0.6857 -0.5043 0.5248
vn -0.7298 -0.4736 -0.4929
vn -0.7302 -0.5609 -0.3901
vn -0.6854 -0.5978 -0.4157
vn -0.6857 -0.5043 -0.5248
vn -0.7302 -0.5609 0.3901
vn -0.6854 -0.5978 0.4157
vn -0.7308 -0.6826 0.0000
vn -0.6848 -0.7287 0.0000
vn -0.7307 -0.6685 -0.1384
vn -0.6849 -0.7135 -0.1477
vn -0.7305 -0.6271 -0.2703
vn -0.6851 -0.6689 -0.2883
vn -0.7295 -0.3695 -0.5756
vn -0.6860 -0.3931 -0.6122
vn -0.7307 -0.2484 -0.6359
vn -0.6849 -0.2651 -0.6786
vn -0.7292 -0.2530 -0.6358
vn -0.6863 -0.2690 -0.6757
vn -0.7292 -0.2530 0.6358
vn -0.6863 -0.2690 0.6758
vn -0.9356 0.2119 -0.2824
vn -0.5639 0.4956 -0.6606
vn -0.9356 0.2119 0.2824
vn -0.5639 0.4956 0.6606
vn -0.7388 -0.0909 -0.6678
vn -0.6780 -0.0991 -0.7284
vn -0.7388 -0.0909 0.6678
vn -0.6780 -0.0991 0.7284
usemtl Door3
s off
f 41/1/1 40/2/1 78/3/1 43/4/1
f 58/5/2 5/6/2 19/7/2
f 35/8/2 75/9/2 59/10/2
f 73/11/2 60/12/2 59/10/2
f 36/13/2 37/14/2 59/10/2
f 37/14/2 38/15/2 59/10/2
f 39/16/2 69/17/2 59/10/2
f 41/1/3 42/18/3 68/19/3 40/20/3
f 53/21/4 22/22/4 52/23/4 19/7/4
f 6/24/2 80/25/2 54/26/2 19/7/2
f 17/27/2 18/28/2 19/7/2
f 56/29/2 57/30/2 52/23/2
f 6/24/2 19/7/2 5/6/2
f 57/30/2 16/31/2 52/23/2
f 16/31/2 3/32/2 19/7/2 52/23/2
f 18/28/2 4/33/2 19/7/2
f 4/33/2 46/34/2 19/7/2
f 3/32/2 17/27/2 19/7/2
f 46/34/2 58/5/2 19/7/2
f 55/35/5 52/23/5 22/36/5 23/37/5
f 54/26/1 21/38/1 53/39/1 19/7/1
f 20/40/1 1/41/1 79/42/1 24/43/1
f 33/44/2 70/45/2 59/10/2
f 63/46/2 7/47/2 25/48/2 47/49/2
f 8/50/2 63/46/2 47/49/2 48/51/2
f 9/52/2 8/50/2 48/51/2 49/53/2
f 12/54/2 62/55/2 11/56/2 26/57/2
f 13/58/2 12/54/2 26/57/2 50/59/2
f 14/60/2 13/58/2 50/59/2 27/61/2
f 64/62/2 14/60/2 27/61/2 51/63/2
f 15/64/2 64/62/2 51/63/2 28/65/2
f 65/66/2 15/64/2 28/65/2 29/67/2
f 7/47/2 65/66/2 29/67/2 25/48/2
f 61/68/2 66/69/2 30/70/2 20/71/2
f 66/69/2 10/72/2 31/73/2 30/70/2
f 10/72/2 67/74/2 32/75/2 31/73/2
f 67/74/2 9/52/2 49/53/2 32/75/2
f 71/76/2 36/13/2 59/10/2
f 68/77/5 42/18/5 77/78/5 76/79/5
f 6/24/5 11/80/5 81/81/5 80/25/5
f 78/82/4 76/83/4 77/78/4 43/4/4
f 11/84/2 68/77/2 76/79/2 81/85/2
f 40/2/2 20/86/2 24/87/2 78/3/2
f 70/45/2 71/76/2 59/10/2
f 40/20/2 68/19/2 62/88/2 61/89/2
f 34/90/2 35/8/2 59/10/2
f 74/91/2 73/11/2 59/10/2
f 38/15/2 72/92/2 59/10/2
f 69/17/2 34/90/2 59/10/2
f 75/9/2 74/91/2 59/10/2
f 72/92/2 39/16/2 59/10/2
f 59/93/4 61/89/4 62/88/4 33/94/4
f 60/95/4 61/89/4 59/93/4
f 11/96/2 62/88/2 68/19/2
f 61/89/2 20/97/2 40/20/2
f 76/83/2 78/82/2 24/98/2 81/99/2
f 42/18/2 41/1/2 43/4/2 77/78/2
f 2/100/2 44/101/2 52/23/2
f 44/101/2 45/102/2 52/23/2
f 45/102/2 56/29/2 52/23/2
f 79/42/2 1/41/2 52/23/2 55/35/2
f 2/100/2 52/23/2 1/41/2
s 1
f 44/103/6 2/104/7 30/105/8 31/106/9
f 16/107/10 57/108/11 48/109/12 47/110/13
f 45/111/14 44/103/6 31/106/9 32/112/15
f 46/113/16 4/114/17 51/115/18 27/116/19
f 56/117/20 45/111/14 32/112/15 49/118/21
f 57/108/11 56/117/20 49/118/21 48/109/12
f 3/119/22 16/107/10 47/110/13 25/120/23
f 17/121/24 3/119/22 25/120/23 29/122/25
f 18/123/26 17/121/24 29/122/25 28/124/27
f 4/114/17 18/123/26 28/124/27 51/115/18
f 58/125/28 46/113/16 27/116/19 50/126/29
f 5/127/30 58/125/28 50/126/29 26/128/31
f 67/129/14 10/130/6 74/131/9 75/132/15
f 12/133/32 13/134/28 71/135/29 70/136/33
f 10/130/6 66/137/34 73/138/35 74/131/9
f 62/139/36 12/133/32 70/136/33 33/140/37
f 66/137/34 61/141/38 60/142/39 73/138/35
f 8/143/11 9/144/20 35/145/21 34/146/12
f 65/147/24 7/148/22 39/149/23 72/150/25
f 63/151/10 8/143/11 34/146/12 69/152/13
f 15/153/26 65/147/24 72/150/25 38/154/27
f 7/148/22 63/151/10 69/152/13 39/149/23
f 64/155/17 15/153/26 38/154/27 37/156/18
f 14/157/16 64/155/17 37/156/18 36/158/19
f 9/144/20 67/129/14 75/132/15 35/145/21
f 13/134/28 14/157/16 36/158/19 71/135/29
f 6/159/40 5/127/30 26/128/31 11/160/41
f 2/104/7 1/161/42 20/162/43 30/105/8
