# Blender v2.78 (sub 0) OBJ File: 'Drainpipes.blend'
# www.blender.org
mtllib DrainpipeHorizontal2.mtl
g DrainpipeHorizontal2
v 1.225039 -0.051286 0.079746
v 1.225039 -0.051286 -0.043998
v 0.000000 -0.051286 0.079746
v 0.000000 0.028048 0.077748
v 0.000000 -0.051286 -0.043998
v 1.231417 0.028048 0.077748
v 1.231417 0.028048 -0.102184
v 0.000000 0.028048 -0.102184
v 1.250000 0.010408 0.109016
v 0.000000 0.010408 0.109016
v 0.000000 0.010408 -0.108110
v 1.250000 0.010408 -0.108110
v 1.240237 0.010408 -0.094049
v 0.000000 0.010408 -0.094049
v 0.000000 0.010408 0.094956
v 1.240237 0.010408 0.094956
v 1.240237 -0.041774 -0.059208
v 1.240237 -0.041774 0.094956
v 0.000000 -0.041774 -0.059208
v 0.000000 -0.041774 0.094956
v 0.000000 0.028048 0.096345
v 0.000000 0.028048 -0.120781
v 1.250000 0.028048 -0.120781
v 1.250000 0.028048 0.096345
v 0.000000 0.016148 0.077748
v 0.000000 0.016148 -0.102184
v 1.231417 0.016148 -0.102184
v 1.231417 0.016148 0.077748
vt 0.6485 0.4575
vt 0.6485 0.4342
vt 0.7175 0.4342
vt 0.7331 0.4575
vt 0.5443 0.8964
vt 0.5443 0.9239
vt 0.0005 0.9239
vt 0.0005 0.8964
vt 0.0005 0.9663
vt 0.0005 0.9435
vt 0.5428 0.9437
vt 0.5428 0.9665
vt 0.5489 0.8578
vt 0.0004 0.8578
vt 0.0004 0.8024
vt 0.5489 0.8024
vt 0.2286 0.1399
vt 0.2286 0.1307
vt 0.7563 0.1308
vt 0.7563 0.1400
vt 0.7552 0.0096
vt 0.7552 0.0187
vt 0.2288 0.0187
vt 0.2288 0.0096
vt 0.7301 0.7193
vt 0.7358 0.7272
vt 0.6386 0.7272
vt 0.6329 0.7193
vt 0.7489 0.0004
vt 0.2287 0.0005
vt 0.2286 0.1491
vt 0.7521 0.1491
vt 0.7238 0.7150
vt 0.6392 0.7150
vt 0.7107 0.4261
vt 0.6553 0.4261
vt 0.0004 0.9333
vt 0.5376 0.9333
vt 0.5349 0.9344
vt 0.0004 0.9342
vt 0.7275 0.7356
vt 0.7275 0.7409
vt 0.6469 0.7409
vt 0.6469 0.7356
vt 0.7472 0.1217
vt 0.2286 0.1217
vt 0.2287 0.0278
vt 0.7474 0.0278
vt 0.2287 0.0369
vt 0.7473 0.0369
vt 0.7473 0.1126
vt 0.2287 0.1126
vn 1.0000 0.0000 0.0000
vn 0.0000 -0.5553 -0.8317
vn 0.0000 0.0000 1.0000
vn 0.0000 -1.0000 0.0000
vn 0.0000 -0.5834 -0.8122
vn 0.0000 0.5834 0.8122
vn 0.5305 -0.8477 0.0000
vn 0.0000 -0.8479 -0.5302
vn 0.0000 -0.8479 0.5302
vn -1.0000 0.0000 0.0000
vn 0.0000 1.0000 0.0000
vn 0.0000 0.0000 -1.0000
usemtl Drainpipe
s off
f 16/1/1 18/2/1 17/3/1 13/4/1
f 13/5/2 17/6/2 19/7/2 14/8/2
f 15/9/3 20/10/3 18/11/3 16/12/3
f 1/13/4 3/14/4 5/15/4 2/16/4
f 11/17/5 22/18/5 23/19/5 12/20/5
f 9/21/6 24/22/6 21/23/6 10/24/6
f 12/25/1 23/26/1 24/27/1 9/28/1
f 16/29/4 9/21/4 10/24/4 15/30/4
f 14/31/4 11/17/4 12/20/4 13/32/4
f 13/33/4 12/25/4 9/28/4 16/34/4
f 2/35/7 17/3/7 18/2/7 1/36/7
f 5/37/8 19/7/8 17/6/8 2/38/8
f 1/39/9 18/11/9 20/10/9 3/40/9
f 7/41/10 27/42/10 28/43/10 6/44/10
f 7/45/11 23/19/11 22/18/11 8/46/11
f 6/44/11 24/27/11 23/26/11 7/41/11
f 4/47/11 21/23/11 24/22/11 6/48/11
f 25/49/11 28/50/11 27/51/11 26/52/11
f 6/48/12 28/50/12 25/49/12 4/47/12
f 8/46/3 26/52/3 27/51/3 7/45/3
