# Blender v2.78 (sub 0) OBJ File: 'Drainpipes.blend'
# www.blender.org
mtllib DrainpipeVertical.mtl
g DrainpipeVertical_DrainpipeVertical.001
v 0.057897 0.730566 -0.057540
v 0.074155 0.730566 -0.033209
v 0.053033 0.769433 0.053390
v 0.028701 0.769433 0.069648
v 0.073655 0.730566 0.030536
v 0.069291 0.730566 0.029058
v 0.079864 0.730566 0.000357
v 0.073655 0.769433 0.030536
v 0.053033 0.730566 -0.052676
v 0.069291 0.730566 -0.028344
v 0.053033 0.730566 0.053390
v 0.028701 0.730566 0.069648
v 0.119916 0.769433 0.053224
v 0.069291 2.944951 0.029058
v 0.053033 2.944951 -0.052676
v 0.069291 2.944951 -0.028344
v 0.026279 2.964101 0.082483
v 0.055077 2.964101 0.063241
v 0.074320 2.964101 0.034443
v 0.081077 2.964101 0.000473
v 0.074320 2.964101 -0.033496
v 0.055077 2.964101 -0.062294
v 0.026279 2.964101 -0.081536
v 0.119916 2.251484 0.053224
v 0.028701 2.212617 0.069648
v 0.053033 2.212617 0.053390
v 0.069291 2.212617 -0.028344
v 0.053033 2.212617 -0.052676
v 0.073655 2.251484 0.030536
v 0.079864 2.212617 0.000357
v 0.061162 2.212617 0.041224
v 0.073655 2.212617 0.030536
v 0.028701 2.251484 0.069648
v 0.053033 2.251484 0.053390
v 0.074155 2.212617 -0.033209
v 0.057897 2.212617 -0.057540
v 0.072145 2.212617 0.014707
v 0.119916 2.251484 0.069648
v 0.119916 2.212617 0.069648
v 0.074320 2.944951 -0.033496
v 0.026279 2.944951 -0.081536
v 0.081077 2.944951 0.000473
v 0.028701 2.944951 -0.068934
v 0.069291 0.000000 -0.028344
v 0.075000 -0.000000 0.000357
v 0.053033 0.000000 -0.052676
v 0.053033 2.944951 0.053390
v 0.075000 2.944951 0.000357
v 0.055077 2.944951 -0.062294
v 0.055077 2.944951 0.063241
v 0.074320 2.944951 0.034443
v 0.026279 2.944951 0.082483
v 0.119916 2.212617 0.053224
v 0.065526 2.212617 0.042702
v 0.065526 2.251484 0.042702
v 0.079864 2.251484 0.000357
v 0.074155 2.251484 -0.033209
v 0.069291 2.251484 0.029058
v 0.069291 2.212617 0.029058
v 0.028701 2.212617 -0.068934
v 0.069291 2.251484 -0.028344
v 0.053033 2.251484 -0.052676
v 0.028701 2.251484 -0.068934
v 0.057897 2.251484 -0.057540
v 0.033565 2.251484 -0.073798
v 0.075000 2.212617 0.000357
v 0.033565 2.212617 -0.073798
v 0.028701 0.000000 -0.068934
v 0.028701 2.944951 0.069648
v 0.075000 2.251484 0.000357
v 0.069291 -0.000000 0.029058
v 0.119916 0.769433 0.069648
v 0.119916 0.730566 0.069648
v 0.119916 0.730566 0.053224
v 0.065526 0.730566 0.042702
v 0.065526 0.769433 0.042702
v 0.079864 0.769433 0.000357
v 0.074155 0.769433 -0.033209
v 0.061162 0.769433 0.041224
v 0.028701 0.730566 -0.068934
v 0.069291 0.769433 0.029058
v 0.069291 0.769433 -0.028344
v 0.053033 0.769433 -0.052676
v 0.028701 0.769433 -0.068934
v 0.057897 0.769433 -0.057540
v 0.033565 0.769433 -0.073798
v 0.075000 0.730566 0.000357
v 0.033565 0.730566 -0.073798
v 0.072145 0.769433 0.014707
v 0.075000 0.769433 0.000357
v 0.028701 -0.000000 0.069648
v 0.053033 -0.000000 0.053390
v -0.057897 0.730566 -0.057540
v -0.074155 0.730566 -0.033209
v -0.053033 0.769433 0.053390
v -0.028701 0.769433 0.069648
v 0.000000 0.769433 -0.079507
v -0.073655 0.730566 0.030536
v -0.069291 0.730566 0.029058
v -0.079864 0.730566 0.000357
v -0.073655 0.769433 0.030536
v 0.000000 0.730566 -0.074643
v -0.053033 0.730566 -0.052676
v -0.069291 0.730566 -0.028344
v -0.053033 0.730566 0.053390
v -0.028701 0.730566 0.069648
v -0.119916 0.769433 0.053224
v -0.069291 2.944951 0.029058
v -0.053033 2.944951 -0.052676
v -0.069291 2.944951 -0.028344
v 0.000000 2.964101 -0.088293
v -0.026279 2.964101 0.082483
v -0.055077 2.964101 0.063241
v -0.074320 2.964101 0.034443
v -0.081077 2.964101 0.000473
v -0.074320 2.964101 -0.033496
v -0.055077 2.964101 -0.062294
v -0.026279 2.964101 -0.081536
v -0.119916 2.251484 0.053224
v -0.028701 2.212617 0.069648
v -0.053033 2.212617 0.053390
v -0.069291 2.212617 -0.028344
v -0.053033 2.212617 -0.052676
v 0.000000 2.212617 -0.074643
v -0.073655 2.251484 0.030536
v -0.079864 2.212617 0.000357
v -0.061162 2.212617 0.041224
v -0.073655 2.212617 0.030536
v 0.000000 2.251484 -0.079507
v -0.028701 2.251484 0.069648
v -0.053033 2.251484 0.053390
v -0.074155 2.212617 -0.033209
v -0.057897 2.212617 -0.057540
v -0.072145 2.212617 0.014707
v 0.000000 2.944951 0.082483
v 0.000000 2.944951 -0.088293
v 0.000000 2.964101 0.082483
v 0.000000 2.212617 0.069648
v 0.000000 2.251484 0.069648
v -0.119916 2.251484 0.069648
v -0.119916 2.212617 0.069648
v -0.074320 2.944951 -0.033496
v -0.026279 2.944951 -0.081536
v -0.081077 2.944951 0.000473
v -0.028701 2.944951 -0.068934
v 0.000000 2.944951 -0.074643
v 0.000000 0.000000 -0.074643
v -0.069291 0.000000 -0.028344
v -0.075000 -0.000000 0.000357
v -0.053033 0.000000 -0.052676
v -0.053033 2.944951 0.053390
v -0.075000 2.944951 0.000357
v -0.055077 2.944951 -0.062294
v -0.055077 2.944951 0.063241
v -0.074320 2.944951 0.034443
v -0.026279 2.944951 0.082483
v -0.119916 2.212617 0.053224
v -0.065526 2.212617 0.042702
v -0.065526 2.251484 0.042702
v -0.079864 2.251484 0.000357
v -0.074155 2.251484 -0.033209
v -0.069291 2.251484 0.029058
v -0.069291 2.212617 0.029058
v -0.028701 2.212617 -0.068934
v -0.069291 2.251484 -0.028344
v -0.053033 2.251484 -0.052676
v -0.028701 2.251484 -0.068934
v 0.000000 2.251484 -0.074643
v -0.057897 2.251484 -0.057540
v -0.033565 2.251484 -0.073798
v -0.075000 2.212617 0.000357
v -0.033565 2.212617 -0.073798
v 0.000000 2.212617 -0.079507
v -0.028701 0.000000 -0.068934
v -0.028701 2.944951 0.069648
v 0.000000 2.944951 0.069648
v -0.075000 2.251484 0.000357
v -0.075000 0.730566 0.000357
v 0.000000 0.730566 0.069648
v 0.000000 0.769433 0.069648
v -0.119916 0.769433 0.069648
v -0.119916 0.730566 0.069648
v -0.119916 0.730566 0.053224
v -0.065526 0.730566 0.042702
v -0.065526 0.769433 0.042702
v -0.079864 0.769433 0.000357
v -0.074155 0.769433 -0.033209
v -0.061162 0.769433 0.041224
v -0.028701 0.730566 -0.068934
v -0.069291 0.769433 0.029058
v -0.069291 0.769433 -0.028344
v -0.053033 0.769433 -0.052676
v -0.028701 0.769433 -0.068934
v 0.000000 0.769433 -0.074643
v -0.057897 0.769433 -0.057540
v -0.033565 0.769433 -0.073798
v -0.069291 0.000000 0.029058
v -0.033565 0.730566 -0.073798
v 0.000000 0.730566 -0.079507
v -0.072145 0.769433 0.014707
v -0.075000 0.769433 0.000357
v 0.000000 -0.000000 0.069648
v -0.028701 -0.000000 0.069648
v -0.053033 -0.000000 0.053390
vt 0.3470 0.5856
vt 0.3339 0.5856
vt 0.3339 0.5682
vt 0.3470 0.5682
vt 0.3623 0.5856
vt 0.3623 0.5682
vt 0.3761 0.5682
vt 0.3761 0.5856
vt 0.3826 0.5682
vt 0.3826 0.5856
vt 0.7618 0.5442
vt 0.7640 0.5420
vt 0.7749 0.5493
vt 0.7727 0.5515
vt 0.7671 0.7777
vt 0.7693 0.7799
vt 0.7620 0.7908
vt 0.7598 0.7886
vt 0.7489 0.5417
vt 0.7489 0.5395
vt 0.7511 0.7981
vt 0.7489 0.7959
vt 0.0123 0.5955
vt 0.0123 0.0009
vt 0.0243 0.0009
vt 0.0243 0.5955
vt 0.3208 0.5856
vt 0.3056 0.5856
vt 0.3056 0.5682
vt 0.3208 0.5682
vt 0.7229 0.6967
vt 0.7360 0.6967
vt 0.7360 0.7141
vt 0.7229 0.7141
vt 0.7821 0.5602
vt 0.7800 0.5624
vt 0.7634 0.7466
vt 0.7654 0.7459
vt 0.7690 0.7513
vt 0.7671 0.7520
vt 0.7732 0.3835
vt 0.8031 0.3908
vt 0.7976 0.3955
vt 0.7558 0.3835
vt 0.7558 0.3527
vt 0.7732 0.3527
vt 0.0779 0.0007
vt 0.0899 0.0007
vt 0.0899 0.5952
vt 0.0779 0.5952
vt 0.0004 0.5955
vt 0.0004 0.0009
vt 0.2403 0.5865
vt 0.2558 0.5865
vt 0.2558 0.5951
vt 0.2403 0.5951
vt 0.0451 0.5953
vt 0.0347 0.5954
vt 0.0347 0.0009
vt 0.0451 0.0008
vt 0.4094 0.5856
vt 0.4094 0.5682
vt 0.4223 0.5682
vt 0.4223 0.5856
vt 0.4385 0.4604
vt 0.4385 0.1500
vt 0.4514 0.1500
vt 0.4514 0.4604
vt 0.7900 0.3191
vt 0.7922 0.3212
vt 0.7772 0.3238
vt 0.7772 0.3216
vt 0.2868 0.5865
vt 0.3023 0.5865
vt 0.3023 0.5951
vt 0.2868 0.5951
vt 0.2286 0.5951
vt 0.2286 0.5865
vt 0.1020 0.5952
vt 0.1020 0.0007
vt 0.0555 0.0007
vt 0.0658 0.0007
vt 0.0658 0.5952
vt 0.0555 0.5953
vt 0.1141 0.0007
vt 0.1141 0.5952
vt 0.7361 0.8006
vt 0.7361 0.7984
vt 0.7101 0.7141
vt 0.7101 0.6967
vt 0.3178 0.5865
vt 0.3334 0.5865
vt 0.3334 0.5951
vt 0.3178 0.5951
vt 0.3455 0.5865
vt 0.3455 0.5951
vt 0.2713 0.5865
vt 0.2713 0.5951
vt 0.7090 0.4127
vt 0.7163 0.4018
vt 0.7220 0.4007
vt 0.7133 0.4136
vt 0.7189 0.3890
vt 0.7250 0.3890
vt 0.6981 0.4200
vt 0.7005 0.4222
vt 0.6616 0.4127
vt 0.6724 0.4200
vt 0.6700 0.4222
vt 0.6571 0.4136
vt 0.6543 0.4018
vt 0.6485 0.4007
vt 0.5797 0.7767
vt 0.5797 0.7459
vt 0.5971 0.7459
vt 0.5971 0.7767
vt 0.6270 0.7840
vt 0.6215 0.7888
vt 0.8082 0.2752
vt 0.8065 0.2691
vt 0.8102 0.2745
vt 0.6874 0.7579
vt 0.6896 0.7557
vt 0.6969 0.7666
vt 0.6947 0.7688
vt 0.6853 0.4225
vt 0.6852 0.4253
vt 0.4354 0.5682
vt 0.4354 0.5856
vt 0.6214 0.7141
vt 0.6062 0.7141
vt 0.6062 0.6967
vt 0.6214 0.6967
vt 0.8009 0.3118
vt 0.8031 0.3140
vt 0.6637 0.7481
vt 0.6637 0.7459
vt 0.6787 0.7485
vt 0.6765 0.7506
vt 0.6629 0.7141
vt 0.6476 0.7141
vt 0.6476 0.6967
vt 0.6629 0.6967
vt 0.8082 0.3009
vt 0.8104 0.3031
vt 0.6767 0.7141
vt 0.6767 0.6967
vt 0.6832 0.6967
vt 0.6832 0.7141
vt 0.6345 0.7141
vt 0.6345 0.6967
vt 0.6994 0.7817
vt 0.6973 0.7817
vt 0.6947 0.7945
vt 0.6967 0.7952
vt 0.6930 0.8006
vt 0.6911 0.7999
vt 0.5971 0.7841
vt 0.6234 0.7894
vt 0.5797 0.7841
vt 0.5971 0.8089
vt 0.5797 0.8089
vt 0.5554 0.7888
vt 0.5570 0.7949
vt 0.5498 0.7840
vt 0.4776 0.1500
vt 0.4907 0.1500
vt 0.4907 0.4604
vt 0.4776 0.4604
vt 0.5038 0.1500
vt 0.5038 0.4604
vt 0.4645 0.1500
vt 0.4645 0.4604
vt 0.6485 0.3890
vt 0.6543 0.3890
vt 0.5169 0.1500
vt 0.5300 0.1500
vt 0.5300 0.4604
vt 0.5169 0.4604
vt 0.5431 0.1500
vt 0.5431 0.4604
vt 0.8108 0.2880
vt 0.8129 0.2880
vt 0.6960 0.7881
vt 0.2938 0.4770
vt 0.2938 0.1500
vt 0.3069 0.1500
vt 0.3069 0.4770
vt 0.3200 0.1500
vt 0.3200 0.4770
vt 0.7847 0.5752
vt 0.7825 0.5752
vt 0.7732 0.3908
vt 0.7959 0.4017
vt 0.7558 0.3908
vt 0.7732 0.4156
vt 0.7558 0.4156
vt 0.7315 0.3955
vt 0.7295 0.3962
vt 0.7259 0.3908
vt 0.2807 0.1500
vt 0.2807 0.4770
vt 0.3331 0.1500
vt 0.3331 0.4770
vt 0.7696 0.7649
vt 0.7718 0.7649
vt 0.7684 0.7584
vt 0.2545 0.1500
vt 0.2676 0.1500
vt 0.2676 0.4770
vt 0.2545 0.4770
vt 0.2414 0.4770
vt 0.2414 0.1500
vt 0.2286 0.4770
vt 0.2286 0.1500
vt 0.2641 0.5856
vt 0.2641 0.5682
vt 0.2772 0.5682
vt 0.2772 0.5856
vt 0.2489 0.5856
vt 0.2351 0.5856
vt 0.2351 0.5682
vt 0.2489 0.5682
vt 0.2286 0.5856
vt 0.2286 0.5682
vt 0.7361 0.5442
vt 0.7252 0.5515
vt 0.7230 0.5493
vt 0.7339 0.5420
vt 0.7050 0.7777
vt 0.7123 0.7886
vt 0.7101 0.7908
vt 0.7029 0.7799
vt 0.7232 0.7959
vt 0.7210 0.7981
vt 0.2158 0.5950
vt 0.2038 0.5950
vt 0.2038 0.0004
vt 0.2159 0.0004
vt 0.2903 0.5856
vt 0.2903 0.5682
vt 0.6972 0.6967
vt 0.6972 0.7141
vt 0.6841 0.7141
vt 0.6841 0.6967
vt 0.7179 0.5624
vt 0.7157 0.5602
vt 0.7087 0.7466
vt 0.7050 0.7520
vt 0.7031 0.7513
vt 0.7067 0.7459
vt 0.7453 0.4913
vt 0.7333 0.4669
vt 0.7381 0.4613
vt 0.7453 0.5087
vt 0.7761 0.4913
vt 0.7761 0.5087
vt 0.1502 0.0007
vt 0.1502 0.5952
vt 0.1382 0.5952
vt 0.1382 0.0007
vt 0.2277 0.5950
vt 0.2277 0.0004
vt 0.4507 0.5865
vt 0.4507 0.5951
vt 0.4352 0.5951
vt 0.4352 0.5865
vt 0.1830 0.5951
vt 0.1830 0.0006
vt 0.1934 0.0005
vt 0.1934 0.5951
vt 0.3966 0.5856
vt 0.3966 0.5682
vt 0.6477 0.4604
vt 0.6348 0.4604
vt 0.6348 0.1500
vt 0.6476 0.1500
vt 0.7643 0.3191
vt 0.7622 0.3212
vt 0.4042 0.5865
vt 0.4042 0.5951
vt 0.3887 0.5951
vt 0.3887 0.5865
vt 0.4624 0.5951
vt 0.4624 0.5865
vt 0.1261 0.5952
vt 0.1261 0.0007
vt 0.1727 0.5952
vt 0.1623 0.5952
vt 0.1623 0.0007
vt 0.1727 0.0006
vt 0.3732 0.5865
vt 0.3732 0.5951
vt 0.3576 0.5951
vt 0.3576 0.5865
vt 0.4197 0.5951
vt 0.4197 0.5865
vt 0.7090 0.3652
vt 0.7133 0.3643
vt 0.7220 0.3772
vt 0.7163 0.3761
vt 0.6981 0.3579
vt 0.7005 0.3557
vt 0.6616 0.3652
vt 0.6571 0.3643
vt 0.6700 0.3557
vt 0.6724 0.3579
vt 0.6543 0.3761
vt 0.6485 0.3772
vt 0.4006 0.5253
vt 0.4006 0.5079
vt 0.4314 0.5079
vt 0.4314 0.5253
vt 0.3885 0.4835
vt 0.3933 0.4779
vt 0.7462 0.2752
vt 0.7442 0.2745
vt 0.7479 0.2691
vt 0.6399 0.7579
vt 0.6327 0.7688
vt 0.6305 0.7666
vt 0.6378 0.7557
vt 0.6853 0.3554
vt 0.6852 0.3527
vt 0.3835 0.5856
vt 0.3835 0.5682
vt 0.5909 0.7141
vt 0.5909 0.6967
vt 0.7534 0.3118
vt 0.7513 0.3140
vt 0.6508 0.7506
vt 0.6487 0.7485
vt 0.5495 0.7141
vt 0.5495 0.6967
vt 0.5647 0.6967
vt 0.5647 0.7141
vt 0.7462 0.3009
vt 0.7440 0.3031
vt 0.5357 0.7141
vt 0.5292 0.7141
vt 0.5292 0.6967
vt 0.5357 0.6967
vt 0.5778 0.6967
vt 0.5778 0.7141
vt 0.6301 0.7817
vt 0.6279 0.7817
vt 0.6327 0.7945
vt 0.6363 0.7999
vt 0.6343 0.8006
vt 0.6307 0.7952
vt 0.3932 0.5079
vt 0.3878 0.4816
vt 0.3932 0.5253
vt 0.3684 0.5253
vt 0.3684 0.5079
vt 0.3885 0.5496
vt 0.3933 0.5552
vt 0.3824 0.5479
vt 0.6086 0.1500
vt 0.6086 0.4604
vt 0.5955 0.4604
vt 0.5955 0.1500
vt 0.5824 0.4604
vt 0.5824 0.1500
vt 0.6217 0.4604
vt 0.6217 0.1500
vt 0.5693 0.1500
vt 0.5693 0.4604
vt 0.5562 0.4604
vt 0.5562 0.1500
vt 0.7436 0.2880
vt 0.7414 0.2880
vt 0.6314 0.7881
vt 0.3724 0.4770
vt 0.3593 0.4770
vt 0.3593 0.1500
vt 0.3724 0.1500
vt 0.3462 0.4770
vt 0.3462 0.1500
vt 0.3986 0.4770
vt 0.3855 0.4770
vt 0.3855 0.1500
vt 0.3986 0.1500
vt 0.7154 0.5752
vt 0.7179 0.5881
vt 0.7160 0.5887
vt 0.7132 0.5752
vt 0.7380 0.4913
vt 0.7272 0.4686
vt 0.7380 0.5087
vt 0.7132 0.5087
vt 0.7132 0.4913
vt 0.7333 0.5330
vt 0.7381 0.5386
vt 0.7326 0.5350
vt 0.4117 0.1500
vt 0.4117 0.4770
vt 0.7819 0.5887
vt 0.7799 0.5881
vt 0.7025 0.7649
vt 0.7003 0.7649
vt 0.7038 0.7584
vt 0.4248 0.4770
vt 0.4248 0.1500
vt 0.4377 0.4770
vt 0.4377 0.1500
vt 0.7783 0.5942
vt 0.7196 0.5942
vn 0.6955 -0.6630 -0.2768
vn 0.5276 -0.6657 -0.5276
vn 0.5276 0.6657 -0.5276
vn 0.6955 0.6630 -0.2768
vn 0.7442 -0.6678 0.0128
vn 0.7442 0.6678 0.0128
vn 0.6879 0.6663 0.2876
vn 0.6879 -0.6663 0.2876
vn 0.2972 0.9467 -0.1240
vn 0.2972 -0.9467 -0.1240
vn 0.2515 -0.7537 -0.6071
vn 0.2768 -0.6630 -0.6955
vn 0.4646 -0.7537 -0.4646
vn 0.6071 0.7537 -0.2515
vn 0.4646 0.7537 -0.4646
vn 0.0000 -0.7537 -0.6571
vn 0.0000 -0.6712 -0.7412
vn 0.2768 0.6630 -0.6955
vn 0.2515 0.7537 -0.6071
vn 0.2903 0.0000 0.9569
vn 0.4611 0.2099 0.8621
vn 0.4611 -0.2099 0.8621
vn 0.0000 0.6712 -0.7412
vn 0.6071 -0.7537 -0.2515
vn 0.5879 0.7071 0.3928
vn 0.6071 0.7537 0.2515
vn 0.5095 -0.5658 0.6482
vn 0.5095 0.5658 0.6482
vn 0.0000 0.0000 1.0000
vn 0.2213 -0.6472 0.7295
vn 0.5276 -0.6657 0.5276
vn 0.7071 0.0000 0.7071
vn 0.6071 -0.7537 0.2514
vn 0.5879 -0.7071 0.3928
vn 0.0000 -0.7071 0.7071
vn 0.1821 -0.7786 0.6004
vn 0.0000 0.7537 -0.6571
vn 0.7462 -0.6657 0.0000
vn 0.6894 -0.6657 -0.2855
vn 0.9239 0.0000 -0.3827
vn 1.0000 0.0000 0.0000
vn 0.6935 0.7071 0.1379
vn 0.6571 0.7537 0.0000
vn 0.6571 -0.7537 0.0000
vn 0.6935 -0.7071 0.1379
vn 0.0000 -0.7538 -0.6571
vn 0.3025 -0.6712 -0.6767
vn 0.4081 0.0000 -0.9129
vn 0.7071 0.0000 -0.7071
vn 0.0000 -0.6551 -0.7555
vn 0.0000 0.0000 -1.0000
vn 0.6894 -0.6657 0.2855
vn 0.9239 0.0000 0.3827
vn 0.4646 -0.7537 0.4646
vn 0.6071 -0.7537 0.2515
vn 0.6239 -0.5881 -0.5147
vn 0.6239 0.5881 -0.5147
vn 0.3827 0.0000 -0.9239
vn -0.6955 -0.6630 -0.2768
vn -0.6955 0.6630 -0.2768
vn -0.5276 0.6657 -0.5276
vn -0.5276 -0.6657 -0.5276
vn -0.7442 -0.6678 0.0128
vn -0.6879 -0.6663 0.2876
vn -0.6879 0.6663 0.2876
vn -0.7442 0.6678 0.0128
vn -0.2972 -0.9467 -0.1240
vn -0.2972 0.9467 -0.1240
vn -0.2515 -0.7537 -0.6071
vn -0.4646 -0.7537 -0.4646
vn -0.2768 -0.6630 -0.6955
vn -0.6071 0.7537 -0.2515
vn -0.4646 0.7537 -0.4646
vn -0.2515 0.7537 -0.6071
vn -0.2768 0.6630 -0.6955
vn -0.2903 0.0000 0.9569
vn -0.4611 -0.2099 0.8621
vn -0.4611 0.2099 0.8621
vn -0.6071 -0.7537 -0.2515
vn -0.5879 0.7071 0.3928
vn -0.6071 0.7537 0.2515
vn -0.5095 -0.5658 0.6482
vn -0.5095 0.5658 0.6482
vn -0.2213 -0.6472 0.7295
vn -0.7071 0.0000 0.7071
vn -0.5276 -0.6657 0.5276
vn -0.6071 -0.7537 0.2514
vn -0.5879 -0.7071 0.3928
vn -0.1821 -0.7786 0.6004
vn -0.7462 -0.6657 0.0000
vn -1.0000 0.0000 0.0000
vn -0.9239 0.0000 -0.3827
vn -0.6894 -0.6657 -0.2856
vn -0.2515 -0.7538 -0.6071
vn -0.6935 -0.7071 0.1379
vn -0.6571 -0.7537 0.0000
vn -0.6571 0.7537 0.0000
vn -0.6935 0.7071 0.1379
vn -0.7071 0.0000 -0.7071
vn -0.4081 0.0000 -0.9129
vn -0.3025 -0.6712 -0.6767
vn -0.9239 0.0000 0.3827
vn -0.6894 -0.6657 0.2855
vn -0.4646 -0.7537 0.4646
vn -0.6071 -0.7537 0.2515
vn -0.6239 -0.5881 -0.5147
vn -0.6239 0.5881 -0.5147
vn -0.3827 0.0000 -0.9239
usemtl Drainpipe
s 1
f 2/1/1 1/2/2 85/3/3 78/4/4
f 7/5/5 77/6/6 8/7/7 5/8/8
f 5/8/8 8/7/7 76/9/9 75/10/10
f 80/11/11 88/12/12 1/13/2 9/14/13
f 82/15/14 78/16/4 85/17/3 83/18/15
f 7/5/5 2/1/1 78/4/4 77/6/6
f 102/19/16 199/20/17 88/12/12 80/11/11
f 83/18/15 85/17/3 86/21/18 84/22/19
f 25/23/20 4/24/20 3/25/21 26/26/22
f 88/27/12 199/28/17 97/29/23 86/30/18
f 12/31/20 11/32/22 3/33/21 4/34/20
f 9/14/13 1/13/2 2/35/1 10/36/24
f 79/37/25 76/38/9 8/39/7 81/40/26
f 73/41/27 11/42/22 75/43/10
f 72/44/28 3/45/21 11/46/22 73/41/27
f 82/47/14 83/48/15 28/49/13 27/50/24
f 138/51/29 180/52/29 4/24/20 25/23/20
f 52/53/30 50/54/31 18/55/32 17/56/20
f 59/57/33 31/58/34 26/26/22 3/25/21 79/59/25 81/60/26
f 139/61/29 138/62/29 25/63/20 33/64/20
f 176/65/35 139/66/29 33/67/20 69/68/36
f 63/69/19 65/70/18 129/71/23 168/72/37
f 42/73/38 40/74/39 21/75/40 20/76/41
f 137/77/29 135/78/35 52/53/30 17/56/20
f 60/79/11 28/49/13 83/48/15 84/80/19
f 81/60/26 89/81/42 90/82/43 66/83/44 37/84/45 59/57/33
f 84/80/19 194/85/37 124/86/46 60/79/11
f 84/22/19 86/21/18 97/87/23 194/88/37
f 180/89/29 179/90/29 12/31/20 4/34/20
f 49/91/2 41/92/47 23/93/48 22/94/49
f 41/92/47 136/95/50 111/96/51 23/93/48
f 40/74/39 49/91/2 22/94/49 21/75/40
f 50/54/31 51/97/52 19/98/53 18/55/32
f 15/99/13 43/100/11 41/101/47 49/102/2
f 43/100/11 146/103/16 136/104/50 41/101/47
f 16/105/24 15/99/13 49/102/2 40/106/39
f 47/107/54 14/108/55 51/109/52 50/110/31
f 69/111/36 47/107/54 50/110/31 52/112/30
f 38/113/28 34/114/21 26/115/22 39/116/27
f 39/116/27 26/117/22 54/118/10
f 58/119/26 55/120/9 29/121/7
f 28/122/13 36/123/2 35/124/1 27/125/24
f 48/126/44 16/105/24 40/106/39 42/127/38
f 25/63/20 26/128/22 34/129/21 33/64/20
f 67/130/12 173/131/17 129/132/23 65/133/18
f 14/108/55 48/126/44 42/127/38 51/109/52
f 62/134/15 64/135/3 65/70/18 63/69/19
f 124/136/46 173/137/17 67/138/12 60/139/11
f 30/140/5 35/141/1 57/142/4 56/143/6
f 61/144/14 57/145/4 64/135/3 62/134/15
f 60/139/11 67/138/12 36/123/2 28/122/13
f 32/146/8 29/147/7 55/148/9 54/149/10
f 30/140/5 56/143/6 29/147/7 32/146/8
f 35/141/1 36/150/2 64/151/3 57/142/4
f 27/125/24 35/124/1 30/152/5 66/153/44
f 36/150/2 67/130/12 65/133/18 64/151/3
f 59/154/33 32/155/8 54/156/10 31/157/34
f 54/118/10 53/158/56 39/116/27
f 54/118/10 26/117/22 31/159/34
f 24/160/57 53/158/56 54/161/10 55/162/9
f 55/163/9 58/164/26 34/165/21
f 55/163/9 34/165/21 24/160/57
f 38/113/28 24/160/57 34/165/21
f 53/158/56 24/160/57 38/113/28 39/116/27
f 58/166/26 70/167/43 48/168/44 14/169/55
f 70/167/43 61/170/14 16/171/24 48/168/44
f 33/67/20 34/172/21 47/173/54 69/68/36
f 51/97/52 42/73/38 20/76/41 19/98/53
f 135/174/35 176/175/35 69/111/36 52/112/30
f 62/176/15 63/177/19 43/178/11 15/179/13
f 34/172/21 58/166/26 14/169/55 47/173/54
f 63/177/19 168/180/37 146/181/16 43/178/11
f 61/170/14 62/176/15 15/179/13 16/171/24
f 70/182/43 56/183/6 57/145/4 61/144/14
f 58/119/26 29/121/7 56/183/6 70/182/43
f 37/184/45 66/153/44 30/152/5 32/155/8 59/154/33
f 10/185/24 44/186/40 46/187/49 9/188/13
f 46/187/49 68/189/58 80/190/11 9/188/13
f 10/36/24 2/35/1 7/191/5 87/192/44
f 1/2/2 88/27/12 86/30/18 85/3/3
f 75/43/10 74/193/56 73/41/27
f 75/43/10 11/42/22 6/194/55
f 13/195/57 74/193/56 75/196/10 76/197/9
f 76/198/9 79/199/25 3/200/21
f 76/198/9 3/200/21 13/195/57
f 72/44/28 13/195/57 3/200/21
f 74/193/56 13/195/57 72/44/28 73/41/27
f 45/201/41 44/186/40 10/185/24 87/202/44
f 68/189/58 147/203/51 102/204/16 80/190/11
f 90/205/43 77/206/6 78/16/4 82/15/14
f 81/40/26 8/39/7 77/206/6 90/205/43 89/207/42
f 92/208/32 71/209/53 6/210/55 11/211/22
f 12/212/20 91/213/20 92/208/32 11/211/22
f 179/214/29 202/215/29 91/213/20 12/212/20
f 87/202/44 6/210/55 71/209/53 45/201/41
f 27/50/24 66/83/44 90/82/43 82/47/14
f 94/216/59 187/217/60 195/218/61 93/219/62
f 100/220/63 98/221/64 101/222/65 186/223/66
f 98/221/64 184/224/67 185/225/68 101/222/65
f 189/226/69 103/227/70 93/228/62 198/229/71
f 191/230/72 192/231/73 195/232/61 187/233/60
f 100/220/63 186/223/66 187/217/60 94/216/59
f 102/19/16 189/226/69 198/229/71 199/20/17
f 192/231/73 193/234/74 196/235/75 195/232/61
f 120/236/76 121/237/77 95/238/78 96/239/76
f 198/240/71 196/241/75 97/29/23 199/28/17
f 106/242/76 96/243/76 95/244/78 105/245/77
f 103/227/70 104/246/79 94/247/59 93/228/62
f 188/248/80 190/249/81 101/250/65 185/251/68
f 182/252/82 184/253/67 105/254/77
f 181/255/83 182/252/82 105/256/77 95/257/78
f 191/258/72 122/259/79 123/260/70 192/261/73
f 138/262/29 120/236/76 96/239/76 180/263/29
f 156/264/84 112/265/76 113/266/85 154/267/86
f 163/268/87 190/269/81 188/270/80 95/238/78 121/237/77 127/271/88
f 139/61/29 130/272/76 120/273/76 138/62/29
f 176/274/35 175/275/89 130/276/76 139/277/29
f 167/278/74 168/72/37 129/71/23 170/279/75
f 144/280/90 115/281/91 116/282/92 142/283/93
f 137/284/29 112/265/76 156/264/84 135/285/35
f 164/286/94 193/287/74 192/261/73 123/260/70
f 190/269/81 163/268/87 134/288/95 171/289/96 201/290/97 200/291/98
f 193/287/74 164/286/94 124/86/46 194/85/37
f 193/234/74 194/88/37 97/87/23 196/235/75
f 180/89/29 96/243/76 106/242/76 179/90/29
f 153/292/62 117/293/99 118/294/100 143/295/101
f 143/295/101 118/294/100 111/96/51 136/95/50
f 142/283/93 116/282/92 117/293/99 153/292/62
f 154/267/86 113/266/85 114/296/102 155/297/103
f 109/298/70 153/299/62 143/300/101 145/301/69
f 145/301/69 143/300/101 136/104/50 146/103/16
f 110/302/79 142/303/93 153/299/62 109/298/70
f 151/304/104 154/305/86 155/306/103 108/307/105
f 175/308/89 156/309/84 154/305/86 151/304/104
f 140/310/83 141/311/82 121/312/77 131/313/78
f 141/311/82 158/314/67 121/315/77
f 162/316/81 125/317/65 159/318/68
f 123/319/70 122/320/79 132/321/59 133/322/62
f 152/323/96 144/324/90 142/303/93 110/302/79
f 120/273/76 130/272/76 131/325/78 121/326/77
f 172/327/71 170/328/75 129/132/23 173/131/17
f 108/307/105 155/306/103 144/324/90 152/323/96
f 166/329/73 167/278/74 170/279/75 169/330/61
f 124/136/46 164/331/94 172/332/71 173/137/17
f 126/333/63 160/334/66 161/335/60 132/336/59
f 165/337/72 166/329/73 169/330/61 161/338/60
f 164/331/94 123/319/70 133/322/62 172/332/71
f 128/339/64 158/340/67 159/341/68 125/342/65
f 126/333/63 128/339/64 125/342/65 160/334/66
f 132/336/59 161/335/60 169/343/61 133/344/62
f 122/320/79 171/345/96 126/346/63 132/321/59
f 133/344/62 169/343/61 170/328/75 172/327/71
f 163/347/87 127/348/88 158/349/67 128/350/64
f 158/314/67 141/311/82 157/351/106
f 158/314/67 127/352/88 121/315/77
f 119/353/107 159/354/68 158/355/67 157/351/106
f 159/356/68 131/357/78 162/358/81
f 159/356/68 119/353/107 131/357/78
f 140/310/83 131/357/78 119/353/107
f 157/351/106 141/311/82 140/310/83 119/353/107
f 162/359/81 108/360/105 152/361/96 177/362/97
f 177/362/97 152/361/96 110/363/79 165/364/72
f 130/276/76 175/275/89 151/365/104 131/366/78
f 155/297/103 114/296/102 115/281/91 144/280/90
f 135/174/35 156/309/84 175/308/89 176/175/35
f 166/367/73 109/368/70 145/369/69 167/370/74
f 131/366/78 151/365/104 108/360/105 162/359/81
f 167/370/74 145/369/69 146/181/16 168/180/37
f 165/364/72 110/363/79 109/368/70 166/367/73
f 177/371/97 165/337/72 161/338/60 160/372/66
f 162/316/81 177/371/97 160/372/66 125/317/65
f 134/373/95 163/347/87 128/350/64 126/346/63 171/345/96
f 104/374/79 103/375/70 150/376/99 148/377/92
f 150/376/99 103/375/70 189/378/69 174/379/108
f 99/380/105 178/381/96 149/382/91 197/383/102
f 93/219/62 195/218/61 196/241/75 198/240/71
f 178/384/96 99/385/105 98/386/64 100/387/63
f 184/253/67 182/252/82 183/388/106
f 184/253/67 99/389/105 105/254/77
f 107/390/107 185/391/68 184/392/67 183/388/106
f 185/393/68 95/394/78 188/395/80
f 185/393/68 107/390/107 95/394/78
f 181/255/83 95/394/78 107/390/107
f 183/388/106 182/252/82 181/255/83 107/390/107
f 204/396/85 105/397/77 99/380/105 197/383/102
f 174/379/108 189/378/69 102/204/16 147/203/51
f 87/192/44 7/191/5 5/398/8 6/399/55
f 201/400/97 191/230/72 187/233/60 186/401/66
f 190/249/81 200/402/98 201/400/97 186/401/66 101/250/65
f 149/382/91 178/381/96 104/374/79 148/377/92
f 106/403/76 105/397/77 204/396/85 203/404/76
f 179/405/29 106/403/76 203/404/76 202/406/29
f 6/399/55 5/398/8 75/407/10
f 122/259/79 191/258/72 201/290/97 171/289/96
f 99/385/105 184/408/67 98/386/64
f 104/246/79 178/384/96 100/387/63 94/247/59
