# Blender v2.78 (sub 0) OBJ File: 'Drainpipes.blend'
# www.blender.org
mtllib DrainpipeHorizontal1.mtl
g DrainpipeHorizontal1
v -1.225039 -0.051286 0.079746
v -1.225039 -0.051286 -0.043998
v 0.000000 -0.051286 0.079746
v 0.000000 0.028048 0.077748
v 0.000000 -0.051286 -0.043998
v -1.231417 0.028048 0.077748
v -1.231417 0.028048 -0.102184
v 0.000000 0.028048 -0.102184
v -1.250000 0.010408 0.109016
v 0.000000 0.010408 0.109016
v 0.000000 0.010408 -0.108110
v -1.250000 0.010408 -0.108110
v -1.240237 0.010408 -0.094050
v 0.000000 0.010408 -0.094050
v 0.000000 0.010408 0.094956
v -1.240237 0.010408 0.094956
v -1.240237 -0.041774 -0.059208
v -1.240237 -0.041774 0.094956
v 0.000000 -0.041774 -0.059208
v 0.000000 -0.041774 0.094956
v 0.000000 0.028048 0.096345
v 0.000000 0.028048 -0.120781
v -1.250000 0.028048 -0.120781
v -1.250000 0.028048 0.096345
v 0.000000 0.016148 0.077748
v 0.000000 0.016148 -0.102184
v -1.231417 0.016148 -0.102184
v -1.231417 0.016148 0.077748
vt 0.7340 0.4261
vt 0.8186 0.4261
vt 0.8030 0.4495
vt 0.7340 0.4495
vt 0.0004 0.8586
vt 0.5444 0.8587
vt 0.5444 0.8862
vt 0.0004 0.8862
vt 0.5426 0.9996
vt 0.0004 0.9996
vt 0.0004 0.9767
vt 0.5426 0.9767
vt 0.0004 0.8013
vt 0.0005 0.7459
vt 0.5489 0.7461
vt 0.5489 0.8015
vt 0.5282 0.7359
vt 0.0018 0.7359
vt 0.0018 0.7267
vt 0.5282 0.7267
vt 0.0004 0.6055
vt 0.5281 0.6055
vt 0.5281 0.6147
vt 0.0004 0.6147
vt 0.6264 0.7365
vt 0.5292 0.7365
vt 0.5348 0.7286
vt 0.6320 0.7286
vt 0.0046 0.5964
vt 0.5282 0.5964
vt 0.5283 0.7450
vt 0.0081 0.7450
vt 0.6201 0.7409
vt 0.5355 0.7409
vt 0.7962 0.4575
vt 0.7408 0.4575
vt 0.5444 0.8955
vt 0.0084 0.8955
vt 0.0071 0.9674
vt 0.5426 0.9674
vt 0.6237 0.7203
vt 0.5432 0.7203
vt 0.5432 0.7150
vt 0.6237 0.7150
vt 0.0096 0.7177
vt 0.5283 0.7177
vt 0.5281 0.6238
vt 0.0095 0.6238
vt 0.5282 0.6328
vt 0.5282 0.7086
vt 0.0096 0.7086
vt 0.0096 0.6328
vn -1.0000 0.0000 0.0000
vn 0.0000 -0.5553 -0.8317
vn 0.0000 0.0000 1.0000
vn 0.0000 -1.0000 0.0000
vn 0.0000 -0.5834 -0.8122
vn 0.0000 0.5834 0.8122
vn -0.5305 -0.8477 0.0000
vn 0.0000 -0.8479 -0.5302
vn 0.0000 -0.8479 0.5302
vn 1.0000 0.0000 0.0000
vn 0.0000 1.0000 0.0000
vn 0.0000 0.0000 -1.0000
usemtl Drainpipe
s off
f 16/1/1 13/2/1 17/3/1 18/4/1
f 13/5/2 14/6/2 19/7/2 17/8/2
f 15/9/3 16/10/3 18/11/3 20/12/3
f 1/13/4 2/14/4 5/15/4 3/16/4
f 11/17/5 12/18/5 23/19/5 22/20/5
f 9/21/6 10/22/6 21/23/6 24/24/6
f 12/25/1 9/26/1 24/27/1 23/28/1
f 16/29/4 15/30/4 10/22/4 9/21/4
f 14/31/4 13/32/4 12/18/4 11/17/4
f 13/33/4 16/34/4 9/26/4 12/25/4
f 2/35/7 1/36/7 18/4/7 17/3/7
f 5/37/8 2/38/8 17/8/8 19/7/8
f 1/39/9 3/40/9 20/12/9 18/11/9
f 7/41/10 6/42/10 28/43/10 27/44/10
f 7/45/11 8/46/11 22/20/11 23/19/11
f 6/42/11 7/41/11 23/28/11 24/27/11
f 4/47/11 6/48/11 24/24/11 21/23/11
f 25/49/11 26/50/11 27/51/11 28/52/11
f 6/48/12 4/47/12 25/49/12 28/52/12
f 8/46/3 7/45/3 27/51/3 26/50/3
