# Blender v2.78 (sub 0) OBJ File: 'Drainpipes.blend'
# www.blender.org
mtllib DrainpipeTop.mtl
g DrainpipeTop_DrainpipeTop.001
v 0.000000 -0.000000 0.082027
v 0.000000 -0.000000 -0.102703
v 0.000000 0.314024 -0.148701
v 0.072678 -0.000000 -0.072599
v 0.108069 0.314024 -0.103938
v -0.102782 -0.000000 0.000910
v -0.072678 -0.000000 -0.072599
v 0.000000 0.164499 -0.149401
v 0.105698 0.164499 -0.105620
v 0.149480 0.164499 0.001298
v -0.149480 0.164499 0.000910
v -0.105698 0.164499 -0.105620
v 0.072678 0.022634 -0.072599
v 0.102782 0.022634 0.001298
v -0.102782 0.022634 0.000910
v -0.072678 0.022634 -0.072599
v 0.000000 0.022634 -0.102703
v 0.161712 0.210844 0.002275
v -0.114348 0.210844 -0.113327
v 0.113353 0.201853 -0.112333
v 0.160306 0.201853 0.002275
v -0.160306 0.201853 0.001877
v 0.000000 0.201853 -0.159285
v 0.000000 0.301063 -0.182119
v 0.131577 0.301063 -0.127618
v 0.186078 0.301063 0.001298
v -0.186078 0.301063 0.000910
v -0.122274 0.301343 -0.122195
v 0.000000 0.301343 -0.172843
v 0.000000 0.088201 -0.126145
v 0.089254 0.088201 -0.089175
v 0.126224 0.088201 0.001298
v -0.126224 0.088201 0.000910
v -0.089254 0.088201 -0.089175
v 0.077432 0.050921 -0.077354
v 0.109506 0.050921 0.001298
v -0.109506 0.050921 0.000910
v -0.077432 0.050921 -0.077354
v 0.000000 0.050921 -0.109427
v 0.000000 0.122295 -0.137857
v 0.097535 0.122295 -0.097456
v 0.137936 0.122295 0.001298
v -0.137936 0.122295 0.000910
v -0.097535 0.122295 -0.097456
v 0.108526 0.201980 -0.108448
v -0.153479 0.201980 0.000910
v -0.109473 0.210717 -0.109394
v 0.000000 0.314024 0.081640
v 0.186078 0.314024 0.082027
v -0.102782 -0.000000 0.081640
v 0.149480 0.164499 0.082027
v -0.149480 0.164499 0.081640
v 0.102782 0.022634 0.082027
v -0.102782 0.022634 0.081640
v 0.161712 0.210844 0.082027
v -0.161712 0.210844 0.081640
v 0.160306 0.201853 0.082027
v 0.186078 0.301063 0.082027
v -0.186078 0.301063 0.081640
v 0.126224 0.088201 0.082027
v -0.126224 0.088201 0.081640
v 0.109506 0.050921 0.082027
v -0.109506 0.050921 0.081640
v 0.137936 0.122295 0.082027
v -0.137936 0.122295 0.081640
v -0.153479 0.201980 0.081640
v 0.154818 0.210717 0.082027
v 0.102782 -0.000000 0.001298
v 0.155204 0.314024 0.007556
v -0.108087 0.314024 -0.103930
v -0.155204 0.314024 0.007186
v -0.161712 0.210844 0.001877
v 0.000000 0.210844 -0.160691
v 0.114348 0.210844 -0.113327
v -0.113353 0.201853 -0.112332
v -0.131577 0.301063 -0.127618
v 0.122274 0.301343 -0.122195
v 0.172922 0.301343 0.001298
v -0.172922 0.301343 0.000910
v -0.108526 0.201980 -0.108447
v 0.000000 0.201980 -0.153401
v 0.153479 0.201980 0.001298
v 0.000000 0.210717 -0.154740
v 0.109473 0.210717 -0.109394
v 0.154818 0.210717 0.001298
v -0.154818 0.210717 0.000910
v 0.102782 -0.000000 0.082027
v -0.172922 0.301343 0.081640
v -0.154818 0.210717 0.081640
v 0.172922 0.301343 0.082027
v -0.186078 0.314024 0.081640
v 0.153479 0.201980 0.082027
v -0.160306 0.201853 0.081640
v -0.131577 0.314024 -0.127618
v -0.186078 0.314024 0.000910
v 0.000000 0.314024 -0.182119
v 0.186078 0.314024 0.001298
v 0.131577 0.314024 -0.127618
v 0.000032 0.314024 0.050766
v -0.155204 0.314024 0.050766
v 0.155204 0.314024 0.051089
v 0.000032 0.245727 0.050766
v 0.000000 0.245727 -0.148701
v 0.108069 0.245727 -0.103938
v -0.155204 0.245727 0.050766
v 0.155204 0.245727 0.051089
v -0.108087 0.245727 -0.103930
v -0.155204 0.245727 0.007186
v 0.155204 0.245727 0.007556
vt 0.4847 0.5131
vt 0.4780 0.4950
vt 0.5265 0.4822
vt 0.5297 0.5010
vt 0.5756 0.4779
vt 0.5755 0.4970
vt 0.6214 0.5011
vt 0.6247 0.4822
vt 0.6731 0.4956
vt 0.6663 0.5136
vt 0.7379 0.7441
vt 0.7369 0.7416
vt 0.7918 0.7416
vt 0.7905 0.7441
vt 0.4304 0.5567
vt 0.4311 0.5615
vt 0.3684 0.5615
vt 0.3707 0.5561
vt 0.6280 0.6417
vt 0.6218 0.6008
vt 0.6808 0.5964
vt 0.6809 0.6377
vt 0.5756 0.5318
vt 0.5754 0.5130
vt 0.6185 0.5168
vt 0.6152 0.5354
vt 0.6605 0.5285
vt 0.6535 0.5454
vt 0.5358 0.5350
vt 0.5324 0.5167
vt 0.4974 0.5451
vt 0.4905 0.5281
vt 0.5020 0.5576
vt 0.5382 0.5484
vt 0.5757 0.5454
vt 0.6129 0.5488
vt 0.6491 0.5578
vt 0.6113 0.5590
vt 0.6462 0.5675
vt 0.5400 0.5588
vt 0.5757 0.5559
vt 0.4633 0.5897
vt 0.4633 0.5839
vt 0.5258 0.5839
vt 0.5258 0.5897
vt 0.6485 0.3516
vt 0.6485 0.3155
vt 0.6945 0.3518
vt 0.6620 0.2826
vt 0.7730 0.7025
vt 0.7730 0.7084
vt 0.7369 0.7084
vt 0.7369 0.7025
vt 0.7066 0.5077
vt 0.6998 0.5261
vt 0.4511 0.5256
vt 0.4443 0.5072
vt 0.6876 0.5580
vt 0.6832 0.5700
vt 0.6941 0.5411
vt 0.4673 0.5697
vt 0.4630 0.5575
vt 0.4568 0.5407
vt 0.6945 0.2691
vt 0.7271 0.2826
vt 0.5913 0.5897
vt 0.5913 0.5839
vt 0.6551 0.5839
vt 0.6551 0.5897
vt 0.6785 0.4797
vt 0.7123 0.4919
vt 0.9201 0.6958
vt 0.8506 0.6958
vt 0.8506 0.6652
vt 0.9201 0.6652
vt 0.6182 0.6958
vt 0.5987 0.6958
vt 0.5987 0.6652
vt 0.6182 0.6652
vt 0.4311 0.5673
vt 0.3684 0.5673
vt 0.5267 0.5897
vt 0.5267 0.5839
vt 0.5905 0.5839
vt 0.5905 0.5897
vt 0.7776 0.3247
vt 0.7776 0.3306
vt 0.7414 0.3306
vt 0.7414 0.3247
vt 0.7246 0.6958
vt 0.6722 0.6958
vt 0.6722 0.6652
vt 0.7246 0.6652
vt 0.5049 0.5676
vt 0.7369 0.7217
vt 0.7367 0.7177
vt 0.7924 0.7177
vt 0.7922 0.7217
vt 0.7369 0.7318
vt 0.7367 0.7277
vt 0.7921 0.7277
vt 0.7918 0.7318
vt 0.7117 0.5865
vt 0.7119 0.5906
vt 0.6560 0.5906
vt 0.6562 0.5865
vt 0.7367 0.7376
vt 0.7921 0.7376
vt 0.7109 0.5839
vt 0.6578 0.5839
vt 0.7382 0.7342
vt 0.7908 0.7342
vt 0.7385 0.7244
vt 0.7914 0.7244
vt 0.4656 0.5951
vt 0.5252 0.5945
vt 0.5296 0.5935
vt 0.5889 0.5935
vt 0.5929 0.5935
vt 0.6522 0.5935
vt 0.7399 0.6008
vt 0.7338 0.6417
vt 0.7982 0.6141
vt 0.7859 0.6537
vt 0.4728 0.4790
vt 0.5237 0.4657
vt 0.5757 0.4613
vt 0.6276 0.4660
vt 0.7377 0.7351
vt 0.7907 0.7351
vt 0.7111 0.5933
vt 0.6576 0.5933
vt 0.7380 0.7253
vt 0.7911 0.7253
vt 0.7382 0.7150
vt 0.7916 0.7150
vt 0.5759 0.6537
vt 0.5637 0.6141
vt 0.5292 0.6958
vt 0.5292 0.6652
vt 0.7769 0.6958
vt 0.7769 0.6652
vt 0.8311 0.6958
vt 0.8311 0.6652
vt 0.7406 0.3157
vt 0.7406 0.3518
vt 0.6799 0.5793
vt 0.7771 0.3444
vt 0.7776 0.3475
vt 0.7414 0.3475
vt 0.7414 0.3444
vt 0.4706 0.5793
vt 0.7933 0.0004
vt 0.7929 0.0035
vt 0.7572 0.0035
vt 0.7572 0.0004
vt 0.8327 0.6248
vt 0.8205 0.6643
vt 0.7776 0.3364
vt 0.7414 0.3364
vt 0.5414 0.6644
vt 0.5292 0.6248
vt 0.7730 0.6967
vt 0.7369 0.6967
vt 0.7771 0.3403
vt 0.7414 0.3403
vt 0.7776 0.3373
vt 0.7414 0.3373
vt 0.7929 0.0076
vt 0.7572 0.0076
vt 0.7933 0.0107
vt 0.7572 0.0107
vt 0.4385 0.4912
vt 0.6624 0.1834
vt 0.6834 0.2332
vt 0.6729 0.2438
vt 0.6485 0.1862
vt 0.7318 0.2533
vt 0.7318 0.2682
vt 0.7802 0.2332
vt 0.8013 0.1833
vt 0.8151 0.1861
vt 0.7907 0.2438
vt 0.6624 0.1639
vt 0.6485 0.1501
vt 0.7319 0.1640
vt 0.7318 0.1501
vt 0.8013 0.1638
vt 0.8151 0.1500
vt 0.2981 0.4781
vt 0.2286 0.4976
vt 0.2286 0.4781
vt 0.3675 0.4974
vt 0.3675 0.4779
vt 0.2980 0.5674
vt 0.3464 0.5473
vt 0.2496 0.5473
vn -0.9394 -0.2882 -0.1854
vn -0.9652 -0.1805 -0.1890
vn -0.6962 -0.1822 -0.6943
vn -0.6772 -0.2925 -0.6752
vn 0.0000 -0.1821 -0.9833
vn 0.0000 -0.2923 -0.9563
vn 0.6776 -0.2926 -0.6747
vn 0.6966 -0.1822 -0.6939
vn 0.9653 -0.1805 -0.1884
vn 0.9396 -0.2882 -0.1847
vn 0.0000 -0.8401 -0.5424
vn 0.0000 -0.6937 -0.7202
vn 0.5105 -0.6932 -0.5088
vn 0.3846 -0.8402 -0.3822
vn 0.3587 -0.8636 -0.3541
vn 0.5416 -0.6387 -0.5464
vn 0.7255 -0.6723 -0.1473
vn 0.5631 -0.8193 -0.1076
vn -0.4662 0.7532 -0.4639
vn -0.3586 -0.8635 -0.3545
vn 0.0000 -0.8643 -0.5029
vn 0.0000 0.7532 -0.6578
vn 0.0000 -0.3288 -0.9444
vn 0.0000 -0.3637 -0.9315
vn 0.6601 -0.3640 -0.6570
vn 0.6695 -0.3292 -0.6659
vn 0.9157 -0.3594 -0.1799
vn 0.9295 -0.3192 -0.1849
vn -0.6690 -0.3291 -0.6664
vn -0.6597 -0.3639 -0.6576
vn -0.9293 -0.3193 -0.1856
vn -0.9155 -0.3594 -0.1806
vn -0.9740 -0.1157 -0.1946
vn -0.7034 -0.1199 -0.7006
vn 0.0000 -0.1198 -0.9928
vn 0.7041 -0.1200 -0.6999
vn 0.9742 -0.1157 -0.1937
vn 0.5509 -0.6298 -0.5476
vn 0.7318 -0.6663 -0.1433
vn -0.5502 -0.6299 -0.5481
vn 0.0000 -0.6302 -0.7764
vn -0.7255 -0.6722 -0.1477
vn -0.7320 0.6649 -0.1488
vn -0.5463 0.6309 -0.5509
vn -0.5413 -0.6388 -0.5467
vn -0.7062 -0.7079 0.0000
vn -0.7318 -0.6661 -0.1440
vn 0.0000 -1.0000 0.0000
vn -0.5629 -0.8194 -0.1079
vn -0.6258 -0.7800 0.0000
vn -0.6995 -0.7146 0.0000
vn 0.9826 -0.1856 0.0000
vn 0.9556 -0.2945 0.0000
vn -0.9556 -0.2945 0.0000
vn -0.9826 -0.1856 0.0000
vn 0.9468 -0.3216 0.0000
vn 0.9932 -0.1164 0.0000
vn 0.9301 -0.3674 0.0000
vn -0.9932 -0.1164 0.0000
vn -0.9468 -0.3216 0.0000
vn -0.9301 -0.3674 0.0000
vn 0.0000 -0.6395 -0.7688
vn 0.0000 0.6302 -0.7764
vn 0.5466 0.6308 -0.5506
vn 0.5984 -0.7928 -0.1155
vn 0.6615 -0.7499 0.0000
vn 0.0007 0.7069 -0.7073
vn -0.3008 0.9048 -0.3014
vn -0.5768 0.5772 -0.5780
vn 0.0007 0.7073 -0.7069
vn 0.6428 0.7548 0.1306
vn 0.3015 0.9045 -0.3015
vn 0.5773 0.5773 -0.5773
vn 0.7320 0.6649 0.1488
vn 0.7319 0.6650 -0.1484
vn 0.6995 -0.7146 0.0000
vn 0.6258 -0.7800 0.0000
vn 0.0000 0.8042 0.5943
vn 0.4196 0.8031 0.4231
vn 0.5463 0.6309 0.5509
vn 0.0000 0.6302 0.7764
vn -0.6735 -0.7266 -0.1362
vn -0.7739 0.6151 -0.1504
vn -0.5777 0.5776 -0.5766
vn -0.5101 -0.6932 -0.5090
vn 0.0000 0.5782 -0.8159
vn 0.5781 0.5775 -0.5764
vn 0.7739 0.6152 -0.1500
vn 0.6734 -0.7266 -0.1357
vn -0.3845 -0.8401 -0.3825
vn -0.5981 -0.7930 -0.1158
vn 0.4664 0.7534 -0.4635
vn 0.7054 0.6944 -0.1417
vn -0.7052 0.6946 -0.1421
vn -0.4197 0.8032 0.4227
vn -0.5466 0.6308 0.5506
vn -0.6430 0.7547 0.1303
vn -0.7319 0.6650 0.1484
vn 0.7071 -0.7071 0.0000
vn 0.7674 0.6412 0.0000
vn 0.7537 0.6572 0.0000
vn -0.7537 0.6572 0.0000
vn -0.7674 0.6412 0.0000
vn 0.7076 0.7066 0.0000
vn -0.7071 0.7071 0.0000
vn 0.6431 -0.7658 0.0000
vn -0.6431 -0.7658 0.0000
vn -0.6615 -0.7499 0.0000
vn 0.0000 1.0000 0.0000
usemtl Drainpipe
s 1
f 43/1/1 11/2/2 12/3/3 44/4/4
f 44/4/4 12/3/3 8/5/5 40/6/6
f 41/7/7 9/8/8 10/9/9 42/10/10
f 40/6/6 8/5/5 9/8/8 41/7/7
f 81/11/11 23/12/12 20/13/13 45/14/14
f 77/15/15 25/16/16 26/17/17 78/18/18
f 47/19/19 28/20/20 29/21/21 83/22/22
f 39/23/23 30/24/24 31/25/25 35/26/26
f 35/26/26 31/25/25 32/27/27 36/28/28
f 38/29/29 34/30/30 30/24/24 39/23/23
f 37/31/31 33/32/32 34/30/30 38/29/29
f 15/33/33 37/31/31 38/29/29 16/34/34
f 16/34/34 38/29/29 39/23/23 17/35/35
f 13/36/36 35/26/26 36/28/28 14/37/37
f 17/35/35 39/23/23 35/26/26 13/36/36
f 30/24/24 40/6/6 41/7/7 31/25/25
f 31/25/25 41/7/7 42/10/10 32/27/27
f 34/30/30 44/4/4 40/6/6 30/24/24
f 33/32/32 43/1/1 44/4/4 34/30/30
f 4/38/38 13/36/36 14/37/37 68/39/39
f 7/40/40 16/34/34 17/35/35 2/41/41
f 27/42/42 95/43/43 94/44/44 76/45/45
f 2/41/41 17/35/35 13/36/36 4/38/38
f 50/46/46 6/47/47 1/48/48
f 6/47/47 7/49/40 1/48/48
f 27/50/42 79/51/49 88/52/50 59/53/51
f 42/10/10 10/9/9 51/54/52 64/55/53
f 11/2/2 43/1/1 65/56/54 52/57/55
f 14/37/37 36/28/28 62/58/56 53/59/57
f 36/28/28 32/27/27 60/60/58 62/58/56
f 37/31/31 15/33/33 54/61/59 63/62/60
f 33/32/32 37/31/31 63/62/60 61/63/61
f 2/64/41 4/65/38 1/48/48
f 24/66/62 96/67/63 98/68/64 25/69/16
f 10/9/9 82/70/65 92/71/66 51/54/52
f 32/27/27 42/10/10 64/55/53 60/60/58
f 99/72/67 101/73/68 106/74/69 102/75/70
f 71/76/71 100/77/72 105/78/73 108/79/74
f 7/49/40 2/64/41 1/48/48
f 43/1/1 33/32/32 61/63/61 65/56/54
f 25/16/16 98/80/64 97/81/75 26/17/17
f 76/82/45 94/83/44 96/84/63 24/85/62
f 78/86/18 26/87/17 58/88/76 90/89/77
f 3/90/78 70/91/79 107/92/80 103/93/81
f 6/94/47 15/33/33 16/34/34 7/40/40
f 22/95/82 72/96/83 19/97/84 75/98/85
f 75/99/85 19/100/84 73/101/86 23/102/12
f 20/103/13 74/104/87 18/105/88 21/106/89
f 23/12/12 73/107/86 74/108/87 20/13/13
f 45/109/14 20/103/13 21/106/89 82/110/65
f 80/111/90 75/99/85 23/102/12 81/112/11
f 46/113/91 22/95/82 75/98/85 80/114/90
f 79/115/49 27/42/42 76/45/45 28/116/20
f 28/117/20 76/82/45 24/85/62 29/118/21
f 29/119/21 24/66/62 25/69/16 77/120/15
f 83/22/22 29/21/21 77/121/15 84/122/92
f 84/122/92 77/121/15 78/123/18 85/124/93
f 11/2/2 46/125/91 80/126/90 12/3/3
f 12/3/3 80/126/90 81/127/11 8/5/5
f 9/8/8 45/128/14 82/70/65 10/9/9
f 8/5/5 81/127/11 45/128/14 9/8/8
f 73/107/86 83/129/22 84/130/92 74/108/87
f 74/104/87 84/131/92 85/132/93 18/105/88
f 19/100/84 47/133/19 83/134/22 73/101/86
f 72/96/83 86/135/94 47/136/19 19/97/84
f 86/137/94 79/138/49 28/20/20 47/19/19
f 100/77/72 99/139/67 102/140/70 105/78/73
f 5/141/95 3/90/78 103/93/81 104/142/96
f 101/73/68 69/143/97 109/144/98 106/74/69
f 68/145/39 87/146/99 1/48/48
f 4/65/38 68/145/39 1/48/48
f 68/39/39 14/37/37 53/59/57 87/147/99
f 18/148/88 85/149/93 67/150/100 55/151/101
f 15/33/33 6/94/47 50/152/46 54/61/59
f 86/153/94 72/154/83 56/155/102 89/156/103
f 85/124/93 78/123/18 90/157/77 67/158/100
f 26/87/17 97/159/75 49/160/104 58/88/76
f 79/138/49 86/137/94 89/161/103 88/162/50
f 95/163/43 27/50/42 59/53/51 91/164/105
f 21/165/89 18/148/88 55/151/101 57/166/106
f 82/167/65 21/165/89 57/166/106 92/168/66
f 72/154/83 22/169/82 93/170/107 56/155/102
f 22/169/82 46/171/91 66/172/108 93/170/107
f 46/125/91 11/2/2 52/57/55 66/173/108
f 71/174/71 70/175/79 94/176/44 95/177/43
f 70/175/79 3/178/78 96/179/63 94/176/44
f 5/180/95 69/181/97 97/182/75 98/183/64
f 3/178/78 5/180/95 98/183/64 96/179/63
f 100/184/72 71/174/71 95/177/43 91/185/105
f 99/186/67 100/184/72 91/185/105 48/187/109
f 101/188/68 99/186/67 48/187/109 49/189/104
f 69/181/97 101/188/68 49/189/104 97/182/75
f 102/190/70 108/191/74 105/192/73
f 109/193/98 102/190/70 106/194/69
f 103/195/81 102/190/70 104/196/96
f 107/197/80 102/190/70 103/195/81
f 104/196/96 102/190/70 109/193/98
f 108/191/74 102/190/70 107/197/80
f 69/143/97 5/141/95 104/142/96 109/144/98
f 70/91/79 71/76/71 108/79/74 107/92/80
