# Blender v2.74 (sub 0) OBJ File: 'Windows.blend'
# www.blender.org
mtllib Ridge2.mtl
g Ridge2
v -0.082286 -0.058434 0.625000
v -0.082286 0.015198 0.625000
v -0.082286 -0.058434 -0.625000
v -0.082286 0.015198 -0.625000
v 0.009092 -0.058434 0.625000
v 0.009092 0.101669 0.625000
v 0.009092 -0.058434 -0.625000
v 0.009092 0.101669 -0.625000
v -0.012780 0.101178 -0.625000
v -0.012780 -0.058434 -0.625000
v -0.012780 0.101178 0.625000
v -0.012780 -0.058434 0.625000
v -0.012780 -0.058434 -0.625000
v -0.012780 0.015198 0.625000
v -0.012780 0.015198 -0.625000
v -0.012780 -0.058434 0.625000
vt 0.430232 1.000000
vt 0.430232 0.000000
vt 0.558964 0.000000
vt 0.558964 1.000000
vt 0.878481 0.246287
vt 0.916721 0.245894
vt 0.916721 0.373976
vt 0.878481 0.373976
vt 0.000001 1.000000
vt 0.000000 0.000000
vt 0.279911 0.000000
vt 0.279912 1.000000
vt 0.878481 0.000000
vt 1.000000 0.000000
vt 1.000000 0.058906
vt 0.878481 0.058906
vt 0.840241 1.000000
vt 0.840242 0.000000
vt 0.878481 1.000000
vt 0.680483 1.000000
vt 0.680483 0.000000
vt 0.801994 0.000000
vt 0.801994 1.000000
vt 0.878481 0.117811
vt 0.916721 0.118204
vt 0.878481 0.245894
vt 1.000000 0.117811
vn -1.000000 0.000000 0.000000
vn 0.000000 0.000000 -1.000000
vn 1.000000 0.000000 0.000000
vn 0.000000 0.000000 1.000000
vn 0.000000 -1.000000 0.000000
vn 0.000000 1.000000 0.000000
vn -0.022500 0.999700 0.000000
usemtl Ridge2
s off
f 2/1/1 4/2/1 3/3/1 1/4/1
f 9/5/2 8/6/2 7/7/2 10/8/2
f 8/9/3 6/10/3 5/11/3 7/12/3
f 14/13/4 2/14/4 1/15/4 16/16/4
f 12/17/5 10/18/5 7/13/5 5/19/5
f 14/20/6 15/21/6 4/22/6 2/23/6
f 6/23/7 8/22/7 9/18/7 11/17/7
f 16/10/4 13/10/4 10/10/4 12/10/4
f 6/24/4 11/25/4 12/6/4 5/26/4
f 15/10/4 9/10/4 10/10/4 13/10/4
f 4/16/2 15/15/2 13/27/2 3/24/2
f 1/21/5 3/20/5 13/4/5 16/3/5
f 11/12/1 9/11/1 15/2/1 14/1/1
f 11/10/1 14/10/1 16/10/1 12/10/1
