# Blender v2.78 (sub 0) OBJ File: 'Roof.blend'
# www.blender.org
mtllib RoofSegmentCorner1.mtl
g RoofSegmentCorner1
v -0.150625 0.050000 0.617136
v -0.150625 0.050000 -0.632864
v -0.150625 0.000000 -0.632864
v -0.150625 -0.000000 0.617136
v -0.005678 0.050000 -0.632864
v -0.005678 0.000000 -0.632864
v -0.005678 0.050000 0.617136
v -0.005678 -0.000000 0.617136
v 0.707907 1.499999 0.617136
v 0.707907 1.499999 -0.632864
v -0.005678 0.049302 0.617136
v 0.849375 1.499999 0.617136
v -0.005678 0.049302 0.558775
v 0.849375 1.499999 0.558775
v 0.849375 0.049302 0.558775
v 0.849375 1.499999 0.558775
v 0.752506 1.500001 0.617136
v 0.752506 1.500001 -0.632864
vt 0.7292 0.9931
vt 0.7292 0.5412
vt 0.7488 0.5412
vt 0.7488 0.9931
vt 0.7919 0.9929
vt 0.7919 0.9143
vt 0.8115 0.9143
vt 0.8115 0.9929
vt 0.7488 0.9931
vt 0.7488 0.5412
vt 0.7676 0.5412
vt 0.7676 0.9931
vt 0.7919 0.9143
vt 0.7919 0.9929
vt 0.7724 0.9929
vt 0.7724 0.9143
vt 0.7248 0.5412
vt 0.7248 0.9931
vt 0.6008 0.9931
vt 0.6008 0.5412
vt 0.6008 0.5412
vt 0.6008 0.9931
vt 0.4767 0.9931
vt 0.4767 0.5412
vt 0.0000 0.0000
vt 0.0000 0.9520
vt 0.4671 0.9520
vt 0.4671 0.0000
vt 0.9782 1.0000
vt 0.9148 0.9512
vt 0.9165 0.0000
vt 0.9782 0.0480
vt 0.9782 0.0000
vt 1.0000 0.0000
vt 1.0000 0.9512
vt 0.9782 0.9512
vt 0.4671 0.0000
vt 0.9148 0.0000
vt 0.9148 0.7936
vt 0.9148 0.7936
vt 0.0000 0.9671
vt 0.4671 0.9671
vn -1.0000 0.0000 0.0000
vn 0.0000 0.0000 -1.0000
vn 1.0000 0.0000 0.0000
vn 0.0000 0.0000 1.0000
vn 0.0000 -1.0000 -0.0000
vn 0.0000 1.0000 0.0000
vn -0.8605 0.5095 0.0000
vn 0.8615 -0.5078 0.0000
usemtl RoofSegmentCorner1
s off
f 1/1/1 2/2/1 3/3/1 4/4/1
f 2/5/2 5/6/2 6/7/2 3/8/2
f 5/9/3 7/10/3 8/11/3 6/12/3
f 7/13/4 1/14/4 4/15/4 8/16/4
f 4/17/5 3/18/5 6/19/5 8/20/5
f 2/21/6 1/22/6 7/23/6 5/24/6
f 1/25/7 9/26/7 10/27/7 2/28/7
f 1/29/4 11/30/4 12/31/4 9/32/4
f 11/33/8 13/34/8 14/35/8 12/36/8
f 13/37/4 15/38/4 16/39/4 14/40/4
f 9/26/6 17/41/6 18/42/6 10/27/6
