# Blender v2.78 (sub 0) OBJ File: 'Roof.blend'
# www.blender.org
mtllib RoofSegmentCorner2.mtl
g RoofSegmentCorner2
v -0.155980 0.045215 -0.632864
v -0.155980 -0.004785 -0.632864
v -0.155980 -0.004785 0.617136
v -0.155980 0.045216 0.617136
v -0.011033 -0.004785 0.617136
v -0.011033 0.045216 0.617136
v -0.011033 -0.004785 -0.632864
v -0.011033 0.045215 -0.632864
v 0.702551 1.495214 0.617136
v 0.702552 1.495214 -0.632864
v 0.844020 1.495215 -0.632864
v -0.011033 0.044517 -0.632864
v 0.844020 1.495215 -0.574503
v -0.011033 0.044517 -0.574503
v 0.844020 1.495215 -0.574503
v 0.844020 0.044517 -0.574503
v 0.747151 1.495218 0.617136
v 0.747151 1.495217 -0.632864
vt 0.4527 0.9380
vt 0.4527 0.9171
vt 0.8562 0.9171
vt 0.8562 0.9380
vt 0.4841 0.8825
vt 0.4621 0.8825
vt 0.4621 0.7936
vt 0.4841 0.7936
vt 0.9795 0.5470
vt 0.9611 0.5470
vt 0.9611 0.0000
vt 0.9795 0.0000
vt 0.4401 0.7936
vt 0.4621 0.7936
vt 0.4621 0.8825
vt 0.4401 0.8825
vt 0.9217 0.0000
vt 0.9217 0.5470
vt 0.4527 0.9831
vt 0.8562 0.9831
vt 0.4401 0.0228
vt 0.0000 0.0228
vt 0.0000 0.9748
vt 0.4401 0.9748
vt 0.9217 0.0000
vt 0.9217 0.9520
vt 0.8635 1.0000
vt 0.8619 0.0488
vt 1.0000 0.0000
vt 1.0000 0.9512
vt 0.9795 0.9512
vt 0.9795 0.0000
vt 0.8619 0.0000
vt 0.4401 0.7936
vt 0.4401 0.7936
vt 0.4401 0.0000
vt 0.0000 0.9899
vt 0.4401 0.9899
vn -1.0000 0.0000 -0.0000
vn 0.0000 0.0000 1.0000
vn 1.0000 0.0000 0.0000
vn 0.0000 0.0000 -1.0000
vn 0.0000 -1.0000 0.0000
vn 0.0000 1.0000 -0.0000
vn -0.8605 0.5095 -0.0000
vn 0.8615 -0.5078 0.0000
vn -0.0001 1.0000 -0.0000
usemtl RoofSegmentCorner2
s off
f 1/1/1 2/2/1 3/3/1 4/4/1
f 4/5/2 3/6/2 5/7/2 6/8/2
f 6/9/3 5/10/3 7/11/3 8/12/3
f 2/13/4 1/14/4 8/15/4 7/16/4
f 2/17/5 7/11/5 5/10/5 3/18/5
f 8/19/6 1/1/6 4/4/6 6/20/6
f 1/21/7 4/22/7 9/23/7 10/24/7
f 1/25/4 10/26/4 11/27/4 12/28/4
f 12/29/8 11/30/8 13/31/8 14/32/8
f 14/33/4 13/34/4 15/35/4 16/36/4
f 10/24/9 9/23/9 17/37/9 18/38/9
