# Blender v2.78 (sub 0) OBJ File: 'Roofholder.blend'
# www.blender.org
mtllib Roofholder.mtl
g RoofHolder
v 0.002495 0.000000 -0.005305
v 0.002495 0.000000 0.003488
v 0.000000 0.000000 0.016078
v 0.000000 0.000000 -0.016078
v 0.002495 0.180596 -0.020091
v 0.002495 0.180596 0.020091
v 0.002495 0.258716 -0.020091
v 0.002495 0.258716 0.020091
v 0.000000 0.258716 -0.030726
v -0.000000 0.258716 0.030726
v 0.002495 0.258716 -0.030726
v 0.002495 0.258716 0.030726
v 0.031767 0.258716 -0.020091
v 0.031767 0.258716 0.020091
v 0.002495 0.051047 0.004602
v 0.002495 0.051047 -0.005305
v 0.002495 0.000000 -0.016078
v 0.002495 0.000000 0.016078
v 0.002495 0.063216 0.019657
v 0.002495 0.063216 -0.019657
v 0.006383 0.000000 -0.005305
v 0.006383 0.000000 0.003488
v 0.008436 0.012332 0.002725
v 0.008436 0.012332 -0.005305
v 0.005466 0.031689 -0.005305
v 0.005466 0.031689 0.003663
vt 0.3526 0.0001
vt 0.5117 0.0001
vt 0.5117 0.3304
vt 0.3526 0.3304
vt 0.6202 0.2897
vt 0.2441 0.2897
vt 0.0468 0.7236
vt 0.0501 0.9995
vt 0.0125 0.9999
vt 0.2073 0.0113
vt 0.2439 0.9994
vt 0.2315 0.9999
vt 0.2059 0.2870
vt 0.1964 0.0117
vt 0.2969 0.4006
vt 0.3239 0.3504
vt 0.2996 0.4711
vt 0.1100 0.0114
vt 0.1051 0.2356
vt 0.0429 0.2871
vt 0.0543 0.0111
vt 0.1468 0.2358
vt 0.1488 0.0115
vt 0.0543 0.0001
vt 0.1965 0.0007
vt 0.2619 0.3306
vt 0.3052 0.3306
vt 0.3052 0.3497
vt 0.2619 0.3497
vt 0.2700 0.3997
vt 0.2441 0.3501
vt 0.1991 0.7235
vt 0.1939 0.9992
vt 0.0434 0.0107
vt 0.0001 0.9993
vt 0.2648 0.4714
vt 0.2590 0.5504
vt 0.3027 0.5506
vn 0.9364 -0.3509 0.0000
vn 0.0000 0.0000 -1.0000
vn -0.0000 0.0000 1.0000
vn 1.0000 0.0000 0.0000
vn 0.0000 -0.0565 -0.9984
vn 0.0000 -1.0000 0.0000
vn 0.0000 0.0617 0.9981
vn 0.9864 -0.1643 0.0000
vn -0.0000 -0.0565 0.9984
vn 0.9884 0.1517 0.0000
vn 0.1711 -0.0215 0.9850
usemtl RoofHolder
s off
f 6/1/1 5/2/1 13/3/1 14/4/1
f 5/2/2 7/5/2 13/3/2
f 8/6/3 6/1/3 14/4/3
f 6/7/4 8/8/4 12/9/4
f 4/10/5 9/11/5 11/12/5 20/13/5
f 4/10/5 20/13/5 17/14/5
f 24/15/2 1/16/2 25/17/2
f 2/18/4 15/19/4 19/20/4 18/21/4
f 16/22/4 1/23/4 17/14/4 20/13/4
f 15/19/4 16/22/4 20/13/4 19/20/4
f 3/24/6 4/25/6 1/23/6 2/18/6
f 2/26/6 1/27/6 21/28/6 22/29/6
f 22/29/7 23/30/7 2/31/7
f 4/25/6 17/14/6 1/23/6
f 18/21/6 3/24/6 2/18/6
f 24/15/8 23/30/8 22/29/8 21/28/8
f 5/32/4 6/7/4 19/20/4 20/13/4
f 5/32/4 20/13/4 11/12/4
f 7/33/4 5/32/4 11/12/4
f 3/34/9 19/20/9 12/9/9 10/35/9
f 3/34/9 18/21/9 19/20/9
f 19/20/4 6/7/4 12/9/4
f 26/36/10 23/30/10 24/15/10 25/17/10
f 15/37/10 26/36/10 25/17/10 16/38/10
f 21/28/2 1/16/2 24/15/2
f 1/16/2 16/38/2 25/17/2
f 26/36/11 2/31/11 23/30/11
f 2/31/11 26/36/11 15/37/11
