# Blender v2.78 (sub 0) OBJ File: 'Roof.blend'
# www.blender.org
mtllib RoofCorner3.mtl
g RoofCorner3
v 2.121915 1.499999 0.370532
v -0.153589 1.500000 0.269082
v -0.153589 1.499999 1.640643
v 2.121915 1.499999 1.640643
v -0.152779 0.050000 -1.880462
v -0.152779 0.000000 -1.880462
v -0.152779 0.000000 -0.630463
v -0.152779 0.050000 -0.630463
v 0.020287 0.000000 -0.630463
v 0.020287 0.050000 -0.630463
v 0.011302 0.000494 -1.880462
v 0.011302 0.050494 -1.880462
v 0.705753 1.500000 -0.630462
v 0.705753 1.500000 -1.880461
v 0.750352 1.500000 -0.630462
v 0.750352 1.500000 -1.880461
v -1.403589 0.050000 -0.630463
v -1.403589 0.000066 -0.630463
v -1.403589 0.000000 -0.469969
v -1.403589 0.050000 -0.424775
v -0.153589 0.000000 -0.456586
v -0.153589 0.050000 -0.456586
v -1.403589 1.500000 0.228070
v -0.153589 1.500000 0.228070
v 2.121915 1.500000 -0.630462
v 2.121915 1.500000 -1.880462
v -1.403589 1.500000 0.269082
v -1.403589 1.500000 1.640644
vt 0.3525 0.0029
vt 0.3525 0.3827
vt 0.5045 0.3827
vt 0.5045 0.0029
vt 0.9057 0.3509
vt 0.9149 0.3509
vt 0.9149 0.0051
vt 0.9057 0.0051
vt 0.0756 0.1395
vt 0.0849 0.1395
vt 0.0849 0.1094
vt 0.0756 0.1094
vt 0.9880 0.3517
vt 0.9974 0.3517
vt 0.9974 0.0059
vt 0.9880 0.0059
vt 0.0849 0.1395
vt 0.0943 0.1395
vt 0.0943 0.1094
vt 0.0849 0.1094
vt 0.9880 0.0059
vt 0.9555 0.0059
vt 0.9555 0.3517
vt 0.9880 0.3517
vt 0.9189 0.3508
vt 0.9514 0.3508
vt 0.9514 0.0050
vt 0.9189 0.0050
vt 0.0021 0.4990
vt 0.3349 0.4990
vt 0.3349 0.9980
vt 0.0021 0.9980
vt 0.1003 0.2338
vt 0.2372 0.2338
vt 0.2372 0.2237
vt 0.1003 0.2237
vt 0.0849 0.1094
vt 0.0941 0.1094
vt 0.0941 0.0613
vt 0.0849 0.0613
vt 0.0569 0.2774
vt 0.0662 0.2774
vt 0.0662 0.0613
vt 0.0569 0.0613
vt 0.0662 0.2774
vt 0.0756 0.2774
vt 0.0756 0.0613
vt 0.0662 0.0613
vt 0.0756 0.1094
vt 0.0849 0.1094
vt 0.0849 0.0613
vt 0.0756 0.0613
vt 0.0569 0.0613
vt 0.0049 0.0613
vt 0.0049 0.2774
vt 0.0569 0.2774
vt 0.8686 0.3553
vt 0.9006 0.3553
vt 0.9006 0.0041
vt 0.8686 0.0041
vt 0.6456 0.4990
vt 0.9786 0.4990
vt 0.9786 0.9980
vt 0.6459 0.9980
vt 0.5518 0.4983
vt 0.3350 0.9980
vt 0.6452 0.9984
vt 0.2410 0.0029
vt 0.2410 0.2156
vt 0.1017 0.0029
vt 0.1017 0.2156
vt 0.3406 0.3880
vt 0.3406 0.5971
vt 0.3460 0.5971
vt 0.3468 0.3880
vt 0.3516 0.5954
vt 0.5045 0.5954
vn 0.0000 1.0000 0.0000
vn -1.0000 0.0000 0.0000
vn 0.0000 0.0000 1.0000
vn 1.0000 0.0000 -0.0072
vn 0.0000 0.0000 -1.0000
vn 0.0015 -1.0000 -0.0002
vn -0.0015 1.0000 0.0002
vn -0.8605 0.5095 0.0000
vn 0.0067 -0.4118 0.9112
vn 1.0000 0.0000 0.0047
vn -0.0000 -1.0000 -0.0002
vn 0.0000 0.5095 -0.8605
vn -0.6520 0.3860 -0.6526
usemtl RoofCorner3
s off
f 1/1/1 2/2/1 3/3/1 4/4/1
f 5/5/2 6/6/2 7/7/2 8/8/2
f 8/9/3 7/10/3 9/11/3 10/12/3
f 10/13/4 9/14/4 11/15/4 12/16/4
f 12/17/5 11/18/5 6/19/5 5/20/5
f 6/21/6 11/22/6 9/23/6 7/24/6
f 12/25/7 5/26/7 8/27/7 10/28/7
f 5/29/8 8/30/8 13/31/8 14/32/8
f 14/33/1 13/34/1 15/35/1 16/36/1
f 17/37/2 18/38/2 19/39/2 20/40/2
f 20/41/9 19/42/9 21/43/9 22/44/9
f 8/45/5 7/46/5 18/47/5 17/48/5
f 22/49/10 21/50/10 7/51/10 8/52/10
f 7/53/11 21/54/11 19/55/11 18/56/11
f 22/57/1 8/58/1 17/59/1 20/60/1
f 8/61/12 17/62/12 23/63/12 24/64/12
f 8/65/13 24/66/13 13/67/13
f 2/2/1 1/1/1 25/68/1 15/69/1
f 26/70/1 16/71/1 15/69/1 25/68/1
f 24/72/1 23/73/1 27/74/1 2/75/1
f 13/34/1 24/72/1 2/75/1 15/35/1
f 2/2/1 27/76/1 28/77/1 3/3/1
