# Blender v2.78 (sub 0) OBJ File: 'Windows.blend'
# www.blender.org
mtllib Window5.mtl
g Window5
v -0.045359 2.607985 0.970832
v -0.045359 2.476859 0.970832
v -0.045359 0.717198 -1.004915
v -0.045359 0.870635 -1.004915
v 0.028847 2.476859 -0.916176
v 0.028847 0.867410 -0.916176
v 0.028847 2.476859 -0.305392
v 0.028847 0.867410 -0.305392
v 0.028847 1.939301 -0.916176
v 0.028847 1.403355 -0.916176
v 0.028847 1.939301 -0.305392
v 0.028847 2.437264 -0.343375
v 0.028847 2.437264 -0.878193
v 0.028847 1.977284 -0.878193
v 0.028847 1.977284 -0.343375
v 0.028847 1.939301 0.305392
v 0.028847 1.939301 0.916176
v 0.028847 2.437264 0.878193
v 0.028847 2.437264 0.343375
v 0.028847 1.977284 0.343375
v 0.028847 1.977284 0.878193
v 0.055195 2.437264 0.343375
v 0.055195 2.437264 0.878193
v 0.055195 1.977284 0.878193
v 0.055195 1.977284 0.343375
v 0.028847 2.476859 0.305392
v 0.028847 2.476859 0.916176
v 0.055195 1.977284 -0.267409
v 0.055195 1.977284 0.267409
v 0.055195 2.437264 0.267409
v 0.055195 2.437264 -0.267409
v 0.028847 1.977284 0.267409
v 0.028847 1.977284 -0.267409
v 0.055195 2.437264 -0.878193
v 0.055195 2.437264 -0.343375
v 0.055195 1.977284 -0.343375
v 0.055195 1.977284 -0.878193
v 0.028847 2.437264 -0.267409
v 0.028847 2.437264 0.267409
v 0.000000 0.867410 -0.916176
v 0.000000 0.717198 -1.004915
v 0.000000 2.476859 0.916175
v 0.000000 2.607985 0.970832
v 0.000000 0.717198 1.004914
v 0.000000 0.867410 0.916175
v 0.000000 3.000000 1.250000
v 0.000000 3.000000 -1.250000
v 0.000000 2.607985 -0.970833
v 0.000000 0.000000 -1.250000
v 0.000000 0.000000 1.250000
v 0.000000 2.476859 -0.916176
v -0.045359 0.717198 1.004914
v -0.045359 0.870635 1.004914
v -0.045359 2.607985 -0.970833
v -0.045359 2.476859 -0.970833
v 0.000000 0.870635 -1.004915
v 0.000000 2.476859 0.970832
v 0.000000 0.870635 1.004914
v 0.000000 2.476859 -0.970833
v 0.028847 1.901318 -0.343375
v 0.028847 1.901318 -0.878193
v 0.028847 1.441338 -0.878193
v 0.028847 1.441338 -0.343375
v 0.028847 1.403355 0.916176
v 0.028847 1.901318 0.878193
v 0.028847 1.901318 0.343375
v 0.028847 1.441338 0.343375
v 0.028847 1.441338 0.878193
v 0.055195 1.901318 0.343375
v 0.055195 1.901318 0.878193
v 0.055195 1.441338 0.878193
v 0.055195 1.441338 0.343375
v 0.055195 1.441338 -0.267409
v 0.055195 1.441338 0.267409
v 0.055195 1.901318 0.267409
v 0.055195 1.901318 -0.267409
v 0.028847 1.441338 0.267409
v 0.028847 1.441338 -0.267409
v 0.055195 1.901318 -0.878193
v 0.055195 1.901318 -0.343375
v 0.055195 1.441338 -0.343375
v 0.055195 1.441338 -0.878193
v 0.028847 1.901318 -0.267409
v 0.028847 1.901318 0.267409
v 0.028847 1.403355 -0.305392
v 0.028847 1.365373 -0.343375
v 0.028847 1.365373 -0.878193
v 0.028847 0.905392 -0.878193
v 0.028847 0.905392 -0.343375
v 0.028847 0.867410 0.305392
v 0.028847 0.867410 0.916176
v 0.028847 1.365373 0.878193
v 0.028847 1.365373 0.343375
v 0.028847 0.905392 0.343375
v 0.028847 0.905392 0.878193
v 0.055195 1.365373 0.343375
v 0.055195 1.365373 0.878193
v 0.055195 0.905392 0.878193
v 0.055195 0.905392 0.343375
v 0.028847 1.403355 0.305392
v 0.055195 0.905392 -0.267409
v 0.055195 0.905392 0.267409
v 0.055195 1.365373 0.267409
v 0.055195 1.365373 -0.267409
v 0.028847 0.905392 0.267409
v 0.028847 0.905392 -0.267409
v 0.055195 1.365373 -0.878193
v 0.055195 1.365373 -0.343375
v 0.055195 0.905392 -0.343375
v 0.055195 0.905392 -0.878193
v 0.028847 1.365373 -0.267409
v 0.028847 1.365373 0.267409
vt 0.1457 0.8213
vt 0.0657 0.8213
vt 0.0657 0.8132
vt 0.1457 0.8132
vt 0.1514 0.8334
vt 0.0600 0.8334
vt 0.0561 0.8253
vt 0.0561 0.6612
vt 0.0618 0.6728
vt 0.0618 0.8132
vt 0.0600 0.6532
vt 0.1514 0.6532
vt 0.1457 0.6648
vt 0.0657 0.6648
vt 0.1553 0.6612
vt 0.1553 0.8253
vt 0.1497 0.8132
vt 0.1497 0.6728
vt 0.2470 0.8180
vt 0.1670 0.8180
vt 0.1670 0.8100
vt 0.2470 0.8100
vt 0.0657 0.6728
vt 0.1457 0.6728
vt 0.3535 0.6403
vt 0.2621 0.6403
vt 0.2678 0.6282
vt 0.3478 0.6282
vt 0.2581 0.6323
vt 0.2581 0.4682
vt 0.2638 0.4798
vt 0.2638 0.6202
vt 0.2621 0.4601
vt 0.3535 0.4601
vt 0.3478 0.4717
vt 0.2678 0.4717
vt 0.3574 0.4682
vt 0.3574 0.6323
vt 0.3517 0.6202
vt 0.3517 0.4798
vt 0.3478 0.6202
vt 0.2678 0.6202
vt 0.2678 0.4798
vt 0.3478 0.4798
vt 0.1631 0.8100
vt 0.1631 0.6696
vt 0.1670 0.6696
vt 0.2510 0.6696
vt 0.2510 0.8100
vt 0.2470 0.6696
vt 0.4129 0.9922
vt 0.0072 0.9905
vt 0.0550 0.8695
vt 0.3619 0.8696
vt 0.0078 0.0322
vt 0.4148 0.0339
vt 0.3659 0.2666
vt 0.0483 0.2388
vt 0.0483 0.2883
vt 0.6548 0.8110
vt 0.6632 0.8009
vt 0.6646 0.8357
vt 0.6415 0.1636
vt 0.6358 0.4305
vt 0.6268 0.4550
vt 0.6268 0.1638
vt 0.6320 0.4645
vt 0.6548 0.4681
vt 0.6548 0.4518
vt 0.6306 0.4518
vt 0.6306 0.8110
vt 0.6425 0.3414
vt 0.6406 0.4306
vt 0.5829 0.8106
vt 0.5829 0.4499
vt 0.6105 0.4499
vt 0.6105 0.8106
vt 0.6186 0.4499
vt 0.6185 0.8384
vt 0.6236 0.8320
vt 0.6236 0.4728
vt 0.0537 0.8309
vt 0.6632 0.4619
vt 0.6632 0.4765
vt 0.6686 0.4619
vt 0.6686 0.5749
vt 0.5696 0.5754
vt 0.5696 0.4658
vt 0.5748 0.4658
vt 0.6562 0.8441
vt 0.6320 0.8404
vt 0.5748 0.7947
vt 0.5829 0.4418
vt 0.6105 0.4418
vt 0.5748 0.4499
vt 0.3619 0.8309
vt 0.3661 0.3154
vt 0.6073 0.4306
vt 0.6073 0.1636
vt 0.6222 0.1913
vt 0.6177 0.4553
vt 0.6463 0.1637
vt 0.6444 0.2526
vt 0.1439 0.6271
vt 0.0639 0.6270
vt 0.0639 0.6190
vt 0.1439 0.6191
vt 0.2473 0.6255
vt 0.1673 0.6255
vt 0.1673 0.6175
vt 0.2473 0.6175
vt 0.0639 0.4786
vt 0.1439 0.4787
vt 0.1479 0.4787
vt 0.1479 0.6191
vt 0.0600 0.6190
vt 0.0600 0.4786
vt 0.0639 0.4706
vt 0.1439 0.4706
vt 0.3477 0.4317
vt 0.2677 0.4317
vt 0.2677 0.2913
vt 0.3477 0.2913
vt 0.3516 0.2913
vt 0.3516 0.4317
vt 0.2637 0.4317
vt 0.2637 0.2913
vt 0.3477 0.4397
vt 0.2677 0.4397
vt 0.1633 0.6175
vt 0.1633 0.4771
vt 0.1673 0.4771
vt 0.2512 0.4771
vt 0.2512 0.6175
vt 0.2473 0.4771
vt 0.1410 0.4312
vt 0.0610 0.4312
vt 0.0610 0.4232
vt 0.1410 0.4232
vt 0.2429 0.4325
vt 0.1629 0.4325
vt 0.1629 0.4245
vt 0.2429 0.4245
vt 0.0610 0.2828
vt 0.1410 0.2828
vt 0.1450 0.2828
vt 0.1450 0.4232
vt 0.0571 0.4232
vt 0.0571 0.2828
vt 0.0610 0.2747
vt 0.1410 0.2747
vt 0.2582 0.8219
vt 0.2582 0.6583
vt 0.2638 0.6699
vt 0.2638 0.8103
vt 0.2621 0.6503
vt 0.3535 0.6503
vt 0.3478 0.6619
vt 0.2678 0.6619
vt 0.3478 0.8103
vt 0.2678 0.8103
vt 0.2678 0.6699
vt 0.3478 0.6699
vt 0.3517 0.6699
vt 0.3517 0.8103
vt 0.3478 0.8184
vt 0.2678 0.8184
vt 0.1589 0.4245
vt 0.1589 0.2841
vt 0.1629 0.2841
vt 0.2468 0.2841
vt 0.2468 0.4245
vt 0.2429 0.2841
vt 0.1673 0.4690
vt 0.2473 0.4690
vt 0.1670 0.6615
vt 0.2470 0.6615
vt 0.3477 0.2832
vt 0.2677 0.2832
vt 0.1629 0.2760
vt 0.2429 0.2760
vt 0.5696 0.6850
vt 0.2567 0.6580
vt 0.2567 0.8221
vt 0.1613 0.6499
vt 0.2527 0.6499
vt 0.6686 0.6879
vt 0.6025 0.3414
vt 0.6025 0.2525
vt 0.1574 0.8221
vt 0.1574 0.6580
vt 0.2527 0.8301
vt 0.1613 0.8301
vt 0.6686 0.8009
vt 0.5696 0.7947
vt 0.1496 0.6387
vt 0.0582 0.6386
vt 0.0543 0.6306
vt 0.0543 0.4670
vt 0.0582 0.4590
vt 0.1496 0.4590
vt 0.1536 0.4671
vt 0.1535 0.6307
vt 0.3534 0.4513
vt 0.2620 0.4513
vt 0.2580 0.4433
vt 0.2580 0.2797
vt 0.2620 0.2716
vt 0.3534 0.2716
vt 0.3573 0.2797
vt 0.3573 0.4433
vt 0.2569 0.4655
vt 0.2569 0.6291
vt 0.1616 0.4575
vt 0.2530 0.4575
vt 0.1576 0.6291
vt 0.1576 0.4655
vt 0.6104 0.8465
vt 0.5831 0.8459
vt 0.2530 0.6371
vt 0.1616 0.6371
vt 0.1467 0.4428
vt 0.0553 0.4428
vt 0.0514 0.4348
vt 0.0514 0.2712
vt 0.0553 0.2631
vt 0.1467 0.2631
vt 0.1506 0.2712
vt 0.1506 0.4348
vt 0.3535 0.8300
vt 0.2621 0.8300
vt 0.3574 0.6583
vt 0.3574 0.8219
vt 0.2525 0.2725
vt 0.2525 0.4361
vt 0.1572 0.2644
vt 0.2486 0.2644
vt 0.1532 0.4361
vt 0.1532 0.2725
vt 0.5750 0.8377
vt 0.2486 0.4441
vt 0.1572 0.4441
vt 0.6025 0.1636
vt 0.6025 0.4306
vn 0.0000 -1.0000 0.0000
vn -1.0000 0.0000 0.0000
vn 0.0000 0.0000 -1.0000
vn 0.0000 0.0000 1.0000
vn 0.0000 1.0000 0.0000
vn 0.0709 0.9975 0.0000
vn 0.0000 0.9993 0.0363
vn 0.0000 0.9993 -0.0363
usemtl Window5
s off
f 12/1/1 13/2/1 34/3/1 35/4/1
f 7/5/2 5/6/2 13/2/2 12/1/2
f 5/7/2 9/8/2 14/9/2 13/10/2
f 9/11/2 11/12/2 15/13/2 14/14/2
f 11/15/2 7/16/2 12/17/2 15/18/2
f 39/19/1 38/20/1 31/21/1 30/22/1
f 35/4/2 34/3/2 37/23/2 36/24/2
f 15/18/3 12/17/3 35/4/3 36/24/3
f 13/10/4 14/9/4 37/23/4 34/3/4
f 14/14/5 15/13/5 36/24/5 37/23/5
f 27/25/2 26/26/2 19/27/2 18/28/2
f 26/29/2 16/30/2 20/31/2 19/32/2
f 16/33/2 17/34/2 21/35/2 20/36/2
f 17/37/2 27/38/2 18/39/2 21/40/2
f 23/41/2 22/42/2 25/43/2 24/44/2
f 21/40/3 18/39/3 23/41/3 24/44/3
f 19/32/4 20/31/4 25/43/4 22/42/4
f 18/28/1 19/27/1 22/42/1 23/41/1
f 38/45/4 33/46/4 28/47/4 31/21/4
f 32/48/3 39/49/3 30/22/3 29/50/3
f 30/22/2 31/21/2 28/47/2 29/50/2
f 46/51/2 47/52/2 48/53/2 43/54/2
f 49/55/2 50/56/2 44/57/2 41/58/2
f 56/59/2 49/55/2 41/58/2
f 2/60/1 42/61/1 57/62/1
f 40/63/2 51/64/2 59/65/2 56/66/2
f 48/67/3 59/68/3 55/69/3 54/70/3
f 54/70/2 55/69/2 2/60/2 1/71/2
f 9/72/4 5/73/4 51/64/4
f 53/74/2 4/75/2 3/76/2 52/77/2
f 41/78/1 44/79/1 52/77/1 3/76/1
f 43/80/5 48/81/5 54/70/5 1/71/5
f 56/59/2 59/82/2 49/55/2
f 51/83/1 55/69/1 59/84/1
f 5/85/1 7/86/1 51/83/1
f 8/87/5 6/88/5 40/89/5
f 57/90/4 43/91/4 1/71/4 2/60/4
f 45/92/6 40/89/6 4/75/6 53/74/6
f 47/52/2 49/55/2 59/82/2
f 48/53/2 47/52/2 59/82/2
f 56/93/3 41/94/3 3/76/3 4/75/3
f 4/75/7 40/89/7 56/95/7
f 51/83/1 42/61/1 2/60/1 55/69/1
f 43/54/2 57/96/2 46/51/2
f 44/57/2 50/56/2 58/97/2
f 42/98/2 45/99/2 58/100/2 57/101/2
f 58/97/2 50/56/2 57/96/2
f 57/96/2 50/56/2 46/51/2
f 6/102/4 10/103/4 40/63/4
f 10/103/4 9/72/4 51/64/4 40/63/4
f 60/104/1 61/105/1 79/106/1 80/107/1
f 84/108/1 83/109/1 76/110/1 75/111/1
f 80/107/2 79/106/2 82/112/2 81/113/2
f 63/114/3 60/115/3 80/107/3 81/113/3
f 61/116/4 62/117/4 82/112/4 79/106/4
f 62/118/5 63/119/5 81/113/5 82/112/5
f 70/120/2 69/121/2 72/122/2 71/123/2
f 68/124/3 65/125/3 70/120/3 71/123/3
f 66/126/4 67/127/4 72/122/4 69/121/4
f 65/128/1 66/129/1 69/121/1 70/120/1
f 83/130/4 78/131/4 73/132/4 76/110/4
f 77/133/3 84/134/3 75/111/3 74/135/3
f 75/111/2 76/110/2 73/132/2 74/135/2
f 86/136/1 87/137/1 107/138/1 108/139/1
f 112/140/1 111/141/1 104/142/1 103/143/1
f 108/139/2 107/138/2 110/144/2 109/145/2
f 89/146/3 86/147/3 108/139/3 109/145/3
f 87/148/4 88/149/4 110/144/4 107/138/4
f 88/150/5 89/151/5 109/145/5 110/144/5
f 100/152/2 90/153/2 94/154/2 93/155/2
f 90/156/2 91/157/2 95/158/2 94/159/2
f 97/160/2 96/161/2 99/162/2 98/163/2
f 95/164/3 92/165/3 97/160/3 98/163/3
f 93/155/4 94/154/4 99/162/4 96/161/4
f 92/166/1 93/167/1 96/161/1 97/160/1
f 111/168/4 106/169/4 101/170/4 104/142/4
f 105/171/3 112/172/3 103/143/3 102/173/3
f 103/143/2 104/142/2 101/170/2 102/173/2
f 78/174/5 77/175/5 74/135/5 73/132/5
f 33/176/5 32/177/5 29/50/5 28/47/5
f 21/35/5 24/44/5 25/43/5 20/36/5
f 68/178/5 71/123/5 72/122/5 67/179/5
f 95/158/5 98/163/5 99/162/5 94/159/5
f 106/180/5 105/181/5 102/173/5 101/170/5
f 90/182/5 8/87/5 40/89/5 45/92/5
f 16/183/2 26/184/2 39/49/2 32/48/2
f 11/185/2 16/186/2 32/177/2 33/176/2
f 7/86/1 26/187/1 42/61/1 51/83/1
f 17/188/3 64/189/3 45/99/3 42/98/3
f 7/190/2 11/191/2 33/46/2 38/45/2
f 26/192/2 7/193/2 38/20/2 39/19/2
f 26/187/1 27/194/1 42/61/1
f 91/195/5 90/182/5 45/92/5
f 11/196/2 9/197/2 61/105/2 60/104/2
f 9/198/2 10/199/2 62/117/2 61/116/2
f 10/200/2 85/201/2 63/119/2 62/118/2
f 85/202/2 11/203/2 60/115/2 63/114/2
f 17/204/2 16/205/2 66/129/2 65/128/2
f 16/206/2 100/207/2 67/127/2 66/126/2
f 100/208/2 64/209/2 68/178/2 67/179/2
f 64/210/2 17/211/2 65/125/2 68/124/2
f 100/212/2 16/213/2 84/134/2 77/133/2
f 85/214/2 100/215/2 77/175/2 78/174/2
f 11/216/2 85/217/2 78/131/2 83/130/2
f 44/218/4 58/219/4 53/74/4 52/77/4
f 16/220/2 11/221/2 83/109/2 84/108/2
f 85/222/2 10/223/2 87/137/2 86/136/2
f 10/224/2 6/225/2 88/149/2 87/148/2
f 6/226/2 8/227/2 89/151/2 88/150/2
f 8/228/2 85/229/2 86/147/2 89/146/2
f 64/230/2 100/231/2 93/167/2 92/166/2
f 91/232/2 64/233/2 92/165/2 95/164/2
f 90/234/2 100/235/2 112/172/2 105/171/2
f 8/236/2 90/237/2 105/181/2 106/180/2
f 85/238/2 8/239/2 106/169/2 111/168/2
f 45/92/8 53/74/8 58/240/8
f 100/241/2 85/242/2 111/141/2 112/140/2
f 45/99/3 64/189/3 91/243/3
f 27/244/3 17/188/3 42/98/3
