# Blender v2.78 (sub 0) OBJ File: 'Windows.blend'
# www.blender.org
mtllib Window3.mtl
g Window3
v 0.000000 0.000000 0.625000
v 0.000000 3.000000 0.625000
v 0.000000 0.000000 -0.625000
v 0.000000 3.000000 -0.625000
v 0.000000 1.199261 0.368872
v 0.000000 2.521962 0.368872
v 0.000000 2.521962 -0.368871
v 0.000000 1.199261 -0.368871
v 0.000000 1.123786 0.486026
v 0.000000 2.597436 0.457387
v 0.000000 2.597436 -0.457387
v 0.000000 1.123786 -0.486026
v 0.000000 1.860611 0.368872
v 0.000000 2.521962 0.000000
v 0.000000 1.860611 -0.368871
v 0.000000 1.199261 0.000000
v 0.000000 1.860611 0.000000
v 0.000000 1.815094 -0.021477
v 0.000000 1.815094 -0.323354
v 0.000000 1.244778 -0.323354
v 0.000000 1.244778 -0.021477
v 0.000000 1.815094 0.323355
v 0.000000 1.815094 0.021477
v 0.000000 1.244778 0.021477
v 0.000000 1.244778 0.323355
v 0.000000 2.476445 0.323355
v 0.000000 2.476445 0.021477
v 0.000000 1.906128 0.021477
v 0.000000 1.906128 0.323355
v 0.000000 2.476445 -0.021477
v 0.000000 2.476445 -0.323354
v 0.000000 1.906128 -0.323354
v 0.000000 1.906128 -0.021477
v 0.035182 1.815094 -0.323354
v 0.035182 1.815094 -0.021477
v 0.035182 1.244778 -0.021477
v 0.035182 1.244778 -0.323354
v 0.035182 1.815094 0.021477
v 0.035182 1.815094 0.323355
v 0.035182 1.244778 0.323355
v 0.035182 1.244778 0.021477
v 0.035182 2.476445 0.323355
v 0.035182 2.476445 0.021477
v 0.035182 1.906128 0.323355
v 0.035182 1.906128 0.021477
v 0.035182 2.476445 -0.021477
v 0.035182 2.476445 -0.323354
v 0.035182 1.906128 -0.021477
v 0.035182 1.906128 -0.323354
v 0.000000 1.199261 0.457387
v 0.000000 1.199261 -0.457387
v -0.032053 1.199261 0.457387
v -0.032053 2.597436 0.457387
v -0.032053 2.597436 -0.457387
v -0.032053 1.199261 -0.457387
v -0.032053 1.123786 -0.486026
v -0.032053 1.123786 0.486026
v -0.032053 1.199261 0.368872
v -0.032053 2.521962 0.368872
v -0.032053 2.521962 -0.368871
v -0.032053 1.199261 -0.368871
v 0.000000 1.199261 -0.486026
v -0.032053 1.199261 -0.486026
v 0.000000 1.199261 0.486026
v -0.032053 1.199261 0.486026
vt 0.6875 0.1219
vt 0.6875 0.4030
vt 0.6701 0.4030
vt 0.6701 0.1219
vt 0.3689 0.4005
vt 0.3595 0.8632
vt 0.3595 0.4005
vt 0.0567 0.8632
vt 0.4126 0.9907
vt 0.0075 0.9924
vt 0.0472 0.4005
vt 0.0567 0.4005
vt 0.3689 0.3755
vt 0.0472 0.3755
vt 0.0075 0.0087
vt 0.4126 0.0070
vt 0.8727 0.9661
vt 0.7469 0.9661
vt 0.6211 0.9552
vt 0.8727 0.9552
vt 0.3328 0.4412
vt 0.3327 0.8216
vt 0.3239 0.8216
vt 0.3241 0.4411
vt 0.2014 0.6491
vt 0.2014 0.8208
vt 0.1931 0.8208
vt 0.1931 0.4775
vt 0.9256 0.4083
vt 0.7768 0.4083
vt 0.7768 0.3910
vt 0.9256 0.3910
vt 0.6701 0.4204
vt 0.5213 0.4204
vt 0.5213 0.4030
vt 0.5379 0.5159
vt 0.6867 0.5159
vt 0.6867 0.5332
vt 0.5379 0.5332
vt 0.6807 0.4428
vt 0.4989 0.4428
vt 0.4816 0.4255
vt 0.4816 0.0995
vt 0.5040 0.1219
vt 0.5040 0.4030
vt 0.4989 0.0822
vt 0.6807 0.0822
vt 0.6701 0.1046
vt 0.5213 0.1046
vt 0.6981 0.0995
vt 0.6981 0.4255
vt 0.9480 0.4308
vt 0.7662 0.4308
vt 0.7488 0.4134
vt 0.7488 0.0875
vt 0.7594 0.1099
vt 0.7594 0.3910
vt 0.7662 0.0701
vt 0.9480 0.0701
vt 0.9256 0.0926
vt 0.7768 0.0926
vt 0.9653 0.0875
vt 0.9653 0.4134
vt 0.9429 0.3910
vt 0.9429 0.1099
vt 0.9515 0.8572
vt 0.7697 0.8572
vt 0.7803 0.8348
vt 0.9291 0.8348
vt 0.7523 0.8399
vt 0.7523 0.5139
vt 0.7629 0.5363
vt 0.7629 0.8174
vt 0.7697 0.4966
vt 0.9515 0.4966
vt 0.9291 0.5190
vt 0.7803 0.5190
vt 0.9688 0.5139
vt 0.9688 0.8399
vt 0.9464 0.8174
vt 0.9464 0.5363
vt 0.6973 0.8541
vt 0.5155 0.8541
vt 0.5379 0.8316
vt 0.6867 0.8316
vt 0.4981 0.8367
vt 0.4981 0.5108
vt 0.5205 0.5332
vt 0.5205 0.8143
vt 0.5155 0.4934
vt 0.6973 0.4934
vt 0.7146 0.5108
vt 0.7146 0.8367
vt 0.7040 0.8143
vt 0.7040 0.5332
vt 0.5213 0.1219
vt 0.7768 0.1099
vt 0.9256 0.1099
vt 0.9291 0.8174
vt 0.7803 0.8174
vt 0.7803 0.5363
vt 0.9291 0.5363
vt 0.6867 0.8143
vt 0.5379 0.8143
vt 0.2940 0.6128
vt 0.2940 0.4329
vt 0.3027 0.4329
vt 0.2999 0.8010
vt 0.3000 0.4411
vt 0.5653 0.0231
vt 0.5954 0.0231
vt 0.5555 0.0488
vt 0.5909 0.9294
vt 0.9029 0.9294
vt 0.7212 0.0121
vt 0.8470 0.0121
vt 0.8470 0.0231
vt 0.5909 0.9185
vt 0.9029 0.9185
vt 0.8869 0.0597
vt 0.5555 0.0597
vt 0.8869 0.0488
vt 0.5200 0.0597
vt 0.5200 0.0488
vt 0.5298 0.0488
vt 0.5298 0.0597
vt 0.1618 0.8404
vt 0.1618 0.4775
vt 0.1701 0.4775
vt 0.1701 0.8404
vt 0.2939 0.7927
vt 0.3026 0.7927
vt 0.5954 0.0121
vt 0.8772 0.0231
vt 0.8869 0.0231
vt 0.9224 0.0488
vt 0.9224 0.0597
vt 0.9127 0.0597
vt 0.9127 0.0488
vt 0.5555 0.0231
vt 0.6211 0.9661
vt 0.2014 0.4775
vn 0.0000 0.0000 -1.0000
vn -1.0000 0.0000 0.0000
vn 0.0000 -1.0000 0.0000
vn 0.0000 0.0000 1.0000
vn 0.0000 1.0000 0.0000
usemtl Window3
s off
f 21/1/1 18/2/1 35/3/1 36/4/1
f 64/5/2 10/6/2 50/7/2
f 11/8/2 10/6/2 2/9/2 4/10/2
f 62/11/2 51/12/2 11/8/2
f 9/13/2 12/14/2 3/15/2 1/16/2
f 7/17/3 14/18/3 59/19/3 60/20/3
f 50/21/4 10/22/4 53/23/4 52/24/4
f 15/25/4 7/26/4 60/27/4 61/28/4
f 22/29/3 23/30/3 38/31/3 39/32/3
f 18/33/3 19/34/3 34/35/3 35/3/3
f 32/36/5 33/37/5 48/38/5 49/39/5
f 17/40/2 15/41/2 19/34/2 18/33/2
f 15/42/2 8/43/2 20/44/2 19/45/2
f 8/46/2 16/47/2 21/48/2 20/49/2
f 16/50/2 17/51/2 18/2/2 21/1/2
f 13/52/2 17/53/2 23/30/2 22/29/2
f 17/54/2 16/55/2 24/56/2 23/57/2
f 16/58/2 5/59/2 25/60/2 24/61/2
f 5/62/2 13/63/2 22/64/2 25/65/2
f 6/66/2 14/67/2 27/68/2 26/69/2
f 14/70/2 17/71/2 28/72/2 27/73/2
f 17/74/2 13/75/2 29/76/2 28/77/2
f 13/78/2 6/79/2 26/80/2 29/81/2
f 14/82/2 7/83/2 31/84/2 30/85/2
f 7/86/2 15/87/2 32/88/2 31/89/2
f 15/90/2 17/91/2 33/37/2 32/36/2
f 17/92/2 14/93/2 30/94/2 33/95/2
f 35/3/2 34/35/2 37/96/2 36/4/2
f 39/32/2 38/31/2 41/97/2 40/98/2
f 42/99/2 43/100/2 45/101/2 44/102/2
f 46/103/2 47/104/2 49/39/2 48/38/2
f 26/69/3 27/68/3 43/100/3 42/99/3
f 25/65/1 22/64/1 39/32/1 40/98/1
f 30/85/3 31/84/3 47/104/3 46/103/3
f 19/45/4 20/44/4 37/96/4 34/35/4
f 29/81/1 26/80/1 42/99/1 44/102/1
f 23/57/4 24/56/4 41/97/4 38/31/4
f 33/95/1 30/94/1 46/103/1 48/38/1
f 20/49/5 21/48/5 36/4/5 37/96/5
f 27/73/4 28/72/4 45/101/4 43/100/4
f 24/61/5 25/60/5 40/98/5 41/97/5
f 31/89/4 32/88/4 49/39/4 47/104/4
f 28/77/5 29/76/5 44/102/5 45/101/5
f 13/105/1 5/106/1 58/107/1
f 59/108/2 58/109/2 52/24/2 53/23/2
f 52/110/2 58/111/2 57/112/2
f 60/20/2 59/19/2 53/113/2 54/114/2
f 16/115/5 8/116/5 61/117/5
f 10/118/5 11/119/5 54/114/5 53/113/5
f 12/120/3 9/121/3 57/112/3 56/122/3
f 50/123/5 52/124/5 65/125/5 64/126/5
f 11/127/1 51/128/1 55/129/1 54/130/1
f 6/131/1 13/105/1 58/107/1 59/132/1
f 5/133/5 16/115/5 61/117/5 58/111/5
f 10/6/2 64/5/2 2/9/2
f 56/122/2 55/134/2 63/135/2
f 55/136/5 51/137/5 62/138/5 63/139/5
f 62/138/1 12/120/1 56/122/1 63/139/1
f 9/121/4 64/126/4 65/125/4 57/112/4
f 52/110/2 57/112/2 65/140/2
f 14/18/3 6/141/3 59/19/3
f 8/142/4 15/25/4 61/28/4
f 61/28/2 60/27/2 54/130/2 55/129/2
f 58/111/2 61/117/2 56/122/2 57/112/2
f 56/122/2 61/117/2 55/134/2
f 1/16/2 64/5/2 9/13/2
f 64/5/2 1/16/2 2/9/2
f 62/11/2 11/8/2 4/10/2
f 12/14/2 62/11/2 3/15/2
f 62/11/2 4/10/2 3/15/2
