# Blender v2.78 (sub 0) OBJ File: 'Pole&Signs.blend'
# www.blender.org
mtllib Sign2.mtl
g Sign2
v -0.011433 -0.068107 -0.059523
v 0.006745 -0.068107 -0.059523
v -0.011433 -0.092456 -0.308640
v 0.006745 -0.092456 -0.308640
v -0.011433 -0.161797 -0.519831
v 0.006745 -0.161797 -0.519831
v -0.011433 -0.265574 -0.660944
v 0.006745 -0.265574 -0.660944
v -0.011433 -0.387986 -0.710496
v 0.006745 -0.387986 -0.710496
v -0.011433 -0.510399 -0.660944
v 0.006745 -0.510399 -0.660944
v -0.011433 -0.614175 -0.519831
v 0.006745 -0.614175 -0.519831
v -0.011433 -0.683516 -0.308640
v 0.006745 -0.683516 -0.308640
v -0.011433 -0.707865 -0.059524
v 0.006745 -0.707865 -0.059524
v -0.011433 -0.683516 0.189593
v 0.006744 -0.683516 0.189593
v -0.011433 -0.614175 0.400784
v 0.006744 -0.614175 0.400784
v -0.011433 -0.510399 0.541897
v 0.006744 -0.510399 0.541897
v -0.011433 -0.387986 0.591450
v 0.006744 -0.387986 0.591450
v -0.011433 -0.265574 0.541897
v 0.006744 -0.265574 0.541897
v -0.011433 -0.161797 0.400784
v 0.006745 -0.161797 0.400784
v -0.011433 -0.092456 0.189593
v 0.006745 -0.092456 0.189593
v -0.011433 -0.004747 -0.059523
v -0.011433 -0.004747 -0.308640
v 0.006745 -0.004747 -0.308640
v 0.006745 -0.004747 -0.059523
v 0.006745 -0.004747 0.189593
v -0.011433 -0.004747 0.189593
vt 0.9309 0.4497
vt 0.9140 0.2776
vt 0.9748 0.2776
vt 0.9748 0.4497
vt 1.0000 0.5875
vt 0.9874 0.5875
vt 0.9874 0.4416
vt 1.0000 0.4416
vt 0.9874 0.3442
vt 1.0000 0.3442
vt 0.9874 0.9935
vt 0.9748 0.9935
vt 0.9748 0.9089
vt 0.9874 0.9089
vt 0.9748 0.8243
vt 0.9874 0.8243
vt 0.9748 0.7366
vt 0.9874 0.7366
vt 0.9748 0.5979
vt 0.9874 0.5979
vt 0.9748 0.4292
vt 0.9874 0.4292
vt 0.9748 0.2564
vt 0.9874 0.2564
vt 0.9748 0.1057
vt 0.9874 0.1057
vt 0.9748 0.0000
vt 0.9874 0.0000
vt 1.0000 1.0000
vt 0.9874 1.0000
vt 0.9874 0.9154
vt 1.0000 0.9154
vt 0.9874 0.8309
vt 1.0000 0.8309
vt 0.9874 0.5875
vt 1.0000 0.5875
vt 1.0000 0.6850
vt 0.9874 0.6850
vt 0.4266 0.2776
vt 0.4435 0.4497
vt 0.4266 0.6218
vt 0.3785 0.7676
vt 0.3066 0.8651
vt 0.2217 0.8993
vt 0.1369 0.8651
vt 0.0649 0.7676
vt 0.0169 0.6218
vt 0.0000 0.4497
vt 0.0169 0.2776
vt 0.0649 0.1317
vt 0.1369 0.0342
vt 0.2217 0.0000
vt 0.3066 0.0342
vt 0.3785 0.1317
vt 0.4874 0.4497
vt 0.4874 0.6218
vt 1.0000 0.8309
vt 0.9874 0.8309
vt 0.9140 0.6218
vt 0.8659 0.7676
vt 0.7940 0.8651
vt 0.7091 0.8993
vt 0.6243 0.8651
vt 0.5523 0.7676
vt 0.5043 0.6218
vt 0.4874 0.4497
vt 0.5043 0.2776
vt 0.5523 0.1317
vt 0.6243 0.0342
vt 0.7091 0.0000
vt 0.7940 0.0342
vt 0.8659 0.1317
vt 0.9874 0.1721
vt 1.0000 0.1721
vt 1.0000 0.3442
vt 0.9874 0.3442
vt 0.9874 0.0000
vt 1.0000 0.0000
vt 0.0252 0.9599
vt 0.0126 0.9599
vt 0.0126 0.8993
vt 0.0252 0.8993
vt 0.0000 0.8993
vt 0.0126 0.8993
vt 0.0126 0.9599
vt 0.0000 0.9599
vt 0.4874 0.2776
vt 0.9748 0.6218
vn -1.0000 0.0000 -0.0000
vn 0.0000 0.9501 -0.3119
vn 0.0000 0.8056 -0.5925
vn 0.0000 0.3752 -0.9269
vn 0.0000 -0.3752 -0.9269
vn 0.0000 -0.8056 -0.5925
vn 0.0000 -0.9501 -0.3119
vn 0.0000 -0.9953 -0.0973
vn 0.0000 -0.9953 0.0973
vn 0.0000 -0.9501 0.3119
vn 0.0000 -0.8056 0.5925
vn 0.0000 -0.3752 0.9269
vn 0.0000 0.3752 0.9269
vn 0.0000 0.8056 0.5925
vn 1.0000 -0.0000 0.0000
vn 0.0000 0.9501 0.3119
vn 0.0000 1.0000 -0.0000
vn -0.0000 0.0000 1.0000
vn -0.0000 0.0000 -1.0000
usemtl Sign2
s off
f 1/1/1 31/2/1 38/3/1 33/4/1
f 3/5/2 4/6/2 6/7/2 5/8/2
f 5/8/3 6/7/3 8/9/3 7/10/3
f 7/11/4 8/12/4 10/13/4 9/14/4
f 9/14/5 10/13/5 12/15/5 11/16/5
f 11/16/6 12/15/6 14/17/6 13/18/6
f 13/18/7 14/17/7 16/19/7 15/20/7
f 15/20/8 16/19/8 18/21/8 17/22/8
f 17/22/9 18/21/9 20/23/9 19/24/9
f 19/24/10 20/23/10 22/25/10 21/26/10
f 21/26/11 22/25/11 24/27/11 23/28/11
f 23/29/12 24/30/12 26/31/12 25/32/12
f 25/32/13 26/31/13 28/33/13 27/34/13
f 27/35/14 28/36/14 30/37/14 29/38/14
f 4/39/15 2/40/15 32/41/15 30/42/15 28/43/15 26/44/15 24/45/15 22/46/15 20/47/15 18/48/15 16/49/15 14/50/15 12/51/15 10/52/15 8/53/15 6/54/15
f 32/41/15 2/40/15 36/55/15 37/56/15
f 29/38/16 30/37/16 32/57/16 31/58/16
f 1/1/1 3/59/1 5/60/1 7/61/1 9/62/1 11/63/1 13/64/1 15/65/1 17/66/1 19/67/1 21/68/1 23/69/1 25/70/1 27/71/1 29/72/1 31/2/1
f 33/73/17 36/74/17 35/75/17 34/76/17
f 38/77/17 37/78/17 36/74/17 33/73/17
f 31/79/18 32/80/18 37/81/18 38/82/18
f 4/83/19 3/84/19 34/85/19 35/86/19
f 2/40/15 4/39/15 35/87/15 36/55/15
f 3/59/1 1/1/1 33/4/1 34/88/1
