# Blender v2.74 (sub 0) OBJ File: 'Latern1.blend'
# www.blender.org
mtllib WallMount1.mtl
g WallMount1
v -0.058449 0.237679 0.010377
v -0.058449 -0.190117 -0.022097
v -0.058449 0.237679 -0.022097
v 0.058207 0.237679 0.010377
v 0.058207 -0.190117 -0.022097
v -0.029285 0.247598 -0.022097
v -0.000121 -0.200129 -0.022097
v -0.000121 -0.200129 0.010377
v -0.058449 -0.105519 0.010377
v -0.058449 -0.105310 -0.022097
v 0.058207 -0.106310 -0.022097
v 0.058207 -0.105373 0.010377
v 0.028163 0.155374 0.009685
v 0.029043 -0.107018 0.010377
v -0.001001 0.158340 0.009685
v -0.000121 -0.106781 0.010377
v -0.030165 0.155374 0.009685
v -0.029285 -0.107018 0.010377
v -0.059329 0.150064 0.009685
v 0.057327 0.150064 0.009685
v -0.030165 0.155374 -0.022789
v -0.000121 -0.106377 -0.022097
v -0.000121 0.099444 -0.258282
v -0.000121 0.042179 -0.213231
v -0.000121 -0.026053 -0.170796
v -0.000121 -0.082990 -0.102713
v 0.029043 -0.084120 -0.102713
v 0.029043 0.039599 -0.214664
v -0.029285 0.041762 -0.213231
v -0.000121 0.070318 -0.262072
v -0.000121 0.013656 -0.219163
v -0.000121 -0.053968 -0.174891
v -0.000121 -0.110296 -0.102713
v -0.029285 0.013443 -0.219116
v -0.029285 0.070113 -0.262035
v 0.029043 0.011244 -0.220596
v 0.029043 -0.055651 -0.175462
v -0.030165 0.155374 -0.371844
v -0.029285 0.132791 -0.371153
v -0.001001 0.158340 -0.371844
v -0.000121 0.135248 -0.371153
v -0.001001 0.145693 -0.397461
v -0.000121 0.122601 -0.396770
v 0.029043 0.120145 -0.396770
v -0.030165 0.124257 -0.410812
v -0.001001 0.127222 -0.410812
v -0.000121 0.104130 -0.410120
v 0.028163 0.124257 -0.410812
v 0.029043 0.101674 -0.410120
v -0.030165 0.124257 -0.426864
v -0.001001 0.127222 -0.426864
v -0.000121 0.104130 -0.426172
v -0.001047 0.133259 -0.443174
v -0.000167 0.110166 -0.442483
v 0.028117 0.130293 -0.443174
v -0.030211 0.157185 -0.457882
v -0.029331 0.134602 -0.457190
v -0.001047 0.160150 -0.457882
v -0.000167 0.137058 -0.457190
v 0.028117 0.157185 -0.457882
v -0.015600 0.152807 -0.468002
v -0.015150 0.141240 -0.467647
v -0.000662 0.154326 -0.468002
v -0.000211 0.142498 -0.467647
v 0.014277 0.152807 -0.468002
v 0.014727 0.141240 -0.467647
v -0.001001 0.158340 -0.287930
v 0.028163 0.155374 -0.287930
v -0.030165 0.155374 -0.287930
v 0.028163 0.155374 -0.316678
v -0.001001 0.158340 -0.316678
v -0.058449 -0.190117 0.010377
v 0.029043 0.247598 -0.022097
v 0.058207 0.237679 -0.022097
v -0.029285 -0.198146 -0.022097
v 0.058207 -0.190117 0.010377
v -0.029285 0.247598 0.010377
v 0.029043 -0.198146 0.010377
v -0.000121 0.252273 -0.022097
v 0.029043 -0.198146 -0.022097
v 0.029043 0.247598 0.010377
v -0.000121 0.252273 0.010377
v -0.029285 -0.198146 0.010377
v -0.058449 0.149340 -0.022097
v 0.058207 0.149195 -0.022097
v -0.029285 0.132791 -0.022097
v -0.029285 -0.106794 -0.022097
v -0.029285 -0.133322 -0.022097
v 0.028163 0.155374 -0.022789
v 0.029043 0.132791 -0.022097
v 0.029043 -0.106794 -0.022097
v 0.029043 -0.133322 -0.022097
v -0.000121 0.135248 -0.022097
v -0.000121 -0.133085 -0.022097
v -0.001001 0.158340 -0.022789
v -0.029285 -0.083408 -0.102713
v -0.029285 0.133343 -0.315196
v 0.029043 -0.111245 -0.102713
v 0.029043 -0.027909 -0.171486
v 0.029043 0.096146 -0.260022
v -0.029285 0.099026 -0.258282
v -0.029285 -0.026471 -0.170796
v -0.029285 -0.110525 -0.102713
v -0.029285 -0.054189 -0.174862
v 0.029043 0.067197 -0.264015
v 0.028163 0.155374 -0.371844
v 0.029043 0.132791 -0.287238
v 0.028163 0.142728 -0.397461
v -0.030165 0.142728 -0.397461
v -0.029285 0.120145 -0.396770
v 0.029043 0.132791 -0.371153
v -0.029285 0.101674 -0.410120
v 0.028163 0.124257 -0.426864
v -0.029285 0.101674 -0.426172
v 0.029043 0.101674 -0.426172
v -0.030211 0.130293 -0.443174
v -0.029331 0.107710 -0.442483
v 0.028997 0.107710 -0.442483
v 0.028997 0.134602 -0.457190
v -0.030165 0.155374 -0.316678
v -0.000121 0.135248 -0.315987
v -0.000121 0.135248 -0.287238
v -0.029285 0.132791 -0.287238
v 0.029043 0.132791 -0.315987
v -0.059329 0.150064 0.009685
v -0.058449 0.237679 0.010377
v -0.058449 -0.105310 -0.022097
v -0.058449 -0.190117 -0.022097
v 0.058207 -0.106310 -0.022097
v 0.058207 -0.190117 -0.022097
v -0.058449 0.237679 -0.022097
v -0.029285 0.247598 -0.022097
v 0.029043 -0.198146 -0.022097
v -0.000121 -0.200129 -0.022097
v -0.029285 -0.198146 0.010377
v -0.000121 -0.200129 0.010377
v 0.029043 -0.198146 0.010377
v 0.058207 -0.190117 0.010377
v -0.029285 -0.198146 -0.022097
v 0.058207 -0.105373 0.010377
v -0.029285 0.247598 0.010377
v 0.029043 0.247598 -0.022097
v 0.058207 0.237679 -0.022097
v -0.001001 0.158340 -0.022789
v -0.030165 0.155374 -0.022789
v -0.030165 0.155374 -0.022789
v 0.029043 0.011244 -0.220596
v 0.029043 -0.055651 -0.175462
v 0.028163 0.155374 -0.316678
v 0.028163 0.155374 -0.371844
v 0.028163 0.142728 -0.397461
v -0.029285 0.120145 -0.396770
v -0.029285 0.101674 -0.410120
v -0.029285 0.101674 -0.426172
v -0.029331 0.107710 -0.442483
v 0.028997 0.107710 -0.442483
v 0.029043 0.101674 -0.426172
v 0.028163 0.155374 -0.022789
v 0.028163 0.155374 -0.022789
v 0.028163 0.155374 -0.287930
v -0.000121 0.135248 -0.287238
v -0.000121 0.135248 -0.287238
v -0.000121 0.135248 -0.287238
v 0.029043 0.132791 -0.287238
v 0.029043 0.132791 -0.287238
v 0.029043 0.132791 -0.287238
v 0.029043 0.132791 -0.287238
v 0.029043 0.132791 -0.371153
v 0.029043 0.132791 -0.315987
v 0.029043 0.132791 -0.315987
v 0.029043 0.132791 -0.315987
v 0.029043 0.132791 -0.315987
v -0.000121 0.252273 -0.022097
v 0.029043 0.247598 0.010377
v -0.000121 0.252273 0.010377
v 0.029043 0.132791 -0.022097
v 0.029043 0.132791 -0.022097
v -0.000121 0.135248 -0.022097
v -0.029285 0.132791 -0.022097
v -0.029285 0.132791 -0.022097
v -0.000121 -0.106377 -0.022097
v -0.029285 -0.106794 -0.022097
v -0.029285 -0.106794 -0.022097
v 0.029043 -0.106794 -0.022097
v 0.029043 -0.106794 -0.022097
v -0.029285 -0.083408 -0.102713
v -0.029285 -0.026471 -0.170796
v -0.029285 -0.110525 -0.102713
v -0.029285 -0.054189 -0.174862
v 0.029043 0.101674 -0.410120
v 0.029043 0.120145 -0.396770
v -0.030165 0.124257 -0.426864
v -0.030165 0.124257 -0.410812
v 0.028117 0.130293 -0.443174
v 0.028117 0.157185 -0.457882
v -0.030165 0.155374 -0.316678
v -0.030165 0.155374 -0.287930
v -0.030165 0.155374 -0.371844
v 0.058207 0.237679 0.010377
v -0.058449 -0.190117 0.010377
v -0.058449 -0.105519 0.010377
v -0.029285 -0.133322 -0.022097
v 0.029043 -0.133322 -0.022097
v 0.057327 0.150064 0.009685
v -0.029285 0.070113 -0.262035
v -0.029285 0.133343 -0.315196
v -0.029285 0.133343 -0.315196
v -0.029285 0.133343 -0.315196
v -0.029285 0.133343 -0.315196
v 0.029043 -0.111245 -0.102713
v 0.029043 -0.084120 -0.102713
v 0.029043 -0.027909 -0.171486
v 0.029043 0.039599 -0.214664
v 0.029043 0.096146 -0.260022
v -0.029285 0.099026 -0.258282
v -0.029285 0.041762 -0.213231
v -0.029285 0.013443 -0.219116
v 0.029043 0.067197 -0.264015
v -0.030165 0.142728 -0.397461
v -0.029285 0.132791 -0.371153
v 0.028163 0.124257 -0.410812
v 0.028163 0.124257 -0.426864
v -0.030211 0.130293 -0.443174
v -0.001047 0.160150 -0.457882
v -0.030211 0.157185 -0.457882
v -0.000121 0.135248 -0.315987
v -0.000121 0.135248 -0.315987
v -0.000121 0.135248 -0.315987
v -0.029285 0.132791 -0.287238
v -0.029285 0.132791 -0.287238
v -0.029285 0.132791 -0.287238
v -0.029285 0.132791 -0.287238
v -0.058449 0.149340 -0.022097
v 0.058207 0.149195 -0.022097
vt 0.767154 0.139358
vt 0.722632 0.139201
vt 0.722623 0.044600
vt 0.767145 0.044757
vt 0.811949 0.793391
vt 0.861515 0.793386
vt 0.861983 0.843474
vt 0.812416 0.843479
vt 0.642839 0.898006
vt 0.692311 0.898028
vt 0.693159 0.947984
vt 0.643687 0.947962
vt 0.045874 0.158451
vt 0.001339 0.161028
vt 0.001339 0.017088
vt 0.045874 0.003399
vt 0.090409 0.769748
vt 0.045874 0.761820
vt 0.044535 0.605057
vt 0.089070 0.610076
vt 0.950410 0.143760
vt 0.900819 0.145365
vt 0.900819 0.000000
vt 0.950410 0.000003
vt 0.134944 0.761767
vt 0.133605 0.605004
vt 0.313085 0.658234
vt 0.357621 0.612140
vt 0.357621 0.755199
vt 0.313085 0.768891
vt 1.000000 0.145114
vt 0.950410 0.145475
vt 1.000000 0.000000
vt 0.402163 0.821000
vt 0.446696 0.821098
vt 0.446857 0.951267
vt 0.402324 0.951217
vt 0.553560 0.747823
vt 0.598097 0.747889
vt 0.598005 0.884895
vt 0.553467 0.884829
vt 0.598105 0.998631
vt 0.553568 0.998565
vt 0.722679 0.000001
vt 0.767200 0.000158
vt 0.693547 0.797856
vt 0.697267 0.747823
vt 0.722623 0.747932
vt 0.718904 0.797965
vt 0.139085 0.819818
vt 0.139344 0.869829
vt 0.114890 0.869818
vt 0.114631 0.819807
vt 0.089406 0.869945
vt 0.089146 0.819934
vt 0.114890 0.769748
vt 0.089406 0.769876
vt 0.323673 0.772321
vt 0.319941 0.822358
vt 0.276831 0.822295
vt 0.280562 0.772259
vt 0.170967 0.820499
vt 0.168659 0.846129
vt 0.151030 0.846906
vt 0.152941 0.821276
vt 0.168659 0.794870
vt 0.151030 0.795647
vt 0.828513 0.454116
vt 0.828254 0.504174
vt 0.811750 0.504296
vt 0.811883 0.478655
vt 0.139344 0.771266
vt 0.173761 0.769748
vt 0.812416 0.643338
vt 0.861983 0.643332
vt 0.861515 0.693315
vt 0.811949 0.693320
vt 0.861295 0.743326
vt 0.811728 0.743331
vt 0.643687 0.747823
vt 0.693159 0.747845
vt 0.692311 0.797959
vt 0.642839 0.797937
vt 0.692102 0.848013
vt 0.642630 0.847991
vt 0.179479 0.161171
vt 0.134944 0.158398
vt 0.134944 0.003346
vt 0.179479 0.016982
vt 0.090409 0.158828
vt 0.090409 0.000000
vt 0.179479 0.610371
vt 0.224015 0.658203
vt 0.224015 0.768860
vt 0.179479 0.755137
vt 0.268550 0.657814
vt 0.268550 0.772259
vt 0.811703 0.139200
vt 0.811694 0.044599
vt 0.001339 0.744970
vt 0.000000 0.596049
vt 0.224015 0.007965
vt 0.268550 0.000000
vt 0.267210 0.160227
vt 0.222675 0.165274
vt 0.313085 0.007996
vt 0.311745 0.165305
vt 0.178140 0.595943
vt 0.224015 0.203942
vt 0.268550 0.199765
vt 0.268550 0.612222
vt 0.224015 0.612920
vt 0.313085 0.203973
vt 0.313085 0.612951
vt 0.523415 0.000000
vt 0.553467 0.030506
vt 0.497436 0.160030
vt 0.466715 0.128846
vt 0.492243 0.312181
vt 0.456679 0.285482
vt 0.526102 0.444668
vt 0.487996 0.419596
vt 0.544858 0.567874
vt 0.508261 0.539403
vt 0.456679 0.649660
vt 0.426626 0.680165
vt 0.369111 0.552147
vt 0.399841 0.520954
vt 0.357621 0.395602
vt 0.393119 0.368761
vt 0.387202 0.261215
vt 0.425396 0.236160
vt 0.406141 0.141595
vt 0.443025 0.113387
vt 0.357788 0.680165
vt 0.402324 0.680318
vt 0.357621 0.820763
vt 0.357773 0.951870
vt 0.811728 0.993280
vt 0.767185 0.990597
vt 0.767158 0.867546
vt 0.811707 0.871325
vt 0.767161 0.763442
vt 0.811715 0.768344
vt 0.446857 0.680415
vt 0.722650 0.991070
vt 0.722623 0.868009
vt 0.722626 0.763889
vt 0.642630 0.747999
vt 0.642534 0.885043
vt 0.642630 1.000000
vt 0.501251 0.682689
vt 0.545798 0.679793
vt 0.545766 0.804164
vt 0.501212 0.808129
vt 0.545793 0.910368
vt 0.501234 0.915485
vt 0.456718 0.681868
vt 0.456679 0.807308
vt 0.456701 0.914664
vt 0.811750 0.000000
vt 0.089146 0.906739
vt 0.044590 0.906514
vt 0.044513 0.812094
vt 0.089069 0.812319
vt 0.720755 0.242268
vt 0.686255 0.243614
vt 0.685904 0.148969
vt 0.720405 0.147623
vt 0.331600 0.872409
vt 0.327094 0.822375
vt 0.353115 0.822296
vt 0.357621 0.872329
vt 0.331600 0.772338
vt 0.357621 0.772259
vt 0.000000 0.812451
vt 0.000077 0.770105
vt 0.044590 0.769748
vt 0.089146 0.769974
vt 0.666433 0.105111
vt 0.700934 0.103765
vt 0.601326 0.598854
vt 0.635827 0.600200
vt 0.616355 0.644058
vt 0.581855 0.642712
vt 0.179619 0.872332
vt 0.179479 0.822281
vt 0.203980 0.822278
vt 0.204120 0.872329
vt 0.179619 0.772261
vt 0.204120 0.772259
vt 0.697267 0.847893
vt 0.722623 0.848003
vt 0.638147 0.082339
vt 0.672648 0.080993
vt 0.588069 0.666830
vt 0.553569 0.665484
vt 0.228590 0.822323
vt 0.228730 0.872374
vt 0.228730 0.772303
vt 0.139344 0.769759
vt 0.638045 0.054800
vt 0.672545 0.053454
vt 0.587967 0.694369
vt 0.553467 0.693023
vt 0.276831 0.772259
vt 0.272339 0.822291
vt 0.228730 0.822369
vt 0.233222 0.772337
vt 0.276831 0.872329
vt 0.233222 0.872407
vt 0.647159 0.026774
vt 0.681659 0.025428
vt 0.597081 0.722395
vt 0.562581 0.721049
vt 0.811868 0.943550
vt 0.811728 0.893499
vt 0.827448 0.892867
vt 0.827520 0.918505
vt 0.811868 0.843479
vt 0.827520 0.867246
vt 0.323673 0.872392
vt 0.280562 0.872329
vt 0.688123 0.001346
vt 0.722623 0.000000
vt 0.638045 0.747823
vt 0.603545 0.746477
vt 0.828513 0.554185
vt 0.811883 0.529913
vt 0.173761 0.869819
vt 0.139344 0.871336
vt 0.603545 0.000000
vt 0.638045 0.001346
vt 0.636360 0.456233
vt 0.601860 0.454887
vt 0.722623 0.746477
vt 0.688123 0.747823
vt 0.686438 0.292936
vt 0.720938 0.291590
vt 0.900819 0.454076
vt 0.856263 0.453804
vt 0.856263 0.000000
vt 0.900819 0.000271
vt 0.811750 0.454116
vt 0.811750 0.000311
vt 0.767200 0.643332
vt 0.722679 0.643176
vt 0.722637 0.188500
vt 0.767158 0.188657
vt 0.811750 0.643175
vt 0.811707 0.188499
vt 0.089146 0.920271
vt 0.089146 0.870212
vt 0.132942 0.869945
vt 0.132942 0.920005
vt 0.501252 0.982781
vt 0.456728 0.978491
vt 0.545798 0.978712
vt 0.223248 0.872374
vt 0.223359 0.922422
vt 0.179479 0.922422
vt 0.180600 0.872377
vt 0.722652 0.646812
vt 0.811728 0.647433
vt 0.427250 0.000000
vt 0.456679 0.036599
vt 0.553467 0.643566
vt 0.525471 0.679793
vt 0.000073 0.908157
vt 0.602523 0.502857
vt 0.636177 0.505555
vt 0.179479 0.744864
vt 0.179479 0.175679
vt 0.950410 0.582039
vt 0.901872 0.583557
vt 0.357621 0.175988
vt 1.000000 0.733816
vt 0.950410 0.733819
vt 0.950410 0.582287
vt 0.998947 0.583556
vt 0.357621 0.024943
vt 0.179479 0.024881
vt 0.900819 0.733817
vn 0.000000 1.000000 0.000000
vn 0.101100 0.994800 0.000000
vn 0.098500 0.968300 -0.229500
vn 0.000000 0.974500 -0.224100
vn -0.241000 0.970500 0.000000
vn -0.811500 0.584300 -0.008400
vn -0.810400 0.585700 -0.008400
vn 0.167500 -0.985900 0.000000
vn 0.795400 -0.606000 0.000000
vn -0.000100 0.001300 1.000000
vn -0.000100 0.001400 1.000000
vn 0.000000 0.000000 1.000000
vn 0.000000 -0.007400 1.000000
vn 0.001400 -0.007500 1.000000
vn 0.000700 -0.002600 1.000000
vn 0.000000 -0.002700 1.000000
vn 1.000000 0.000800 0.006700
vn 1.000000 0.000900 0.006900
vn -0.001400 -0.007500 1.000000
vn -0.000700 -0.002600 1.000000
vn -0.005700 -0.282000 -0.959400
vn 0.000000 0.000000 -1.000000
vn -1.000000 -0.000900 -0.006800
vn -0.795400 -0.606000 0.000000
vn -0.012200 -0.892400 -0.451000
vn 0.006800 -0.892100 -0.451700
vn 0.004400 -0.677500 -0.735500
vn -0.025600 -0.677800 -0.734800
vn -0.013700 0.960300 0.278600
vn 0.005900 0.960900 0.276600
vn 0.012300 0.882900 0.469300
vn -0.012600 0.882900 0.469300
vn 0.025400 0.656300 0.754000
vn -0.009400 0.656700 0.754100
vn 0.076800 0.754800 -0.651400
vn 0.000000 0.770000 -0.638000
vn 0.000000 -0.768900 0.639300
vn 0.063700 -0.756700 0.650600
vn 0.075200 -0.892700 0.444200
vn 0.000000 -0.885200 0.465200
vn 0.082600 -0.981200 -0.174300
vn -0.000100 -0.984000 -0.178000
vn 0.064200 -0.762700 -0.643500
vn 0.000100 -0.748600 -0.663000
vn -0.082600 -0.981300 -0.173800
vn -0.064300 -0.763300 -0.642900
vn -0.000100 -0.721900 -0.692000
vn 0.756000 -0.298700 -0.582400
vn 0.001200 0.511900 -0.859000
vn 0.253100 0.411800 -0.875400
vn 0.202700 -0.461200 -0.863800
vn 0.000000 -0.511800 -0.859100
vn -0.256500 0.400100 -0.879800
vn -0.187800 -0.472700 -0.861000
vn -0.698100 -0.333700 -0.633500
vn -0.642200 0.256100 -0.722500
vn 0.813400 0.581700 0.008500
vn 0.814400 0.580200 0.008500
vn 0.241000 0.970500 0.000000
vn -0.167500 -0.985900 0.000000
vn 0.000000 -1.000000 0.000000
vn 0.000100 0.001400 1.000000
vn 0.000100 0.001300 1.000000
vn 0.000000 0.001300 1.000000
vn 0.002200 -0.281400 -0.959600
vn -0.003700 -0.606100 -0.795400
vn -0.101100 0.994800 0.000000
vn -0.098500 0.968300 -0.229500
vn 0.002000 -0.007700 0.999900
vn 0.000800 -0.001900 1.000000
vn -0.006000 0.006000 -0.999900
vn 0.000000 0.007400 -1.000000
vn -0.010700 -0.005600 -0.999900
vn 0.005900 0.005900 -0.999900
vn 0.010100 -0.004800 -0.999900
vn -0.000800 -0.001900 1.000000
vn -0.003800 -0.006700 -1.000000
vn 0.003800 -0.006800 -1.000000
vn -1.000000 0.000000 0.000000
vn 1.000000 0.000000 0.000000
vn -0.031100 -0.894400 -0.446100
vn -0.055000 -0.682800 -0.728500
vn -0.041300 -0.578500 -0.814600
vn -0.084800 -0.578500 -0.811200
vn -0.043200 -0.620500 -0.783000
vn -0.094700 -0.616200 -0.781900
vn 0.003100 -0.575900 -0.817500
vn 0.007700 -0.622500 -0.782600
vn 0.025500 0.961200 0.274600
vn 0.036900 0.885400 0.463300
vn 0.059500 0.661700 0.747400
vn 0.087600 0.575100 0.813400
vn 0.040100 0.576600 0.816000
vn 0.094600 0.614700 0.783000
vn 0.036800 0.622800 0.781500
vn -0.008200 0.573700 0.819000
vn -0.020100 0.628900 0.777200
vn -0.076800 0.754800 -0.651400
vn -0.083900 -0.996500 0.000000
vn -0.004000 -1.000000 0.002500
vn -0.002400 -0.974200 0.225800
vn -0.081700 -0.969900 0.229200
vn 0.999200 0.038900 0.000000
vn 0.999200 0.038600 -0.010500
vn 0.999200 0.038700 -0.008100
vn 0.000000 0.884000 -0.467400
vn -0.090700 0.892500 -0.441800
vn 0.090700 0.892500 -0.441800
vn 0.076900 -0.969700 0.231700
vn -0.063700 -0.756700 0.650600
vn 0.998400 0.037600 -0.041300
vn 0.998900 0.038100 -0.027000
vn -0.999200 -0.038800 0.010600
vn -0.999200 -0.038900 0.008100
vn -0.998900 -0.038100 0.027000
vn -0.998400 -0.037600 0.041300
vn 0.000100 0.983900 0.178300
vn -0.099600 0.979700 0.173700
vn 0.099600 0.979800 0.173200
vn -0.075200 -0.892700 0.444200
vn 0.999100 0.038400 -0.015400
vn 0.998800 0.037900 -0.031400
vn -0.998800 -0.037900 0.031400
vn -0.999100 -0.038400 0.015400
vn -0.000100 0.746800 0.665000
vn -0.077600 0.763500 0.641100
vn 0.077700 0.764100 0.640400
vn 0.999200 0.039100 0.005000
vn 0.999200 0.039100 0.006500
vn -0.999200 -0.039100 -0.006500
vn -0.999200 -0.039100 -0.005000
vn 0.000000 0.479800 0.877300
vn -0.048700 0.479300 0.876300
vn 0.048700 0.479300 0.876300
vn 0.998900 0.039600 0.024000
vn 0.997600 0.040600 0.055700
vn -0.997600 -0.040600 -0.055700
vn -0.998900 -0.039600 -0.024000
vn -0.001700 0.866700 -0.498900
vn 0.651800 0.309800 -0.692200
vn -0.999200 -0.038900 0.000000
vn -0.999200 -0.039200 -0.000200
vn 0.083900 -0.996500 0.000000
vn 0.026200 0.626100 0.779200
vn -0.031500 0.639500 0.768200
vn 0.083700 0.610600 0.787500
vn -0.074400 0.997200 0.009700
vn 0.012300 -0.641100 -0.767300
vn -0.036800 -0.635200 -0.771500
vn -0.085800 -0.627700 -0.773700
vn 0.074600 -0.997200 0.004900
vn -0.999200 -0.039400 -0.000100
vn -0.002000 -0.007700 0.999900
vn -0.009800 -0.005500 -0.999900
vn 0.999900 -0.001600 0.013700
vn 0.999900 -0.001700 0.013700
vn 0.009400 -0.005200 -0.999900
vn -0.999900 0.001600 -0.013700
vn -0.999900 0.001700 -0.013700
vn 0.012700 0.003800 -0.999900
vn -0.013100 0.003900 -0.999900
usemtl Latern
s 1
f 71/1/1 70/2/2 106/3/3 40/4/4
f 77/5/5 6/6/5 3/7/6 126/8/7
f 137/9/8 80/10/8 5/11/9 76/12/9
f 18/13/10 201/14/11 200/15/12 135/16/12
f 82/17/13 141/18/14 17/19/15 15/20/16
f 11/21/17 12/22/18 76/23/9 5/24/9
f 81/25/19 82/17/13 15/20/16 13/26/20
f 92/27/21 129/28/22 130/29/22 133/30/22
f 9/31/23 10/32/23 2/24/24 72/33/24
f 33/34/25 103/35/26 104/36/27 32/37/28
f 87/38/29 22/39/30 26/40/31 96/41/32
f 96/41/32 26/40/31 25/42/33 102/43/34
f 40/4/4 106/3/3 108/44/35 42/45/36
f 43/46/37 110/47/38 112/48/39 47/49/40
f 47/50/40 112/51/39 114/52/41 52/53/42
f 52/53/42 114/52/41 117/54/43 54/55/44
f 115/56/45 52/53/42 54/55/44 118/57/46
f 118/58/46 54/59/44 59/60/47 119/61/48
f 63/62/49 65/63/50 66/64/51 64/65/52
f 61/66/53 63/62/49 64/65/52 62/67/54
f 119/68/48 59/69/47 64/70/52 66/71/51
f 57/72/55 56/73/56 61/66/53 62/67/54
f 4/74/57 74/75/58 73/76/59 174/77/59
f 174/77/59 73/76/59 173/78/1 175/79/1
f 175/79/1 173/78/1 6/6/5 77/5/5
f 72/80/24 2/81/24 75/82/60 83/83/60
f 83/83/60 75/82/60 7/84/61 8/85/61
f 8/85/61 7/84/61 80/10/8 137/9/8
f 140/86/62 14/87/63 78/88/12 138/89/12
f 14/87/63 16/90/64 136/91/12 78/88/12
f 16/90/64 18/13/10 135/16/12 136/91/12
f 127/92/22 88/93/65 139/94/22 128/95/22
f 88/93/65 94/96/66 134/97/22 139/94/22
f 94/96/66 92/27/21 133/30/22 134/97/22
f 120/98/67 71/1/1 40/4/4 198/99/68
f 141/18/14 1/100/69 19/101/70 17/19/15
f 132/102/71 79/103/72 95/104/72 21/105/73
f 79/103/72 142/106/74 158/107/75 95/104/72
f 20/108/76 13/26/20 14/87/63 140/86/62
f 13/26/20 15/20/16 16/90/64 14/87/63
f 15/20/16 17/19/15 18/13/10 16/90/64
f 86/109/77 93/110/22 181/111/22 183/112/22
f 93/110/22 90/113/78 91/114/22 181/111/22
f 202/115/79 182/116/79 186/117/79 188/118/79
f 188/118/79 186/117/79 187/119/79 189/120/79
f 189/120/79 187/119/79 29/121/79 34/122/79
f 34/122/79 29/121/79 215/123/79 205/124/79
f 184/125/80 203/126/80 210/127/80 27/128/80
f 27/128/80 210/127/80 37/129/80 212/130/80
f 212/130/80 37/129/80 36/131/80 28/132/80
f 28/132/80 36/131/80 218/133/80 214/134/80
f 92/135/21 94/136/66 33/34/25 98/137/81
f 98/137/81 33/34/25 32/37/28 148/138/82
f 148/139/82 32/140/28 31/141/83 147/142/84
f 147/142/84 31/141/83 30/143/85 105/144/86
f 94/136/66 88/145/65 103/35/26 33/34/25
f 32/140/28 104/146/27 217/147/87 31/141/83
f 31/141/83 217/147/87 35/148/88 30/143/85
f 22/39/30 185/149/89 211/150/90 26/40/31
f 26/40/31 211/150/90 99/151/91 25/42/33
f 25/152/33 99/153/91 213/154/92 24/155/93
f 24/155/93 213/154/92 100/156/94 23/157/95
f 102/158/34 25/152/33 24/155/93 216/159/96
f 216/159/96 24/155/93 23/157/95 101/160/97
f 198/99/68 40/4/4 42/45/36 109/161/98
f 124/162/99 227/163/100 41/164/101 111/165/102
f 149/166/103 170/167/103 168/168/104 150/169/105
f 109/170/98 42/171/36 46/172/106 45/173/107
f 42/171/36 108/174/35 221/175/108 46/172/106
f 41/164/101 220/176/109 110/177/38 43/178/37
f 111/165/102 41/164/101 43/178/37 44/179/110
f 150/169/105 168/168/104 191/180/111 151/181/112
f 39/182/113 38/183/114 219/184/115 152/185/116
f 45/186/107 46/187/106 51/188/117 50/189/118
f 46/187/106 221/190/108 113/191/119 51/188/117
f 44/192/110 43/46/37 47/49/40 190/193/120
f 151/181/112 191/180/111 49/194/121 48/195/122
f 152/185/116 219/184/115 193/196/123 153/197/124
f 50/189/118 51/188/117 53/198/125 116/199/126
f 51/188/117 113/191/119 55/200/127 53/198/125
f 190/201/120 47/50/40 52/53/42 115/56/45
f 48/195/122 49/194/121 157/202/128 222/203/129
f 153/197/124 193/196/123 192/204/130 154/205/131
f 116/206/126 53/207/125 58/208/132 225/209/133
f 53/207/125 55/210/127 195/211/134 58/208/132
f 222/203/129 157/202/128 156/212/135 194/213/136
f 154/205/131 192/204/130 223/214/137 155/215/138
f 56/216/56 224/217/139 63/218/49 61/219/53
f 224/217/139 60/220/140 65/221/50 63/218/49
f 54/59/44 117/222/43 57/223/55 59/60/47
f 194/213/136 156/212/135 119/224/48 60/225/140
f 155/215/138 223/214/137 56/226/56 57/227/55
f 59/69/47 57/228/55 62/229/54 64/70/52
f 60/230/140 119/231/48 66/64/51 65/63/50
f 179/232/141 145/233/141 197/234/142 123/235/142
f 89/236/103 176/237/103 164/238/103 68/239/103
f 177/240/99 178/241/61 161/242/61 166/243/99
f 178/241/61 180/244/143 231/245/143 161/242/61
f 144/246/1 159/247/2 160/248/2 67/249/1
f 146/250/67 144/246/1 67/249/1 69/251/67
f 68/239/103 164/238/103 170/167/103 149/166/103
f 107/252/99 122/253/99 226/254/99 169/255/99
f 67/249/1 160/248/2 70/2/2 71/1/1
f 69/251/67 67/249/1 71/1/1 120/98/67
f 101/160/97 23/157/95 162/256/144 229/257/145
f 23/157/95 100/156/94 165/258/146 162/256/144
f 232/259/147 163/260/147 228/261/147 209/262/147
f 30/143/85 35/148/88 97/263/148 121/246/149
f 105/144/86 30/143/85 121/246/149 171/264/150
f 214/134/80 218/133/80 172/265/80 167/266/80
f 205/124/79 215/123/79 230/267/79 206/268/79
f 227/163/100 207/269/151 220/176/109 41/164/101
f 208/270/152 196/271/152 38/183/114 39/182/113
f 123/235/142 197/234/142 196/271/152 208/270/152
f 199/272/153 81/25/19 13/26/20 20/108/76
f 17/19/15 19/101/70 201/14/11 18/13/10
f 84/273/154 21/105/73 86/109/77
f 127/92/22 183/112/22 88/93/65
f 234/274/155 204/275/156 12/22/18 11/21/17
f 158/107/75 85/276/157 90/113/78
f 91/114/22 129/28/22 92/27/21
f 126/277/7 3/278/6 233/279/158 125/280/159
f 142/106/74 143/281/160 85/276/157 158/107/75
f 131/282/161 132/102/71 21/105/73 84/273/154
f 125/280/159 233/279/158 10/32/23 9/31/23
f 90/113/78 85/276/157 129/28/22 91/114/22
f 74/278/58 4/283/57 204/275/156 234/274/155
f 84/273/154 86/109/77 183/112/22 127/92/22
